{"accessors": [{"bufferView": 2, "componentType": 5126, "count": 1584, "max": [2.917304515838623, 6.152752876281738, 0.0], "min": [-3.594416618347168, 2.7733817033279845e-14, -0.19461782276630402], "type": "VEC3"}, {"bufferView": 2, "byteOffset": 19008, "componentType": 5126, "count": 1584, "max": [1.0, 1.0, 1.0], "min": [-1.0, -1.0, 0.0], "type": "VEC3"}, {"bufferView": 1, "componentType": 5126, "count": 1584, "max": [0.928779125213623, 0.9548368453979492], "min": [0.09462481737136841, 0.1666666567325592], "type": "VEC2"}, {"bufferView": 0, "componentType": 5125, "count": 4698, "type": "SCALAR"}, {"bufferView": 2, "byteOffset": 38016, "componentType": 5126, "count": 96, "max": [2.476841926574707, 5.284473419189453, -0.19461782276630402], "min": [-3.2394909858703613, 1.153445839881897, -0.19461782276630402], "type": "VEC3"}, {"bufferView": 2, "byteOffset": 39168, "componentType": 5126, "count": 96, "max": [0.0, 0.0, 1.0], "min": [0.0, 0.0, 1.0], "type": "VEC3"}, {"bufferView": 1, "byteOffset": 12672, "componentType": 5126, "count": 96, "max": [0.8723556399345398, 0.8436099290847778], "min": [0.1400909423828125, 0.314423531293869], "type": "VEC2"}, {"bufferView": 0, "byteOffset": 18792, "componentType": 5125, "count": 252, "type": "SCALAR"}, {"bufferView": 2, "byteOffset": 40320, "componentType": 5126, "count": 697, "max": [3.4515461921691895, 6.622851848602295, 0.25799161195755005], "min": [-3.244502305984497, 0.0, -0.1652548760175705], "type": "VEC3"}, {"bufferView": 2, "byteOffset": 48684, "componentType": 5126, "count": 697, "max": [1.0, 1.0, 1.0], "min": [-1.0, -1.0, 0.0], "type": "VEC3"}, {"bufferView": 1, "byteOffset": 13440, "componentType": 5126, "count": 697, "max": [0.9043572545051575, 0.9434221386909485], "min": [0.0, 0.0], "type": "VEC2"}, {"bufferView": 0, "byteOffset": 19800, "componentType": 5125, "count": 1902, "type": "SCALAR"}, {"bufferView": 2, "byteOffset": 57048, "componentType": 5126, "count": 65, "max": [3.1281654834747314, 5.367263317108154, -0.14382508397102356], "min": [-2.991924285888672, 0.784285306930542, -0.14382508397102356], "type": "VEC3"}, {"bufferView": 2, "byteOffset": 57828, "componentType": 5126, "count": 65, "max": [6.073921365867818e-09, 0.0, 1.0], "min": [-5.486374465846211e-09, 0.0, 1.0], "type": "VEC3"}, {"bufferView": 1, "byteOffset": 19016, "componentType": 5126, "count": 65, "max": [0.8659176826477051, 0.7941732406616211], "min": [0.13843756914138794, 0.2494058609008789], "type": "VEC2"}, {"bufferView": 0, "byteOffset": 27408, "componentType": 5125, "count": 153, "type": "SCALAR"}, {"bufferView": 2, "byteOffset": 58608, "componentType": 5126, "count": 1599, "max": [2.859236001968384, 6.561428070068359, 0.2994585335254669], "min": [-3.0484824180603027, -1.600574672799837e-10, -0.2718712091445923], "type": "VEC3"}, {"bufferView": 2, "byteOffset": 77796, "componentType": 5126, "count": 1599, "max": [1.0, 1.0, 1.0], "min": [-1.0, -1.0, 0.0], "type": "VEC3"}, {"bufferView": 1, "byteOffset": 19536, "componentType": 5126, "count": 1599, "max": [0.8958303928375244, 0.9934108257293701], "min": [0.0, 0.0], "type": "VEC2"}, {"bufferView": 0, "byteOffset": 28020, "componentType": 5125, "count": 5220, "type": "SCALAR"}, {"bufferView": 2, "byteOffset": 96984, "componentType": 5126, "count": 112, "max": [2.3289480209350586, 5.47138786315918, -0.18225587904453278], "min": [-2.513622760772705, 0.9264357089996338, -0.2718712091445923], "type": "VEC3"}, {"bufferView": 2, "byteOffset": 98328, "componentType": 5126, "count": 112, "max": [0.0, 0.0, 1.0], "min": [0.0, 0.0, 1.0], "type": "VEC3"}, {"bufferView": 1, "byteOffset": 32328, "componentType": 5126, "count": 112, "max": [0.8235121965408325, 0.8447563648223877], "min": [0.1631055623292923, 0.2249373495578766], "type": "VEC2"}, {"bufferView": 0, "byteOffset": 48900, "componentType": 5125, "count": 372, "type": "SCALAR"}, {"bufferView": 2, "byteOffset": 99672, "componentType": 5126, "count": 1599, "max": [2.859236001968384, 6.561428070068359, 0.2994585335254669], "min": [-3.0484824180603027, -1.600574672799837e-10, -0.2718712091445923], "type": "VEC3"}, {"bufferView": 2, "byteOffset": 118860, "componentType": 5126, "count": 1599, "max": [1.0, 1.0, 1.0], "min": [-1.0, -1.0, 0.0], "type": "VEC3"}, {"bufferView": 1, "byteOffset": 33224, "componentType": 5126, "count": 1599, "max": [0.8958303928375244, 0.9934108257293701], "min": [0.0, 0.0], "type": "VEC2"}, {"bufferView": 0, "byteOffset": 50388, "componentType": 5125, "count": 5220, "type": "SCALAR"}, {"bufferView": 2, "byteOffset": 138048, "componentType": 5126, "count": 112, "max": [2.3289480209350586, 5.47138786315918, -0.18225587904453278], "min": [-2.513622760772705, 0.9264357089996338, -0.2718712091445923], "type": "VEC3"}, {"bufferView": 2, "byteOffset": 139392, "componentType": 5126, "count": 112, "max": [0.0, 0.0, 1.0], "min": [0.0, 0.0, 1.0], "type": "VEC3"}, {"bufferView": 1, "byteOffset": 46016, "componentType": 5126, "count": 112, "max": [0.8235121965408325, 0.8447563648223877], "min": [0.1631055623292923, 0.2249373495578766], "type": "VEC2"}, {"bufferView": 0, "byteOffset": 71268, "componentType": 5125, "count": 372, "type": "SCALAR"}, {"bufferView": 2, "byteOffset": 140736, "componentType": 5126, "count": 1599, "max": [2.859236001968384, 6.561428070068359, 0.2994585335254669], "min": [-3.0484824180603027, -1.600574672799837e-10, -0.2718712091445923], "type": "VEC3"}, {"bufferView": 2, "byteOffset": 159924, "componentType": 5126, "count": 1599, "max": [1.0, 1.0, 1.0], "min": [-1.0, -1.0, 0.0], "type": "VEC3"}, {"bufferView": 1, "byteOffset": 46912, "componentType": 5126, "count": 1599, "max": [0.8958303928375244, 0.9934108257293701], "min": [0.0, 0.0], "type": "VEC2"}, {"bufferView": 0, "byteOffset": 72756, "componentType": 5125, "count": 5220, "type": "SCALAR"}, {"bufferView": 2, "byteOffset": 179112, "componentType": 5126, "count": 112, "max": [2.3289480209350586, 5.47138786315918, -0.18225587904453278], "min": [-2.513622760772705, 0.9264357089996338, -0.2718712091445923], "type": "VEC3"}, {"bufferView": 2, "byteOffset": 180456, "componentType": 5126, "count": 112, "max": [0.0, 0.0, 1.0], "min": [0.0, 0.0, 1.0], "type": "VEC3"}, {"bufferView": 1, "byteOffset": 59704, "componentType": 5126, "count": 112, "max": [0.8235121965408325, 0.8447563648223877], "min": [0.1631055623292923, 0.2249373495578766], "type": "VEC2"}, {"bufferView": 0, "byteOffset": 93636, "componentType": 5125, "count": 372, "type": "SCALAR"}, {"bufferView": 2, "byteOffset": 181800, "componentType": 5126, "count": 1599, "max": [2.859236001968384, 6.561428070068359, 0.2994585335254669], "min": [-3.0484824180603027, -1.600574672799837e-10, -0.2718712091445923], "type": "VEC3"}, {"bufferView": 2, "byteOffset": 200988, "componentType": 5126, "count": 1599, "max": [1.0, 1.0, 1.0], "min": [-1.0, -1.0, 0.0], "type": "VEC3"}, {"bufferView": 1, "byteOffset": 60600, "componentType": 5126, "count": 1599, "max": [0.8958303928375244, 0.9934108257293701], "min": [0.0, 0.0], "type": "VEC2"}, {"bufferView": 0, "byteOffset": 95124, "componentType": 5125, "count": 5220, "type": "SCALAR"}, {"bufferView": 2, "byteOffset": 220176, "componentType": 5126, "count": 112, "max": [2.3289480209350586, 5.47138786315918, -0.18225587904453278], "min": [-2.513622760772705, 0.9264357089996338, -0.2718712091445923], "type": "VEC3"}, {"bufferView": 2, "byteOffset": 221520, "componentType": 5126, "count": 112, "max": [0.0, 0.0, 1.0], "min": [0.0, 0.0, 1.0], "type": "VEC3"}, {"bufferView": 1, "byteOffset": 73392, "componentType": 5126, "count": 112, "max": [0.8235121965408325, 0.8447563648223877], "min": [0.1631055623292923, 0.2249373495578766], "type": "VEC2"}, {"bufferView": 0, "byteOffset": 116004, "componentType": 5125, "count": 372, "type": "SCALAR"}, {"bufferView": 2, "byteOffset": 222864, "componentType": 5126, "count": 697, "max": [3.4515461921691895, 6.622851848602295, 0.25799161195755005], "min": [-3.244502305984497, 0.0, -0.1652548760175705], "type": "VEC3"}, {"bufferView": 2, "byteOffset": 231228, "componentType": 5126, "count": 697, "max": [1.0, 1.0, 1.0], "min": [-1.0, -1.0, 0.0], "type": "VEC3"}, {"bufferView": 1, "byteOffset": 74288, "componentType": 5126, "count": 697, "max": [0.9043572545051575, 0.9434221386909485], "min": [0.0, 0.0], "type": "VEC2"}, {"bufferView": 0, "byteOffset": 117492, "componentType": 5125, "count": 1902, "type": "SCALAR"}, {"bufferView": 2, "byteOffset": 239592, "componentType": 5126, "count": 65, "max": [3.1281654834747314, 5.367263317108154, -0.14382508397102356], "min": [-2.991924285888672, 0.784285306930542, -0.14382508397102356], "type": "VEC3"}, {"bufferView": 2, "byteOffset": 240372, "componentType": 5126, "count": 65, "max": [6.073921365867818e-09, 0.0, 1.0], "min": [-5.486374465846211e-09, 0.0, 1.0], "type": "VEC3"}, {"bufferView": 1, "byteOffset": 79864, "componentType": 5126, "count": 65, "max": [0.8659176826477051, 0.7941732406616211], "min": [0.13843756914138794, 0.2494058609008789], "type": "VEC2"}, {"bufferView": 0, "byteOffset": 125100, "componentType": 5125, "count": 153, "type": "SCALAR"}, {"bufferView": 2, "byteOffset": 241152, "componentType": 5126, "count": 697, "max": [3.4515461921691895, 6.622851848602295, 0.25799161195755005], "min": [-3.244502305984497, 0.0, -0.1652548760175705], "type": "VEC3"}, {"bufferView": 2, "byteOffset": 249516, "componentType": 5126, "count": 697, "max": [1.0, 1.0, 1.0], "min": [-1.0, -1.0, 0.0], "type": "VEC3"}, {"bufferView": 1, "byteOffset": 80384, "componentType": 5126, "count": 697, "max": [0.9043572545051575, 0.9434221386909485], "min": [0.0, 0.0], "type": "VEC2"}, {"bufferView": 0, "byteOffset": 125712, "componentType": 5125, "count": 1902, "type": "SCALAR"}, {"bufferView": 2, "byteOffset": 257880, "componentType": 5126, "count": 65, "max": [3.1281654834747314, 5.367263317108154, -0.14382508397102356], "min": [-2.991924285888672, 0.784285306930542, -0.14382508397102356], "type": "VEC3"}, {"bufferView": 2, "byteOffset": 258660, "componentType": 5126, "count": 65, "max": [6.073921365867818e-09, 0.0, 1.0], "min": [-5.486374465846211e-09, 0.0, 1.0], "type": "VEC3"}, {"bufferView": 1, "byteOffset": 85960, "componentType": 5126, "count": 65, "max": [0.8659176826477051, 0.7941732406616211], "min": [0.13843756914138794, 0.2494058609008789], "type": "VEC2"}, {"bufferView": 0, "byteOffset": 133320, "componentType": 5125, "count": 153, "type": "SCALAR"}, {"bufferView": 2, "byteOffset": 259440, "componentType": 5126, "count": 697, "max": [3.4515461921691895, 6.622851848602295, 0.25799161195755005], "min": [-3.244502305984497, 0.0, -0.1652548760175705], "type": "VEC3"}, {"bufferView": 2, "byteOffset": 267804, "componentType": 5126, "count": 697, "max": [1.0, 1.0, 1.0], "min": [-1.0, -1.0, 0.0], "type": "VEC3"}, {"bufferView": 1, "byteOffset": 86480, "componentType": 5126, "count": 697, "max": [0.9043572545051575, 0.9434221386909485], "min": [0.0, 0.0], "type": "VEC2"}, {"bufferView": 0, "byteOffset": 133932, "componentType": 5125, "count": 1902, "type": "SCALAR"}, {"bufferView": 2, "byteOffset": 276168, "componentType": 5126, "count": 65, "max": [3.1281654834747314, 5.367263317108154, -0.14382508397102356], "min": [-2.991924285888672, 0.784285306930542, -0.14382508397102356], "type": "VEC3"}, {"bufferView": 2, "byteOffset": 276948, "componentType": 5126, "count": 65, "max": [6.073921365867818e-09, 0.0, 1.0], "min": [-5.486374465846211e-09, 0.0, 1.0], "type": "VEC3"}, {"bufferView": 1, "byteOffset": 92056, "componentType": 5126, "count": 65, "max": [0.8659176826477051, 0.7941732406616211], "min": [0.13843756914138794, 0.2494058609008789], "type": "VEC2"}, {"bufferView": 0, "byteOffset": 141540, "componentType": 5125, "count": 153, "type": "SCALAR"}, {"bufferView": 2, "byteOffset": 277728, "componentType": 5126, "count": 1584, "max": [2.917304515838623, 6.152752876281738, 0.0], "min": [-3.594416618347168, 2.7733817033279845e-14, -0.19461782276630402], "type": "VEC3"}, {"bufferView": 2, "byteOffset": 296736, "componentType": 5126, "count": 1584, "max": [1.0, 1.0, 1.0], "min": [-1.0, -1.0, 0.0], "type": "VEC3"}, {"bufferView": 1, "byteOffset": 92576, "componentType": 5126, "count": 1584, "max": [0.928779125213623, 0.9548368453979492], "min": [0.09462481737136841, 0.1666666567325592], "type": "VEC2"}, {"bufferView": 0, "byteOffset": 142152, "componentType": 5125, "count": 4698, "type": "SCALAR"}, {"bufferView": 2, "byteOffset": 315744, "componentType": 5126, "count": 96, "max": [2.476841926574707, 5.284473419189453, -0.19461782276630402], "min": [-3.2394909858703613, 1.153445839881897, -0.19461782276630402], "type": "VEC3"}, {"bufferView": 2, "byteOffset": 316896, "componentType": 5126, "count": 96, "max": [0.0, 0.0, 1.0], "min": [0.0, 0.0, 1.0], "type": "VEC3"}, {"bufferView": 1, "byteOffset": 105248, "componentType": 5126, "count": 96, "max": [0.8723556399345398, 0.8436099290847778], "min": [0.1400909423828125, 0.314423531293869], "type": "VEC2"}, {"bufferView": 0, "byteOffset": 160944, "componentType": 5125, "count": 252, "type": "SCALAR"}, {"bufferView": 2, "byteOffset": 318048, "componentType": 5126, "count": 1584, "max": [2.917304515838623, 6.152752876281738, 0.0], "min": [-3.594416618347168, 2.7733817033279845e-14, -0.19461782276630402], "type": "VEC3"}, {"bufferView": 2, "byteOffset": 337056, "componentType": 5126, "count": 1584, "max": [1.0, 1.0, 1.0], "min": [-1.0, -1.0, 0.0], "type": "VEC3"}, {"bufferView": 1, "byteOffset": 106016, "componentType": 5126, "count": 1584, "max": [0.928779125213623, 0.9548368453979492], "min": [0.09462481737136841, 0.1666666567325592], "type": "VEC2"}, {"bufferView": 0, "byteOffset": 161952, "componentType": 5125, "count": 4698, "type": "SCALAR"}, {"bufferView": 2, "byteOffset": 356064, "componentType": 5126, "count": 96, "max": [2.476841926574707, 5.284473419189453, -0.19461782276630402], "min": [-3.2394909858703613, 1.153445839881897, -0.19461782276630402], "type": "VEC3"}, {"bufferView": 2, "byteOffset": 357216, "componentType": 5126, "count": 96, "max": [0.0, 0.0, 1.0], "min": [0.0, 0.0, 1.0], "type": "VEC3"}, {"bufferView": 1, "byteOffset": 118688, "componentType": 5126, "count": 96, "max": [0.8723556399345398, 0.8436099290847778], "min": [0.1400909423828125, 0.314423531293869], "type": "VEC2"}, {"bufferView": 0, "byteOffset": 180744, "componentType": 5125, "count": 252, "type": "SCALAR"}, {"bufferView": 2, "byteOffset": 358368, "componentType": 5126, "count": 1584, "max": [2.917304515838623, 6.152752876281738, 0.0], "min": [-3.594416618347168, 2.7733817033279845e-14, -0.19461782276630402], "type": "VEC3"}, {"bufferView": 2, "byteOffset": 377376, "componentType": 5126, "count": 1584, "max": [1.0, 1.0, 1.0], "min": [-1.0, -1.0, 0.0], "type": "VEC3"}, {"bufferView": 1, "byteOffset": 119456, "componentType": 5126, "count": 1584, "max": [0.928779125213623, 0.9548368453979492], "min": [0.09462481737136841, 0.1666666567325592], "type": "VEC2"}, {"bufferView": 0, "byteOffset": 181752, "componentType": 5125, "count": 4698, "type": "SCALAR"}, {"bufferView": 2, "byteOffset": 396384, "componentType": 5126, "count": 96, "max": [2.476841926574707, 5.284473419189453, -0.19461782276630402], "min": [-3.2394909858703613, 1.153445839881897, -0.19461782276630402], "type": "VEC3"}, {"bufferView": 2, "byteOffset": 397536, "componentType": 5126, "count": 96, "max": [0.0, 0.0, 1.0], "min": [0.0, 0.0, 1.0], "type": "VEC3"}, {"bufferView": 1, "byteOffset": 132128, "componentType": 5126, "count": 96, "max": [0.8723556399345398, 0.8436099290847778], "min": [0.1400909423828125, 0.314423531293869], "type": "VEC2"}, {"bufferView": 0, "byteOffset": 200544, "componentType": 5125, "count": 252, "type": "SCALAR"}], "asset": {"extras": {"author": "Fridqeir (https://sketchfab.com/Fridqeir)", "license": "CC-BY-4.0 (http://creativecommons.org/licenses/by/4.0/)", "source": "https://sketchfab.com/3d-models/old-building-pack-lowpoly-081eccb97be8429c83b2e9fb407727e7", "title": "Old Building Pack | Lowpoly"}, "generator": "Sketchfab-16.16.0", "version": "2.0"}, "bufferViews": [{"buffer": 0, "byteLength": 201552, "name": "floatBufferViews", "target": 34963, "byteOffset": 0}, {"buffer": 0, "byteLength": 132896, "byteOffset": 201552, "byteStride": 8, "name": "floatBufferViews", "target": 34962}, {"buffer": 0, "byteLength": 398688, "byteOffset": 334448, "byteStride": 12, "name": "floatBufferViews", "target": 34962}], "buffers": [{"uri": "scene.bin", "byteLength": 733136}], "images": [{"uri": "textures/Building_3_baseColor.jpg"}, {"uri": "textures/Building_2_baseColor.jpg"}, {"uri": "textures/Building_1_baseColor.jpg"}], "materials": [{"doubleSided": true, "name": "Building_3", "pbrMetallicRoughness": {"baseColorTexture": {"index": 0}, "metallicFactor": 0.0, "roughnessFactor": 0.8868629150101524}}, {"doubleSided": true, "name": "Windows_3", "pbrMetallicRoughness": {"baseColorTexture": {"index": 0}, "metallicFactor": 0.0, "roughnessFactor": 0.7470177871865296}}, {"doubleSided": true, "name": "Building_2", "pbrMetallicRoughness": {"baseColorTexture": {"index": 1}, "metallicFactor": 0.0, "roughnessFactor": 0.8868629150101524}}, {"doubleSided": true, "name": "Windows_2", "pbrMetallicRoughness": {"baseColorTexture": {"index": 1}, "metallicFactor": 0.0, "roughnessFactor": 0.7470177871865296}}, {"doubleSided": true, "name": "Building_1", "pbrMetallicRoughness": {"baseColorTexture": {"index": 2}, "metallicFactor": 0.0, "roughnessFactor": 0.8868629150101524}}, {"doubleSided": true, "name": "Windows_1", "pbrMetallicRoughness": {"baseColorTexture": {"index": 2}, "metallicFactor": 0.0, "roughnessFactor": 0.7470177871865296}}], "meshes": [{"name": "Building 3_Building 3_0", "primitives": [{"attributes": {"NORMAL": 1, "POSITION": 0, "TEXCOORD_0": 2}, "indices": 3, "material": 0, "mode": 4}]}, {"name": "Building 3_Windows 3_0", "primitives": [{"attributes": {"NORMAL": 5, "POSITION": 4, "TEXCOORD_0": 6}, "indices": 7, "material": 1, "mode": 4}]}, {"name": "Building 2_Building 2_0", "primitives": [{"attributes": {"NORMAL": 9, "POSITION": 8, "TEXCOORD_0": 10}, "indices": 11, "material": 2, "mode": 4}]}, {"name": "Building 2_Windows 2_0", "primitives": [{"attributes": {"NORMAL": 13, "POSITION": 12, "TEXCOORD_0": 14}, "indices": 15, "material": 3, "mode": 4}]}, {"name": "Building 1_Building 1_0", "primitives": [{"attributes": {"NORMAL": 17, "POSITION": 16, "TEXCOORD_0": 18}, "indices": 19, "material": 4, "mode": 4}]}, {"name": "Building 1_Windows 1_0", "primitives": [{"attributes": {"NORMAL": 21, "POSITION": 20, "TEXCOORD_0": 22}, "indices": 23, "material": 5, "mode": 4}]}, {"name": "Building 1.001_Building 1_0", "primitives": [{"attributes": {"NORMAL": 25, "POSITION": 24, "TEXCOORD_0": 26}, "indices": 27, "material": 4, "mode": 4}]}, {"name": "Building 1.001_Windows 1_0", "primitives": [{"attributes": {"NORMAL": 29, "POSITION": 28, "TEXCOORD_0": 30}, "indices": 31, "material": 5, "mode": 4}]}, {"name": "Building 1.002_Building 1_0", "primitives": [{"attributes": {"NORMAL": 33, "POSITION": 32, "TEXCOORD_0": 34}, "indices": 35, "material": 4, "mode": 4}]}, {"name": "Building 1.002_Windows 1_0", "primitives": [{"attributes": {"NORMAL": 37, "POSITION": 36, "TEXCOORD_0": 38}, "indices": 39, "material": 5, "mode": 4}]}, {"name": "Building 1.003_Building 1_0", "primitives": [{"attributes": {"NORMAL": 41, "POSITION": 40, "TEXCOORD_0": 42}, "indices": 43, "material": 4, "mode": 4}]}, {"name": "Building 1.003_Windows 1_0", "primitives": [{"attributes": {"NORMAL": 45, "POSITION": 44, "TEXCOORD_0": 46}, "indices": 47, "material": 5, "mode": 4}]}, {"name": "Building 2.001_Building 2_0", "primitives": [{"attributes": {"NORMAL": 49, "POSITION": 48, "TEXCOORD_0": 50}, "indices": 51, "material": 2, "mode": 4}]}, {"name": "Building 2.001_Windows 2_0", "primitives": [{"attributes": {"NORMAL": 53, "POSITION": 52, "TEXCOORD_0": 54}, "indices": 55, "material": 3, "mode": 4}]}, {"name": "Building 2.002_Building 2_0", "primitives": [{"attributes": {"NORMAL": 57, "POSITION": 56, "TEXCOORD_0": 58}, "indices": 59, "material": 2, "mode": 4}]}, {"name": "Building 2.002_Windows 2_0", "primitives": [{"attributes": {"NORMAL": 61, "POSITION": 60, "TEXCOORD_0": 62}, "indices": 63, "material": 3, "mode": 4}]}, {"name": "Building 2.003_Building 2_0", "primitives": [{"attributes": {"NORMAL": 65, "POSITION": 64, "TEXCOORD_0": 66}, "indices": 67, "material": 2, "mode": 4}]}, {"name": "Building 2.003_Windows 2_0", "primitives": [{"attributes": {"NORMAL": 69, "POSITION": 68, "TEXCOORD_0": 70}, "indices": 71, "material": 3, "mode": 4}]}, {"name": "Building 3.001_Building 3_0", "primitives": [{"attributes": {"NORMAL": 73, "POSITION": 72, "TEXCOORD_0": 74}, "indices": 75, "material": 0, "mode": 4}]}, {"name": "Building 3.001_Windows 3_0", "primitives": [{"attributes": {"NORMAL": 77, "POSITION": 76, "TEXCOORD_0": 78}, "indices": 79, "material": 1, "mode": 4}]}, {"name": "Building 3.002_Building 3_0", "primitives": [{"attributes": {"NORMAL": 81, "POSITION": 80, "TEXCOORD_0": 82}, "indices": 83, "material": 0, "mode": 4}]}, {"name": "Building 3.002_Windows 3_0", "primitives": [{"attributes": {"NORMAL": 85, "POSITION": 84, "TEXCOORD_0": 86}, "indices": 87, "material": 1, "mode": 4}]}, {"name": "Building 3.003_Building 3_0", "primitives": [{"attributes": {"NORMAL": 89, "POSITION": 88, "TEXCOORD_0": 90}, "indices": 91, "material": 0, "mode": 4}]}, {"name": "Building 3.003_Windows 3_0", "primitives": [{"attributes": {"NORMAL": 93, "POSITION": 92, "TEXCOORD_0": 94}, "indices": 95, "material": 1, "mode": 4}]}], "nodes": [{"children": [1], "matrix": [1.0, 0.0, 0.0, 0.0, 0.0, 2.220446049250313e-16, -1.0, 0.0, 0.0, 1.0, 2.220446049250313e-16, 0.0, 0.0, 0.0, 0.0, 1.0], "name": "Sketchfab_model"}, {"children": [2], "matrix": [0.009999999776482582, 0.0, 0.0, 0.0, 0.0, 0.0, 0.009999999776482582, 0.0, 0.0, -0.009999999776482582, 0.0, 0.0, 0.0, 0.0, 0.0, 1.0], "name": "Buildings.fbx"}, {"children": [3, 6, 9, 12, 15, 18, 21, 24, 27, 30, 33, 36], "name": "RootNode"}, {"children": [4, 5], "matrix": [1.9293354881526997e-05, -3.2785824100518953e-22, -99.08907318115047, 0.0, 4.331321304829362e-06, 99.08907318115224, 8.433393949843827e-13, 0.0, 99.08907318115037, -4.331321304829444e-06, 1.9293354881526997e-05, 0.0, 325.8658752441406, 0.0, -805.5015869140625, 1.0], "name": "Building 3"}, {"mesh": 0, "name": "Building 3_Building 3_0"}, {"mesh": 1, "name": "Building 3_Windows 3_0"}, {"children": [7, 8], "matrix": [1.9470718881642313e-05, -9.926167350636332e-22, -99.9999999999981, 0.0, 4.371139539216444e-06, 99.9999999999999, 8.51092291111779e-13, 0.0, 99.99999999999801, -4.371139539216527e-06, 1.9470718881642313e-05, 0.0, 325.8658752441406, 0.0, 2.2176175117492676, 1.0], "name": "Building 2"}, {"mesh": 2, "name": "Building 2_Building 2_0"}, {"mesh": 3, "name": "Building 2_Windows 2_0"}, {"children": [10, 11], "matrix": [1.9470718881642313e-05, -9.926167350636332e-22, -99.9999999999981, 0.0, 4.371139539216444e-06, 99.9999999999999, 8.51092291111779e-13, 0.0, 99.99999999999801, -4.371139539216527e-06, 1.9470718881642313e-05, 0.0, 325.8658752441406, 0.0, 716.8356323242188, 1.0], "name": "Building 1"}, {"mesh": 4, "name": "Building 1_Building 1_0"}, {"mesh": 5, "name": "Building 1_Windows 1_0"}, {"children": [13, 14], "matrix": [99.9999999999999, 4.371138828673793e-06, 3.946329926479214e-23, 0.0, -4.371138828673789e-06, 99.99999999999982, 4.371138828673791e-06, 0.0, 1.9106854655593366e-13, -4.371138828673788e-06, 99.9999999999999, 0.0, 49.1016731262207, 0.0, 1012.52392578125, 1.0], "name": "Building 1.001"}, {"mesh": 6, "name": "Building 1.001_Building 1_0"}, {"mesh": 7, "name": "Building 1.001_Windows 1_0"}, {"children": [16, 17], "matrix": [1.9470718881642313e-05, 9.926167350636332e-22, 99.9999999999981, 0.0, -4.371139539216444e-06, 99.9999999999999, 8.51092291111779e-13, 0.0, -99.99999999999801, -4.371139539216527e-06, 1.9470718881642313e-05, 0.0, -246.45977783203125, 0.0, 735.9273681640625, 1.0], "name": "Building 1.002"}, {"mesh": 8, "name": "Building 1.002_Building 1_0"}, {"mesh": 9, "name": "Building 1.002_Windows 1_0"}, {"children": [19, 20], "matrix": [-99.99999999999235, 4.371138840919929e-06, -3.8941437775530126e-05, 0.0, 4.371140543104015e-06, 99.99999999999982, -4.371137419834458e-06, 0.0, 3.894143758446157e-05, -4.371139122019097e-06, -99.99999999999235, 0.0, 30.304420471191406, 0.0, 440.2391052246094, 1.0], "name": "Building 1.003"}, {"mesh": 10, "name": "Building 1.003_Building 1_0"}, {"mesh": 11, "name": "Building 1.003_Windows 1_0"}, {"children": [22, 23], "matrix": [99.9999999999999, 4.371138828673793e-06, 3.946329926479214e-23, 0.0, -4.371138828673789e-06, 99.99999999999982, 4.371138828673791e-06, 0.0, 1.9106854655593366e-13, -4.371138828673788e-06, 99.9999999999999, 0.0, -19.10582733154297, 0.0, 326.5330810546875, 1.0], "name": "Building 2.001"}, {"mesh": 12, "name": "Building 2.001_Building 2_0"}, {"mesh": 13, "name": "Building 2.001_Windows 2_0"}, {"children": [25, 26], "matrix": [1.9470718881642313e-05, 9.926167350636332e-22, 99.9999999999981, 0.0, -4.371139539216444e-06, 99.9999999999999, 8.51092291111779e-13, 0.0, -99.99999999999801, -4.371139539216527e-06, 1.9470718881642313e-05, 0.0, -343.2107849121094, 0.0, -18.31890106201172, 1.0], "name": "Building 2.002"}, {"mesh": 14, "name": "Building 2.002_Building 2_0"}, {"mesh": 15, "name": "Building 2.002_Windows 2_0"}, {"children": [28, 29], "matrix": [-99.99999999999235, 4.371138840919929e-06, -3.8941437775530126e-05, 0.0, 4.371140543104015e-06, 99.99999999999982, -4.371137419834458e-06, 0.0, 3.894143758446157e-05, -4.371139122019097e-06, -99.99999999999235, 0.0, 1.7609007358551025, 0.0, -342.63433837890625, 1.0], "name": "Building 2.003"}, {"mesh": 16, "name": "Building 2.003_Building 2_0"}, {"mesh": 17, "name": "Building 2.003_Windows 2_0"}, {"children": [31, 32], "matrix": [99.08907318115224, 4.33132095279434e-06, 3.9103778404439055e-23, 0.0, -4.331320952794336e-06, 99.08907318115216, 4.331320952794338e-06, 0.0, 1.8932805192297323e-13, -4.331320952794335e-06, 99.08907318115224, 0.0, 36.79949188232422, 0.0, -449.5916748046875, 1.0], "name": "Building 3.001"}, {"mesh": 18, "name": "Building 3.001_Building 3_0"}, {"mesh": 19, "name": "Building 3.001_Windows 3_0"}, {"children": [34, 35], "matrix": [1.9293354881526997e-05, 6.557164820103791e-22, 99.08907318115047, 0.0, -4.3313216568644676e-06, 99.08907318115224, 8.433394635067551e-13, 0.0, -99.08907318115037, -4.33132165686455e-06, 1.9293354881526997e-05, 0.0, -319.1968994140625, 0.0, -738.5684204101562, 1.0], "name": "Building 3.002"}, {"mesh": 20, "name": "Building 3.002_Building 3_0"}, {"mesh": 21, "name": "Building 3.002_Windows 3_0"}, {"children": [37, 38], "matrix": [-99.08907318114477, 4.331320964928923e-06, -3.858670977518795e-05, 0.0, 4.331322651607358e-06, 99.08907318115216, -4.3313195567885e-06, 0.0, 3.858670958585989e-05, -4.331321243467483e-06, -99.08907318114477, 0.0, -30.130470275878906, 0.0, -1094.478271484375, 1.0], "name": "Building 3.003"}, {"mesh": 22, "name": "Building 3.003_Building 3_0"}, {"mesh": 23, "name": "Building 3.003_Windows 3_0"}], "samplers": [{"magFilter": 9729, "minFilter": 9987, "wrapS": 33071, "wrapT": 33071}], "scene": 0, "scenes": [{"name": "Sketchfab_Scene", "nodes": [0]}], "textures": [{"sampler": 0, "source": 0}, {"sampler": 0, "source": 1}, {"sampler": 0, "source": 2}]}