{"accessors": [{"bufferView": 2, "componentType": 5126, "count": 7440, "max": [550.2913818359375, 331.0388488769531, 49.65045928955078], "min": [-66.96865844726562, -30.998458862304688, -62.94975662231445], "type": "VEC3"}, {"bufferView": 2, "byteOffset": 89280, "componentType": 5126, "count": 7440, "max": [0.9998696446418762, 0.9993740916252136, 0.9999979138374329], "min": [-0.9999954700469971, -0.9958030581474304, -0.9996508955955505], "type": "VEC3"}, {"bufferView": 3, "componentType": 5126, "count": 7440, "max": [0.9999988079071045, 0.999997079372406, 0.9999978542327881, 1.0], "min": [-0.9997025728225708, -0.9999106526374817, -0.9999688267707825, -1.0], "type": "VEC4"}, {"bufferView": 1, "componentType": 5126, "count": 7440, "max": [0.9980080723762512, 0.9980080723762512], "min": [0.0018699594074860215, 0.0019186005229130387], "type": "VEC2"}, {"bufferView": 0, "componentType": 5125, "count": 22776, "type": "SCALAR"}], "asset": {"extras": {"author": "Darklordbroch (https://sketchfab.com/Darklordbroch)", "license": "CC-BY-4.0 (http://creativecommons.org/licenses/by/4.0/)", "source": "https://sketchfab.com/3d-models/dead-trees-41f9d44a8d8b45549dd6a0c947ca4eba", "title": "Dead Trees"}, "generator": "Sketchfab-15.53.0", "version": "2.0"}, "bufferViews": [{"buffer": 0, "byteLength": 91104, "name": "floatBufferViews", "target": 34963, "byteOffset": 0}, {"buffer": 0, "byteLength": 59520, "byteOffset": 91104, "byteStride": 8, "name": "floatBufferViews", "target": 34962}, {"buffer": 0, "byteLength": 178560, "byteOffset": 150624, "byteStride": 12, "name": "floatBufferViews", "target": 34962}, {"buffer": 0, "byteLength": 119040, "byteOffset": 329184, "byteStride": 16, "name": "floatBufferViews", "target": 34962}], "buffers": [{"uri": "scene.bin", "byteLength": 448224}], "extensionsUsed": ["KHR_materials_specular"], "images": [{"uri": "textures/BurntWood_baseColor.jpg"}, {"uri": "textures/BurntWood_normal.jpg"}], "materials": [{"doubleSided": true, "extensions": {"KHR_materials_specular": {"specularColorFactor": [1.0, 1.0, 1.0], "specularFactor": 0.0}}, "name": "BurntWood", "normalTexture": {"index": 1}, "pbrMetallicRoughness": {"baseColorTexture": {"index": 0}, "metallicFactor": 0.0, "roughnessFactor": 0.6}}], "meshes": [{"name": "DeadTree_Pack_BurntWood_0", "primitives": [{"attributes": {"NORMAL": 1, "POSITION": 0, "TANGENT": 2, "TEXCOORD_0": 3}, "indices": 4, "material": 0, "mode": 4}]}], "nodes": [{"children": [1], "matrix": [1.0, 0.0, 0.0, 0.0, 0.0, 3.828568672208042e-16, -1.0, 0.0, 0.0, 1.0, 3.828568672208042e-16, 0.0, 0.0, 0.0, 0.0, 1.0], "name": "Sketchfab_model"}, {"children": [2], "matrix": [0.009999999776482582, 0.0, 0.0, 0.0, 0.0, 0.0, 0.009999999776482582, 0.0, 0.0, -0.009999999776482582, 0.0, 0.0, 0.0, 0.0, 0.0, 1.0], "name": "0c4cc890155a4d20b74a1e9c036c7b21.fbx"}, {"children": [3], "name": "RootNode"}, {"children": [4], "matrix": [1.0, 0.0, 0.0, 0.0, 0.0, 1.0, 0.0, 0.0, 0.0, 0.0, 1.0, 0.0, -235.25355529785156, 0.0, 0.0, 1.0], "name": "DeadTree_Pack"}, {"mesh": 0, "name": "DeadTree_Pack_BurntWood_0"}], "samplers": [{"magFilter": 9729, "minFilter": 9987, "wrapS": 10497, "wrapT": 10497}], "scene": 0, "scenes": [{"name": "Sketchfab_Scene", "nodes": [0]}], "textures": [{"sampler": 0, "source": 0}, {"sampler": 0, "source": 1}]}