{"accessors": [{"bufferView": 2, "componentType": 5126, "count": 1620, "max": [1.5708361864089966, 1.0, 4.7807698249816895], "min": [-1.5708361864089966, -1.1659380197525024, 1.1920928955078125e-06], "type": "VEC3"}, {"bufferView": 2, "byteOffset": 19440, "componentType": 5126, "count": 1620, "max": [1.0, 0.9999994039535522, 1.0], "min": [-1.0, -1.0, -1.0], "type": "VEC3"}, {"bufferView": 3, "componentType": 5126, "count": 1620, "max": [1.0, 1.0, 1.0, 1.0], "min": [-1.0, -1.0, -1.0, 1.0], "type": "VEC4"}, {"bufferView": 1, "componentType": 5126, "count": 1620, "max": [0.9969052076339722, 0.9968841671943665], "min": [0.003071100451052189, 0.0030719637870788574], "type": "VEC2"}, {"bufferView": 0, "componentType": 5125, "count": 5562, "type": "SCALAR"}], "asset": {"extras": {"author": "Yaroslav Dubovikov (https://sketchfab.com/yrdoes)", "license": "CC-BY-4.0 (http://creativecommons.org/licenses/by/4.0/)", "source": "https://sketchfab.com/3d-models/us-mailbox-3376b03ebf1d45ea99fbb6ff350489da", "title": "US Mailbox"}, "generator": "Sketchfab-14.41.0", "version": "2.0"}, "bufferViews": [{"buffer": 0, "byteLength": 22248, "name": "floatBufferViews", "target": 34963, "byteOffset": 0}, {"buffer": 0, "byteLength": 12960, "byteOffset": 22248, "byteStride": 8, "name": "floatBufferViews", "target": 34962}, {"buffer": 0, "byteLength": 38880, "byteOffset": 35208, "byteStride": 12, "name": "floatBufferViews", "target": 34962}, {"buffer": 0, "byteLength": 25920, "byteOffset": 74088, "byteStride": 16, "name": "floatBufferViews", "target": 34962}], "buffers": [{"uri": "scene.bin", "byteLength": 100008}], "images": [{"uri": "textures/mailbox_baseColor.jpg"}, {"uri": "textures/mailbox_metallicRoughness.jpg"}, {"uri": "textures/mailbox_normal.jpg"}], "materials": [{"doubleSided": true, "name": "mailbox", "normalTexture": {"index": 2}, "occlusionTexture": {"index": 1, "strength": 0.3}, "pbrMetallicRoughness": {"baseColorTexture": {"index": 0}, "metallicRoughnessTexture": {"index": 1}}}], "meshes": [{"name": "Mailbox_mailbox_0", "primitives": [{"attributes": {"NORMAL": 1, "POSITION": 0, "TANGENT": 2, "TEXCOORD_0": 3}, "indices": 4, "material": 0, "mode": 4}]}], "nodes": [{"children": [1], "matrix": [1.0, 0.0, 0.0, 0.0, 0.0, 2.220446049250313e-16, -1.0, 0.0, 0.0, 1.0, 2.220446049250313e-16, 0.0, 0.0, 0.0, 0.0, 1.0], "name": "Sketchfab_model"}, {"children": [2], "matrix": [0.009999999776482582, 0.0, 0.0, 0.0, 0.0, 0.0, 0.009999999776482582, 0.0, 0.0, -0.009999999776482582, 0.0, 0.0, 0.0, 0.0, 0.0, 1.0], "name": "46b0022776224276af3907f21e5f697f.fbx"}, {"children": [3], "name": "RootNode"}, {"children": [4], "matrix": [100.0, 0.0, 0.0, 0.0, 0.0, -1.629206793918314e-05, -99.99999999999868, 0.0, 0.0, 99.99999999999868, -1.629206793918314e-05, 0.0, 0.0, 0.0, 0.0, 1.0], "name": "Mailbox"}, {"mesh": 0, "name": "Mailbox_mailbox_0"}], "samplers": [{"magFilter": 9729, "minFilter": 9987, "wrapS": 10497, "wrapT": 10497}], "scene": 0, "scenes": [{"name": "Sketchfab_Scene", "nodes": [0]}], "textures": [{"sampler": 0, "source": 0}, {"sampler": 0, "source": 1}, {"sampler": 0, "source": 2}]}