{"accessors": [{"bufferView": 2, "componentType": 5126, "count": 327, "max": [0.7365638017654419, 2.2199997901916504, 2.200000047683716], "min": [-0.7332600355148315, -3.5762786865234375e-07, -2.200000047683716], "type": "VEC3"}, {"bufferView": 2, "byteOffset": 3924, "componentType": 5126, "count": 327, "max": [0.9702170491218567, 1.0, 1.0], "min": [-0.9702170491218567, -1.0, -1.0], "type": "VEC3"}, {"bufferView": 3, "componentType": 5126, "count": 327, "max": [1.0, 0.24561667442321777, 1.0, 1.0], "min": [-1.0, -0.9702170491218567, -1.0, 1.0], "type": "VEC4"}, {"bufferView": 1, "componentType": 5126, "count": 327, "max": [0.9536600112915039, 0.9811347126960754], "min": [0.00040044853813014925, 0.004786020144820213], "type": "VEC2"}, {"bufferView": 0, "componentType": 5125, "count": 528, "type": "SCALAR"}, {"bufferView": 2, "byteOffset": 7848, "componentType": 5126, "count": 304, "max": [0.5, 2.2199997901916504, 2.120000123977661], "min": [-0.4999999701976776, -1.1920928955078125e-07, -2.119999885559082], "type": "VEC3"}, {"bufferView": 2, "byteOffset": 11496, "componentType": 5126, "count": 304, "max": [1.0, 1.0, 1.0], "min": [-1.0, -1.0, -1.0], "type": "VEC3"}, {"bufferView": 3, "byteOffset": 5232, "componentType": 5126, "count": 304, "max": [1.0, 1.0, 1.0, 1.0], "min": [0.0, -1.0, -1.0, 1.0], "type": "VEC4"}, {"bufferView": 1, "byteOffset": 2616, "componentType": 5126, "count": 304, "max": [0.9999715089797974, 0.9989122748374939], "min": [0.055458005517721176, 0.004133382346481085], "type": "VEC2"}, {"bufferView": 0, "byteOffset": 2112, "componentType": 5125, "count": 552, "type": "SCALAR"}, {"bufferView": 2, "byteOffset": 15144, "componentType": 5126, "count": 248, "max": [0.5, 2.2199997901916504, 2.200000047683716], "min": [-0.4999999701976776, -1.1920928955078125e-07, -2.200000047683716], "type": "VEC3"}, {"bufferView": 2, "byteOffset": 18120, "componentType": 5126, "count": 248, "max": [1.0, 1.0, 1.0], "min": [-1.0, -1.0, -1.0], "type": "VEC3"}, {"bufferView": 3, "byteOffset": 10096, "componentType": 5126, "count": 248, "max": [1.0, 1.0, 1.0, 1.0], "min": [-1.0, -1.0, -1.0, 1.0], "type": "VEC4"}, {"bufferView": 1, "byteOffset": 5048, "componentType": 5126, "count": 248, "max": [0.965157151222229, 0.9975301623344421], "min": [0.11905297636985779, 0.004786021541804075], "type": "VEC2"}, {"bufferView": 0, "byteOffset": 4320, "componentType": 5125, "count": 468, "type": "SCALAR"}, {"bufferView": 2, "byteOffset": 21096, "componentType": 5126, "count": 276, "max": [0.699999988079071, 2.3553664684295654, 2.0999999046325684], "min": [-1.0, -2.384185791015625e-07, -2.0999999046325684], "type": "VEC3"}, {"bufferView": 2, "byteOffset": 24408, "componentType": 5126, "count": 276, "max": [1.0, 1.0, 1.0], "min": [-1.0, -1.0, -1.0], "type": "VEC3"}, {"bufferView": 3, "byteOffset": 14064, "componentType": 5126, "count": 276, "max": [1.0, 1.0, 1.0, 1.0], "min": [-1.0, -1.0, -1.0, 1.0], "type": "VEC4"}, {"bufferView": 1, "byteOffset": 7032, "componentType": 5126, "count": 276, "max": [0.9892316460609436, 0.9812663793563843], "min": [0.055205415934324265, 0.004286220762878656], "type": "VEC2"}, {"bufferView": 0, "byteOffset": 6192, "componentType": 5125, "count": 672, "type": "SCALAR"}, {"bufferView": 2, "byteOffset": 27720, "componentType": 5126, "count": 256, "max": [0.699999988079071, 2.3553664684295654, 2.0999999046325684], "min": [-1.0, -2.384185791015625e-07, -2.0999999046325684], "type": "VEC3"}, {"bufferView": 2, "byteOffset": 30792, "componentType": 5126, "count": 256, "max": [1.0, 1.0, 1.0], "min": [-1.0, -1.0, -1.0], "type": "VEC3"}, {"bufferView": 3, "byteOffset": 18480, "componentType": 5126, "count": 256, "max": [1.0, 1.0, 1.0, 1.0], "min": [-1.0, -1.0, -1.0, 1.0], "type": "VEC4"}, {"bufferView": 1, "byteOffset": 9240, "componentType": 5126, "count": 256, "max": [0.9833877682685852, 0.9833628535270691], "min": [0.002458306262269616, 0.0024854480288922787], "type": "VEC2"}, {"bufferView": 0, "byteOffset": 8880, "componentType": 5125, "count": 624, "type": "SCALAR"}, {"bufferView": 2, "byteOffset": 33864, "componentType": 5126, "count": 256, "max": [0.699999988079071, 2.3553664684295654, 2.0999999046325684], "min": [-1.0, -2.384185791015625e-07, -2.0999999046325684], "type": "VEC3"}, {"bufferView": 2, "byteOffset": 36936, "componentType": 5126, "count": 256, "max": [1.0, 1.0, 1.0], "min": [-1.0, -1.0, -1.0], "type": "VEC3"}, {"bufferView": 3, "byteOffset": 22576, "componentType": 5126, "count": 256, "max": [1.0, 1.0, 1.0, 1.0], "min": [-1.0, -1.0, -1.0, 1.0], "type": "VEC4"}, {"bufferView": 1, "byteOffset": 11288, "componentType": 5126, "count": 256, "max": [0.983791172504425, 0.9961299300193787], "min": [0.08411141484975815, 0.0023918021470308304], "type": "VEC2"}, {"bufferView": 0, "byteOffset": 11376, "componentType": 5125, "count": 624, "type": "SCALAR"}], "asset": {"extras": {"author": "Erroratten (https://sketchfab.com/erroratten)", "license": "CC-BY-4.0 (http://creativecommons.org/licenses/by/4.0/)", "source": "https://sketchfab.com/3d-models/old-street-fences-pack-0953ef9c6e9b4a099daf53f91d29cf09", "title": "Old | Street | Fences | Pack"}, "generator": "Sketchfab-12.67.0", "version": "2.0"}, "bufferViews": [{"buffer": 0, "byteLength": 13872, "name": "floatBufferViews", "target": 34963, "byteOffset": 0}, {"buffer": 0, "byteLength": 13336, "byteOffset": 13872, "byteStride": 8, "name": "floatBufferViews", "target": 34962}, {"buffer": 0, "byteLength": 40008, "byteOffset": 27208, "byteStride": 12, "name": "floatBufferViews", "target": 34962}, {"buffer": 0, "byteLength": 26672, "byteOffset": 67216, "byteStride": 16, "name": "floatBufferViews", "target": 34962}], "buffers": [{"uri": "scene.bin", "byteLength": 93888}], "images": [{"uri": "textures/smallfences_baseColor.png"}, {"uri": "textures/smallfences_metallicRoughness.jpg"}, {"uri": "textures/smallfences_normal.jpg"}], "materials": [{"alphaMode": "BLEND", "name": "smallfences", "normalTexture": {"index": 2}, "occlusionTexture": {"index": 1}, "pbrMetallicRoughness": {"baseColorTexture": {"index": 0}, "metallicRoughnessTexture": {"index": 1}}}], "meshes": [{"name": "Object_0", "primitives": [{"attributes": {"NORMAL": 1, "POSITION": 0, "TANGENT": 2, "TEXCOORD_0": 3}, "indices": 4, "material": 0, "mode": 4}]}, {"name": "Object_1", "primitives": [{"attributes": {"NORMAL": 6, "POSITION": 5, "TANGENT": 7, "TEXCOORD_0": 8}, "indices": 9, "material": 0, "mode": 4}]}, {"name": "Object_2", "primitives": [{"attributes": {"NORMAL": 11, "POSITION": 10, "TANGENT": 12, "TEXCOORD_0": 13}, "indices": 14, "material": 0, "mode": 4}]}, {"name": "Object_3", "primitives": [{"attributes": {"NORMAL": 16, "POSITION": 15, "TANGENT": 17, "TEXCOORD_0": 18}, "indices": 19, "material": 0, "mode": 4}]}, {"name": "Object_4", "primitives": [{"attributes": {"NORMAL": 21, "POSITION": 20, "TANGENT": 22, "TEXCOORD_0": 23}, "indices": 24, "material": 0, "mode": 4}]}, {"name": "Object_5", "primitives": [{"attributes": {"NORMAL": 26, "POSITION": 25, "TANGENT": 27, "TEXCOORD_0": 28}, "indices": 29, "material": 0, "mode": 4}]}], "nodes": [{"children": [1], "matrix": [0.4166666567325592, 0.0, 0.0, 0.0, 0.0, 9.251858317961474e-17, -0.4166666567325592, 0.0, 0.0, 0.4166666567325592, 9.251858317961474e-17, 0.0, 0.0, 0.0, 0.0, 1.0], "name": "Sketchfab_model"}, {"children": [2], "name": "root"}, {"children": [3, 5, 7, 9, 11, 13], "matrix": [1.0, 0.0, 0.0, 0.0, 0.0, 2.220446049250313e-16, 1.0, 0.0, 0.0, -1.0, 2.220446049250313e-16, 0.0, 0.0, 0.0, 0.0, 1.0], "name": "GLTF_SceneRootNode"}, {"children": [4], "matrix": [1.0, 0.0, 0.0, 0.0, 0.0, 1.0, 0.0, 0.0, 0.0, 0.0, 1.0, 0.0, 0.0, 0.0, 7.0, 1.0], "name": "var4_0"}, {"mesh": 0, "name": "Object_4"}, {"children": [6], "matrix": [1.0, 0.0, 0.0, 0.0, 0.0, 1.0, 0.0, 0.0, 0.0, 0.0, 1.0, 0.0, 3.0, 0.0, 7.0, 1.0], "name": "var5_1"}, {"mesh": 1, "name": "Object_6"}, {"children": [8], "matrix": [1.0, 0.0, 0.0, 0.0, 0.0, 1.0, 0.0, 0.0, 0.0, 0.0, 1.0, 0.0, 6.0, 0.0, 7.0, 1.0], "name": "var6_2"}, {"mesh": 2, "name": "Object_8"}, {"children": [10], "name": "var1_3"}, {"mesh": 3, "name": "Object_10"}, {"children": [12], "matrix": [1.0, 0.0, 0.0, 0.0, 0.0, 1.0, 0.0, 0.0, 0.0, 0.0, 1.0, 0.0, 6.0, 0.0, 0.0, 1.0], "name": "var3_4"}, {"mesh": 4, "name": "Object_12"}, {"children": [14], "matrix": [1.0, 0.0, 0.0, 0.0, 0.0, 1.0, 0.0, 0.0, 0.0, 0.0, 1.0, 0.0, 3.0, 0.0, 0.0, 1.0], "name": "var2_5"}, {"mesh": 5, "name": "Object_14"}], "samplers": [{"magFilter": 9729, "minFilter": 9987, "wrapS": 10497, "wrapT": 10497}], "scene": 0, "scenes": [{"name": "Sketchfab_Scene", "nodes": [0]}], "textures": [{"sampler": 0, "source": 0}, {"sampler": 0, "source": 1}, {"sampler": 0, "source": 2}]}