{"accessors": [{"bufferView": 2, "componentType": 5126, "count": 50, "max": [-0.00022249025641940534, 79.99999237060547, 1900.2666015625], "min": [-780.000244140625, -80.00001525878906, 1740.2664794921875], "type": "VEC3"}, {"bufferView": 2, "byteOffset": 600, "componentType": 5126, "count": 50, "max": [1.0, 1.0, 1.0], "min": [-1.0, -1.0, -1.0], "type": "VEC3"}, {"bufferView": 3, "componentType": 5126, "count": 50, "max": [1.0, 0.9961973428726196, 0.08718536049127579, 1.0], "min": [-1.4204296405750938e-08, -1.0, -1.1389142855477985e-05, 1.0], "type": "VEC4"}, {"bufferView": 1, "componentType": 5126, "count": 50, "max": [0.9957338571548462, 0.8725354075431824], "min": [0.46924325823783875, 0.5285574793815613], "type": "VEC2"}, {"bufferView": 0, "componentType": 5125, "count": 132, "type": "SCALAR"}, {"bufferView": 2, "byteOffset": 1200, "componentType": 5126, "count": 50, "max": [1050.0001220703125, 79.99974822998047, 80.0], "min": [-1049.9998779296875, -80.00057220458984, -80.0], "type": "VEC3"}, {"bufferView": 2, "byteOffset": 1800, "componentType": 5126, "count": 50, "max": [1.0, 1.0, 1.0], "min": [-1.0, -1.0, -1.0], "type": "VEC3"}, {"bufferView": 3, "byteOffset": 800, "componentType": 5126, "count": 50, "max": [1.0, 0.9962005615234375, 0.08724267035722733, 1.0], "min": [0.0, -0.2590106427669525, -0.9659851789474487, 1.0], "type": "VEC4"}, {"bufferView": 1, "byteOffset": 400, "componentType": 5126, "count": 50, "max": [0.9910545945167542, 0.8427366018295288], "min": [0.37580496072769165, 0.0], "type": "VEC2"}, {"bufferView": 0, "byteOffset": 528, "componentType": 5125, "count": 132, "type": "SCALAR"}, {"bufferView": 2, "byteOffset": 2400, "componentType": 5126, "count": 56, "max": [39.743614196777344, 1050.1063232421875, 599.46875], "min": [-10.256378173828125, -1049.8935546875, -27.4266357421875], "type": "VEC3"}, {"bufferView": 2, "byteOffset": 3072, "componentType": 5126, "count": 56, "max": [1.0, 1.0, 1.0], "min": [-1.0, -1.0, -1.0], "type": "VEC3"}, {"bufferView": 3, "byteOffset": 1600, "componentType": 5126, "count": 56, "max": [1.0, 1.0, 0.7071080803871155, 1.0], "min": [-1.0, -1.0, -0.7071068286895752, -1.0], "type": "VEC4"}, {"bufferView": 1, "byteOffset": 800, "componentType": 5126, "count": 56, "max": [0.9963495135307312, 0.7500165104866028], "min": [0.3747017979621887, 0.14669223129749298], "type": "VEC2"}, {"bufferView": 0, "byteOffset": 1056, "componentType": 5125, "count": 84, "type": "SCALAR"}, {"bufferView": 2, "byteOffset": 3744, "componentType": 5126, "count": 92, "max": [140.0, 345.2742004394531, 1520.560546875], "min": [-140.0, -140.0, 1382.2928466796875], "type": "VEC3"}, {"bufferView": 2, "byteOffset": 4848, "componentType": 5126, "count": 92, "max": [0.9727315902709961, 0.8938238024711609, 0.9105744957923889], "min": [-0.9726266264915466, -0.6310372352600098, -0.9105745553970337], "type": "VEC3"}, {"bufferView": 3, "byteOffset": 2496, "componentType": 5126, "count": 92, "max": [0.9999998807907104, 0.99251788854599, 1.0, 1.0], "min": [-1.0, -0.999995768070221, -0.8811143636703491, 1.0], "type": "VEC4"}, {"bufferView": 1, "byteOffset": 1248, "componentType": 5126, "count": 92, "max": [0.9930082559585571, 0.9992060661315918], "min": [0.04172934591770172, 0.26982438564300537], "type": "VEC2"}, {"bufferView": 0, "byteOffset": 1392, "componentType": 5125, "count": 228, "type": "SCALAR"}, {"bufferView": 2, "byteOffset": 5952, "componentType": 5126, "count": 20, "max": [125.0, 125.0, 1698.8756103515625], "min": [-125.0, -125.0, 0.0], "type": "VEC3"}, {"bufferView": 2, "byteOffset": 6192, "componentType": 5126, "count": 20, "max": [1.0, 1.0, 1.0], "min": [-1.0, -1.0, 0.0], "type": "VEC3"}, {"bufferView": 3, "byteOffset": 3968, "componentType": 5126, "count": 20, "max": [1.0, 1.0, -0.0, 1.0], "min": [-1.0, -1.0, -0.0, 1.0], "type": "VEC4"}, {"bufferView": 1, "byteOffset": 1984, "componentType": 5126, "count": 20, "max": [0.9804894328117371, 0.9327031373977661], "min": [0.37580496072769165, 0.2714146673679352], "type": "VEC2"}, {"bufferView": 0, "byteOffset": 2304, "componentType": 5125, "count": 30, "type": "SCALAR"}, {"bufferView": 2, "byteOffset": 6432, "componentType": 5126, "count": 64, "max": [100.0, 100.0, 6564.49755859375], "min": [-100.0, -100.0, 0.0], "type": "VEC3"}, {"bufferView": 2, "byteOffset": 7200, "componentType": 5126, "count": 64, "max": [1.0, 1.0, 1.0], "min": [-1.0, -1.0, -1.170761487756522e-09], "type": "VEC3"}, {"bufferView": 3, "byteOffset": 4288, "componentType": 5126, "count": 64, "max": [1.0, 1.0, 3.082903654583191e-10, 1.0], "min": [-1.0, -1.0, -3.082896160577775e-10, 1.0], "type": "VEC4"}, {"bufferView": 1, "byteOffset": 2144, "componentType": 5126, "count": 64, "max": [0.5700531005859375, 0.966825544834137], "min": [0.0, 0.005219519138336182], "type": "VEC2"}, {"bufferView": 0, "byteOffset": 2424, "componentType": 5125, "count": 174, "type": "SCALAR"}, {"bufferView": 2, "byteOffset": 7968, "componentType": 5126, "count": 51, "max": [56.28874969482422, 56.28874969482422, 123.83525085449219], "min": [-56.28874969482422, -56.28874969482422, -158.47096252441406], "type": "VEC3"}, {"bufferView": 2, "byteOffset": 8580, "componentType": 5126, "count": 51, "max": [1.0, 1.0, 0.8991193175315857], "min": [-1.0, -1.0, -1.0], "type": "VEC3"}, {"bufferView": 3, "byteOffset": 5312, "componentType": 5126, "count": 51, "max": [1.0, 1.0, 0.8859996795654297, 1.0], "min": [-1.0, -1.0, -0.8860033750534058, 1.0], "type": "VEC4"}, {"bufferView": 1, "byteOffset": 2656, "componentType": 5126, "count": 51, "max": [0.7969484329223633, 0.9982069134712219], "min": [0.1197950690984726, 0.4394840896129608], "type": "VEC2"}, {"bufferView": 0, "byteOffset": 3120, "componentType": 5125, "count": 153, "type": "SCALAR"}, {"bufferView": 2, "byteOffset": 9192, "componentType": 5126, "count": 159, "max": [213.62026977539062, 1540.3045654296875, 175.037353515625], "min": [-213.62022399902344, -550.8335571289062, -1049.953857421875], "type": "VEC3"}, {"bufferView": 2, "byteOffset": 11100, "componentType": 5126, "count": 159, "max": [1.0, 1.0, 1.0], "min": [-1.0, -1.0, -1.0], "type": "VEC3"}, {"bufferView": 3, "byteOffset": 6128, "componentType": 5126, "count": 159, "max": [1.0, 1.0, 0.9536604285240173, 1.0], "min": [-1.0, -1.0, -1.0, -1.0], "type": "VEC4"}, {"bufferView": 1, "byteOffset": 3064, "componentType": 5126, "count": 159, "max": [0.9720696210861206, 0.9990268349647522], "min": [0.0010776210110634565, 0.48019522428512573], "type": "VEC2"}, {"bufferView": 0, "byteOffset": 3732, "componentType": 5125, "count": 438, "type": "SCALAR"}, {"bufferView": 2, "byteOffset": 13008, "componentType": 5126, "count": 24, "max": [0.00010201986879110336, 179.36465454101562, 400.0], "min": [-205.08351135253906, -272.5158996582031, -400.0000305175781], "type": "VEC3"}, {"bufferView": 2, "byteOffset": 13296, "componentType": 5126, "count": 24, "max": [1.0, 1.0, 1.0], "min": [-1.0, -1.0, -1.0], "type": "VEC3"}, {"bufferView": 3, "byteOffset": 8672, "componentType": 5126, "count": 24, "max": [1.0, 1.0, 1.4880568244279857e-07, 1.0], "min": [-1.0, -1.0, -1.4880569665365329e-07, 1.0], "type": "VEC4"}, {"bufferView": 1, "byteOffset": 4336, "componentType": 5126, "count": 24, "max": [0.9936050176620483, 0.9247642159461975], "min": [0.6871286630630493, 0.2661951780319214], "type": "VEC2"}, {"bufferView": 0, "byteOffset": 5484, "componentType": 5125, "count": 36, "type": "SCALAR"}, {"bufferView": 2, "byteOffset": 13584, "componentType": 5126, "count": 1379, "max": [304.1903076171875, 1050.8291015625, 6646.13720703125], "min": [-367.33575439453125, -2190.358154296875, -212.82366943359375], "type": "VEC3"}, {"bufferView": 2, "byteOffset": 30132, "componentType": 5126, "count": 1379, "max": [1.0, 1.0, 1.0], "min": [-1.0, -1.0, -1.0], "type": "VEC3"}, {"bufferView": 3, "byteOffset": 9056, "componentType": 5126, "count": 1379, "max": [1.0, 1.0, 1.0, 1.0], "min": [-1.0, -1.0, -1.0, -1.0], "type": "VEC4"}, {"bufferView": 1, "byteOffset": 4528, "componentType": 5126, "count": 1379, "max": [0.9963495135307312, 0.9992060661315918], "min": [0.0, 0.005219519138336182], "type": "VEC2"}, {"bufferView": 0, "byteOffset": 5628, "componentType": 5125, "count": 3750, "type": "SCALAR"}, {"bufferView": 2, "byteOffset": 46680, "componentType": 5126, "count": 1660, "max": [175.76336669921875, 1050.8291015625, 6646.13720703125], "min": [-367.33544921875, -1049.1707763671875, -212.82366943359375], "type": "VEC3"}, {"bufferView": 2, "byteOffset": 66600, "componentType": 5126, "count": 1660, "max": [1.0, 1.0, 1.0], "min": [-1.0, -1.0, -1.0], "type": "VEC3"}, {"bufferView": 3, "byteOffset": 31120, "componentType": 5126, "count": 1660, "max": [1.0, 1.0, 1.0, 1.0], "min": [-1.0, -1.0, -0.8860046863555908, -1.0], "type": "VEC4"}, {"bufferView": 1, "byteOffset": 15560, "componentType": 5126, "count": 1660, "max": [0.9963495135307312, 0.9992060661315918], "min": [0.0, 0.005219519138336182], "type": "VEC2"}, {"bufferView": 0, "byteOffset": 20628, "componentType": 5125, "count": 4584, "type": "SCALAR"}, {"bufferView": 2, "byteOffset": 86520, "componentType": 5126, "count": 1443, "max": [3555.26171875, 1050.8291015625, 6564.49755859375], "min": [-224.53065490722656, -2190.358154296875, -933.01220703125], "type": "VEC3"}, {"bufferView": 2, "byteOffset": 103836, "componentType": 5126, "count": 1443, "max": [1.0, 1.0, 1.0], "min": [-1.0, -1.0, -1.0], "type": "VEC3"}, {"bufferView": 3, "byteOffset": 57680, "componentType": 5126, "count": 1443, "max": [1.0, 1.0, 1.0, 1.0], "min": [-1.0, -1.0, -1.0, -1.0], "type": "VEC4"}, {"bufferView": 1, "byteOffset": 28840, "componentType": 5126, "count": 1443, "max": [0.9963495135307312, 0.9992060661315918], "min": [0.0, 0.005219519138336182], "type": "VEC2"}, {"bufferView": 0, "byteOffset": 38964, "componentType": 5125, "count": 3924, "type": "SCALAR"}, {"bufferView": 2, "byteOffset": 121152, "componentType": 5126, "count": 986, "max": [283.7174072265625, 1050.723876953125, 6641.732421875], "min": [-2583.21533203125, -1054.625244140625, 0.0], "type": "VEC3"}, {"bufferView": 2, "byteOffset": 132984, "componentType": 5126, "count": 986, "max": [1.0, 1.0, 1.0], "min": [-1.0, -1.0, -0.9848083257675171], "type": "VEC3"}, {"bufferView": 3, "byteOffset": 80768, "componentType": 5126, "count": 986, "max": [1.0, 1.0, 0.9250345826148987, 1.0], "min": [-1.0, -1.0, -0.9513115882873535, 1.0], "type": "VEC4"}, {"bufferView": 1, "byteOffset": 40384, "componentType": 5126, "count": 986, "max": [0.9957338571548462, 0.9982069134712219], "min": [0.0, 0.0], "type": "VEC2"}, {"bufferView": 0, "byteOffset": 54660, "componentType": 5125, "count": 2760, "type": "SCALAR"}, {"bufferView": 2, "byteOffset": 144816, "componentType": 5126, "count": 1464, "max": [3555.26171875, 1050.8289794921875, 6564.49755859375], "min": [-140.73927307128906, -1049.1708984375, -933.01220703125], "type": "VEC3"}, {"bufferView": 2, "byteOffset": 162384, "componentType": 5126, "count": 1464, "max": [1.0, 1.0, 1.0], "min": [-1.0, -1.0, -1.0], "type": "VEC3"}, {"bufferView": 3, "byteOffset": 96544, "componentType": 5126, "count": 1464, "max": [1.0, 1.0, 1.0, 1.0], "min": [-1.0, -1.0, -0.8860046863555908, -1.0], "type": "VEC4"}, {"bufferView": 1, "byteOffset": 48272, "componentType": 5126, "count": 1464, "max": [0.9963495135307312, 0.9992060661315918], "min": [0.0, 0.005219519138336182], "type": "VEC2"}, {"bufferView": 0, "byteOffset": 65700, "componentType": 5125, "count": 3936, "type": "SCALAR"}, {"bufferView": 2, "byteOffset": 179952, "componentType": 5126, "count": 223, "max": [213.299560546875, 100.0, 7391.8955078125], "min": [-213.94093322753906, -2067.015869140625, 0.0], "type": "VEC3"}, {"bufferView": 2, "byteOffset": 182628, "componentType": 5126, "count": 223, "max": [1.0, 1.0, 1.0], "min": [-1.0, -1.0, -1.0], "type": "VEC3"}, {"bufferView": 3, "byteOffset": 119968, "componentType": 5126, "count": 223, "max": [1.0, 1.0, 0.9536601901054382, 1.0], "min": [-1.0, -1.0, -1.0, -1.0], "type": "VEC4"}, {"bufferView": 1, "byteOffset": 59984, "componentType": 5126, "count": 223, "max": [0.9720696210861206, 0.9990268349647522], "min": [0.0, 0.005219519138336182], "type": "VEC2"}, {"bufferView": 0, "byteOffset": 81444, "componentType": 5125, "count": 612, "type": "SCALAR"}, {"bufferView": 2, "byteOffset": 185304, "componentType": 5126, "count": 1680, "max": [258.544677734375, 1879.9764404296875, 6564.49755859375], "min": [-3551.29296875, -220.0235595703125, -1084.694580078125], "type": "VEC3"}, {"bufferView": 2, "byteOffset": 205464, "componentType": 5126, "count": 1680, "max": [1.0, 1.0, 1.0], "min": [-1.0, -1.0, -1.0], "type": "VEC3"}, {"bufferView": 3, "byteOffset": 123536, "componentType": 5126, "count": 1680, "max": [1.0, 1.0, 0.8860009908676147, 1.0], "min": [-1.0, -1.0, -0.9659836292266846, 1.0], "type": "VEC4"}, {"bufferView": 1, "byteOffset": 61768, "componentType": 5126, "count": 1680, "max": [0.9910545945167542, 0.9982069134712219], "min": [0.0, 0.0], "type": "VEC2"}, {"bufferView": 0, "byteOffset": 83892, "componentType": 5125, "count": 4896, "type": "SCALAR"}, {"bufferView": 2, "byteOffset": 225624, "componentType": 5126, "count": 1000, "max": [3554.59326171875, 1050.8289794921875, 6646.13720703125], "min": [-367.33544921875, -1049.1708984375, -1732.23193359375], "type": "VEC3"}, {"bufferView": 2, "byteOffset": 237624, "componentType": 5126, "count": 1000, "max": [1.0, 1.0, 1.0], "min": [-1.0, -1.0, -1.0], "type": "VEC3"}, {"bufferView": 3, "byteOffset": 150416, "componentType": 5126, "count": 1000, "max": [1.0, 1.0, 1.0, 1.0], "min": [-1.0, -1.0, -0.9546214938163757, -1.0], "type": "VEC4"}, {"bufferView": 1, "byteOffset": 75208, "componentType": 5126, "count": 1000, "max": [0.9963495135307312, 0.9992060661315918], "min": [0.0, 0.005219519138336182], "type": "VEC2"}, {"bufferView": 0, "byteOffset": 103476, "componentType": 5125, "count": 2628, "type": "SCALAR"}, {"bufferView": 2, "byteOffset": 249624, "componentType": 5126, "count": 204, "max": [7825.1396484375, 47.81060791015625, 116.9111557006836], "min": [-7825.544921875, -646.3328247070312, -55.87617874145508], "type": "VEC3"}, {"bufferView": 2, "byteOffset": 252072, "componentType": 5126, "count": 204, "max": [0.993706226348877, 0.9999516010284424, 0.999958872795105], "min": [-0.9902965426445007, -0.9999516606330872, -0.9999589323997498], "type": "VEC3"}, {"bufferView": 0, "byteOffset": 113988, "componentType": 5125, "count": 1068, "type": "SCALAR"}, {"bufferView": 2, "byteOffset": 254520, "componentType": 5126, "count": 204, "max": [7814.19482421875, 296.3480224609375, 15.000030517578125], "min": [-7812.27197265625, -667.2179565429688, -15.0], "type": "VEC3"}, {"bufferView": 2, "byteOffset": 256968, "componentType": 5126, "count": 204, "max": [0.9807878136634827, 0.9999313950538635, 1.0], "min": [-0.9977593421936035, -0.9999313950538635, -1.0], "type": "VEC3"}, {"bufferView": 0, "byteOffset": 118260, "componentType": 5125, "count": 1068, "type": "SCALAR"}, {"bufferView": 2, "byteOffset": 259416, "componentType": 5126, "count": 204, "max": [7825.65625, 47.74348068237305, 117.10099029541016], "min": [-7826.12353515625, -843.4389038085938, 5.628070831298828], "type": "VEC3"}, {"bufferView": 2, "byteOffset": 261864, "componentType": 5126, "count": 204, "max": [0.9892297387123108, 0.9999548196792603, 0.9999843239784241], "min": [-0.9839773774147034, -0.9999539852142334, -0.9999957084655762], "type": "VEC3"}, {"bufferView": 0, "byteOffset": 122532, "componentType": 5125, "count": 1068, "type": "SCALAR"}, {"bufferView": 2, "byteOffset": 264312, "componentType": 5126, "count": 204, "max": [7825.1396484375, 47.81060791015625, 116.9111557006836], "min": [-7825.544921875, -646.3328247070312, -55.87617874145508], "type": "VEC3"}, {"bufferView": 2, "byteOffset": 266760, "componentType": 5126, "count": 204, "max": [0.993706226348877, 0.9999516010284424, 0.999958872795105], "min": [-0.9902965426445007, -0.9999516606330872, -0.9999589323997498], "type": "VEC3"}, {"bufferView": 0, "byteOffset": 126804, "componentType": 5125, "count": 1068, "type": "SCALAR"}, {"bufferView": 2, "byteOffset": 269208, "componentType": 5126, "count": 204, "max": [7825.65625, 47.74348068237305, 117.10099029541016], "min": [-7826.12353515625, -843.4389038085938, 5.628070831298828], "type": "VEC3"}, {"bufferView": 2, "byteOffset": 271656, "componentType": 5126, "count": 204, "max": [0.9892297387123108, 0.9999548196792603, 0.9999843239784241], "min": [-0.9839773774147034, -0.9999539852142334, -0.9999957084655762], "type": "VEC3"}, {"bufferView": 0, "byteOffset": 131076, "componentType": 5125, "count": 1068, "type": "SCALAR"}, {"bufferView": 2, "byteOffset": 274104, "componentType": 5126, "count": 204, "max": [7825.1396484375, 47.81060791015625, 116.9111557006836], "min": [-7825.544921875, -646.3328247070312, -55.87617874145508], "type": "VEC3"}, {"bufferView": 2, "byteOffset": 276552, "componentType": 5126, "count": 204, "max": [0.993706226348877, 0.9999516010284424, 0.999958872795105], "min": [-0.9902965426445007, -0.9999516606330872, -0.9999589323997498], "type": "VEC3"}, {"bufferView": 0, "byteOffset": 135348, "componentType": 5125, "count": 1068, "type": "SCALAR"}, {"bufferView": 2, "byteOffset": 279000, "componentType": 5126, "count": 204, "max": [7825.1396484375, 47.81060791015625, 116.9111557006836], "min": [-7825.544921875, -646.3328247070312, -55.87617874145508], "type": "VEC3"}, {"bufferView": 2, "byteOffset": 281448, "componentType": 5126, "count": 204, "max": [0.993706226348877, 0.9999516010284424, 0.999958872795105], "min": [-0.9902965426445007, -0.9999516606330872, -0.9999589323997498], "type": "VEC3"}, {"bufferView": 0, "byteOffset": 139620, "componentType": 5125, "count": 1068, "type": "SCALAR"}, {"bufferView": 2, "byteOffset": 283896, "componentType": 5126, "count": 204, "max": [7825.65625, 47.74348068237305, 117.10099029541016], "min": [-7826.12353515625, -843.4389038085938, 5.628070831298828], "type": "VEC3"}, {"bufferView": 2, "byteOffset": 286344, "componentType": 5126, "count": 204, "max": [0.9892297387123108, 0.9999548196792603, 0.9999843239784241], "min": [-0.9839773774147034, -0.9999539852142334, -0.9999957084655762], "type": "VEC3"}, {"bufferView": 0, "byteOffset": 143892, "componentType": 5125, "count": 1068, "type": "SCALAR"}, {"bufferView": 2, "byteOffset": 288792, "componentType": 5126, "count": 204, "max": [7814.19482421875, 296.3480224609375, 15.000030517578125], "min": [-7812.27197265625, -667.2179565429688, -15.0], "type": "VEC3"}, {"bufferView": 2, "byteOffset": 291240, "componentType": 5126, "count": 204, "max": [0.9807878136634827, 0.9999313950538635, 1.0], "min": [-0.9977593421936035, -0.9999313950538635, -1.0], "type": "VEC3"}, {"bufferView": 0, "byteOffset": 148164, "componentType": 5125, "count": 1068, "type": "SCALAR"}, {"bufferView": 2, "byteOffset": 293688, "componentType": 5126, "count": 204, "max": [7825.1396484375, 47.708251953125, 116.91116333007812], "min": [-6461.47412109375, -832.1172485351562, -55.87556457519531], "type": "VEC3"}, {"bufferView": 2, "byteOffset": 296136, "componentType": 5126, "count": 204, "max": [0.9936766028404236, 0.9999961853027344, 0.9999591112136841], "min": [-0.9906098246574402, -0.999996542930603, -0.9999589323997498], "type": "VEC3"}, {"bufferView": 0, "byteOffset": 152436, "componentType": 5125, "count": 1068, "type": "SCALAR"}, {"bufferView": 2, "byteOffset": 298584, "componentType": 5126, "count": 204, "max": [7826.8720703125, 47.374755859375, 117.098388671875], "min": [-6461.6611328125, -1505.9364013671875, 5.6280517578125], "type": "VEC3"}, {"bufferView": 2, "byteOffset": 301032, "componentType": 5126, "count": 204, "max": [0.9735687375068665, 0.9999990463256836, 0.9999873042106628], "min": [-0.9885413646697998, -0.9999966025352478, -0.9999984502792358], "type": "VEC3"}, {"bufferView": 0, "byteOffset": 156708, "componentType": 5125, "count": 1068, "type": "SCALAR"}, {"bufferView": 2, "byteOffset": 303480, "componentType": 5126, "count": 204, "max": [7825.1396484375, 47.7083740234375, 116.9112548828125], "min": [-6461.47412109375, -832.1171875, -55.8753662109375], "type": "VEC3"}, {"bufferView": 2, "byteOffset": 305928, "componentType": 5126, "count": 204, "max": [0.9936794638633728, 0.9999961853027344, 0.9999591112136841], "min": [-0.9906098246574402, -0.9999966025352478, -0.9999589323997498], "type": "VEC3"}, {"bufferView": 0, "byteOffset": 160980, "componentType": 5125, "count": 1068, "type": "SCALAR"}, {"bufferView": 2, "byteOffset": 308376, "componentType": 5126, "count": 204, "max": [7825.65625, 47.63079833984375, 117.0985107421875], "min": [-6462.2724609375, -1023.476318359375, 5.6280517578125], "type": "VEC3"}, {"bufferView": 2, "byteOffset": 310824, "componentType": 5126, "count": 204, "max": [0.9891675114631653, 0.9999600052833557, 0.9999868869781494], "min": [-0.98161381483078, -0.9999570846557617, -0.9999963641166687], "type": "VEC3"}, {"bufferView": 0, "byteOffset": 165252, "componentType": 5125, "count": 1068, "type": "SCALAR"}, {"bufferView": 2, "byteOffset": 313272, "componentType": 5126, "count": 204, "max": [7826.3779296875, 47.4913330078125, 116.9112548828125], "min": [-6460.84765625, -1314.5762939453125, -55.875244140625], "type": "VEC3"}, {"bufferView": 2, "byteOffset": 315720, "componentType": 5126, "count": 204, "max": [0.9807608127593994, 0.9999398589134216, 0.9999602437019348], "min": [-0.9954406023025513, -0.9999392628669739, -0.9999598264694214], "type": "VEC3"}, {"bufferView": 0, "byteOffset": 169524, "componentType": 5125, "count": 1068, "type": "SCALAR"}, {"bufferView": 2, "byteOffset": 318168, "componentType": 5126, "count": 204, "max": [7825.65625, 47.63079833984375, 117.09843444824219], "min": [-6462.2724609375, -1023.476318359375, 5.6280670166015625], "type": "VEC3"}, {"bufferView": 2, "byteOffset": 320616, "componentType": 5126, "count": 204, "max": [0.989163875579834, 0.9999600052833557, 0.9999869465827942], "min": [-0.9816137552261353, -0.9999570250511169, -0.9999964833259583], "type": "VEC3"}, {"bufferView": 0, "byteOffset": 173796, "componentType": 5125, "count": 1068, "type": "SCALAR"}, {"bufferView": 2, "byteOffset": 323064, "componentType": 5126, "count": 204, "max": [7826.86328125, 901.7744140625, 116.91009521484375], "min": [-5390.9091796875, -937.1008911132812, -55.876007080078125], "type": "VEC3"}, {"bufferView": 2, "byteOffset": 325512, "componentType": 5126, "count": 204, "max": [0.97413170337677, 0.9997310042381287, 0.999955952167511], "min": [-0.9420199990272522, -0.9997363686561584, -0.99996018409729], "type": "VEC3"}, {"bufferView": 0, "byteOffset": 178068, "componentType": 5125, "count": 1068, "type": "SCALAR"}, {"bufferView": 2, "byteOffset": 327960, "componentType": 5126, "count": 204, "max": [7826.8642578125, 901.7744750976562, 116.91015625], "min": [-5390.9091796875, -937.1008911132812, -55.8759765625], "type": "VEC3"}, {"bufferView": 2, "byteOffset": 330408, "componentType": 5126, "count": 204, "max": [0.9741252064704895, 0.9997310638427734, 0.999955952167511], "min": [-0.942022979259491, -0.9997363686561584, -0.9999601244926453], "type": "VEC3"}, {"bufferView": 0, "byteOffset": 182340, "componentType": 5125, "count": 1068, "type": "SCALAR"}, {"bufferView": 2, "byteOffset": 332856, "componentType": 5126, "count": 204, "max": [7827.6787109375, 901.5731811523438, 117.10107421875], "min": [-5391.4189453125, -1134.2083740234375, 5.628173828125], "type": "VEC3"}, {"bufferView": 2, "byteOffset": 335304, "componentType": 5126, "count": 204, "max": [0.9601026773452759, 0.9997256398200989, 0.9999359250068665], "min": [-0.9289408922195435, -0.9997297525405884, -0.9999903440475464], "type": "VEC3"}, {"bufferView": 0, "byteOffset": 186612, "componentType": 5125, "count": 1068, "type": "SCALAR"}, {"bufferView": 2, "byteOffset": 337752, "componentType": 5126, "count": 204, "max": [7826.8642578125, 901.7744750976562, 116.9100341796875], "min": [-5390.9091796875, -937.1008911132812, -55.876220703125], "type": "VEC3"}, {"bufferView": 2, "byteOffset": 340200, "componentType": 5126, "count": 204, "max": [0.9741250872612, 0.9997310042381287, 0.9999560117721558], "min": [-0.9420220255851746, -0.9997363686561584, -0.99996018409729], "type": "VEC3"}, {"bufferView": 0, "byteOffset": 190884, "componentType": 5125, "count": 1068, "type": "SCALAR"}, {"bufferView": 2, "byteOffset": 342648, "componentType": 5126, "count": 204, "max": [7827.6787109375, 901.5733642578125, 117.10108947753906], "min": [-5391.4189453125, -1134.208251953125, 5.628173828125], "type": "VEC3"}, {"bufferView": 2, "byteOffset": 345096, "componentType": 5126, "count": 204, "max": [0.9600964784622192, 0.9997256398200989, 0.9999359846115112], "min": [-0.928941011428833, -0.9997297525405884, -0.9999902844429016], "type": "VEC3"}, {"bufferView": 0, "byteOffset": 195156, "componentType": 5125, "count": 1068, "type": "SCALAR"}], "asset": {"extras": {"author": "sergeilihandristov (https://sketchfab.com/sergeilihandristov)", "license": "CC-BY-4.0 (http://creativecommons.org/licenses/by/4.0/)", "source": "https://sketchfab.com/3d-models/abandoned-street-lights-pack-c853eca300e8435d8fe9206bcb524eda", "title": "Abandoned street lights pack"}, "generator": "Sketchfab-17.15.0", "version": "2.0"}, "bufferViews": [{"buffer": 0, "byteLength": 267780, "name": "floatBufferViews", "target": 34963, "byteOffset": 0}, {"buffer": 0, "byteLength": 83728, "byteOffset": 267780, "byteStride": 8, "name": "floatBufferViews", "target": 34962}, {"buffer": 0, "byteLength": 486024, "byteOffset": 351508, "byteStride": 12, "name": "floatBufferViews", "target": 34962}, {"buffer": 0, "byteLength": 166416, "byteOffset": 837532, "byteStride": 16, "name": "floatBufferViews", "target": 34962}], "buffers": [{"uri": "scene.bin", "byteLength": 1003948}], "extensionsUsed": ["KHR_materials_specular", "KHR_materials_emissive_strength"], "images": [{"uri": "textures/pillars_baseColor.jpg"}, {"uri": "textures/pillars_metallicRoughness.jpg"}, {"uri": "textures/pillars_normal.jpg"}], "materials": [{"doubleSided": true, "name": "pillars", "normalTexture": {"index": 2}, "occlusionTexture": {"index": 1}, "pbrMetallicRoughness": {"baseColorTexture": {"index": 0}, "metallicFactor": 0.0, "metallicRoughnessTexture": {"index": 1}}}, {"doubleSided": true, "name": "wire", "pbrMetallicRoughness": {"baseColorFactor": [0.005097615027984815, 0.005097615027984815, 0.005097615027984815, 1.0], "metallicFactor": 0.0, "roughnessFactor": 0.9039997074276798}}], "meshes": [{"name": "Cylinder015_pillars_0", "primitives": [{"attributes": {"NORMAL": 1, "POSITION": 0, "TANGENT": 2, "TEXCOORD_0": 3}, "indices": 4, "material": 0, "mode": 4}]}, {"name": "Cylinder017_pillars_0", "primitives": [{"attributes": {"NORMAL": 6, "POSITION": 5, "TANGENT": 7, "TEXCOORD_0": 8}, "indices": 9, "material": 0, "mode": 4}]}, {"name": "Box011_pillars_0", "primitives": [{"attributes": {"NORMAL": 11, "POSITION": 10, "TANGENT": 12, "TEXCOORD_0": 13}, "indices": 14, "material": 0, "mode": 4}]}, {"name": "Box012_pillars_0", "primitives": [{"attributes": {"NORMAL": 16, "POSITION": 15, "TANGENT": 17, "TEXCOORD_0": 18}, "indices": 19, "material": 0, "mode": 4}]}, {"name": "Box013_pillars_0", "primitives": [{"attributes": {"NORMAL": 21, "POSITION": 20, "TANGENT": 22, "TEXCOORD_0": 23}, "indices": 24, "material": 0, "mode": 4}]}, {"name": "Cylinder019_pillars_0", "primitives": [{"attributes": {"NORMAL": 26, "POSITION": 25, "TANGENT": 27, "TEXCOORD_0": 28}, "indices": 29, "material": 0, "mode": 4}]}, {"name": "Cylinder020_pillars_0", "primitives": [{"attributes": {"NORMAL": 31, "POSITION": 30, "TANGENT": 32, "TEXCOORD_0": 33}, "indices": 34, "material": 0, "mode": 4}]}, {"name": "Box014_pillars_0", "primitives": [{"attributes": {"NORMAL": 36, "POSITION": 35, "TANGENT": 37, "TEXCOORD_0": 38}, "indices": 39, "material": 0, "mode": 4}]}, {"name": "Box015_pillars_0", "primitives": [{"attributes": {"NORMAL": 41, "POSITION": 40, "TANGENT": 42, "TEXCOORD_0": 43}, "indices": 44, "material": 0, "mode": 4}]}, {"name": "pillar_01_pillars_0", "primitives": [{"attributes": {"NORMAL": 46, "POSITION": 45, "TANGENT": 47, "TEXCOORD_0": 48}, "indices": 49, "material": 0, "mode": 4}]}, {"name": "pillar_02_pillars_0", "primitives": [{"attributes": {"NORMAL": 51, "POSITION": 50, "TANGENT": 52, "TEXCOORD_0": 53}, "indices": 54, "material": 0, "mode": 4}]}, {"name": "pillar_03_pillars_0", "primitives": [{"attributes": {"NORMAL": 56, "POSITION": 55, "TANGENT": 57, "TEXCOORD_0": 58}, "indices": 59, "material": 0, "mode": 4}]}, {"name": "pillar_04_pillars_0", "primitives": [{"attributes": {"NORMAL": 61, "POSITION": 60, "TANGENT": 62, "TEXCOORD_0": 63}, "indices": 64, "material": 0, "mode": 4}]}, {"name": "pillar_06_pillars_0", "primitives": [{"attributes": {"NORMAL": 66, "POSITION": 65, "TANGENT": 67, "TEXCOORD_0": 68}, "indices": 69, "material": 0, "mode": 4}]}, {"name": "pillar_08_pillars_0", "primitives": [{"attributes": {"NORMAL": 71, "POSITION": 70, "TANGENT": 72, "TEXCOORD_0": 73}, "indices": 74, "material": 0, "mode": 4}]}, {"name": "pillar_05_pillars_0", "primitives": [{"attributes": {"NORMAL": 76, "POSITION": 75, "TANGENT": 77, "TEXCOORD_0": 78}, "indices": 79, "material": 0, "mode": 4}]}, {"name": "pillar_07_pillars_0", "primitives": [{"attributes": {"NORMAL": 81, "POSITION": 80, "TANGENT": 82, "TEXCOORD_0": 83}, "indices": 84, "material": 0, "mode": 4}]}, {"name": "Line003_wire_0", "primitives": [{"attributes": {"NORMAL": 86, "POSITION": 85}, "indices": 87, "material": 1, "mode": 4}]}, {"name": "Line004_wire_0", "primitives": [{"attributes": {"NORMAL": 89, "POSITION": 88}, "indices": 90, "material": 1, "mode": 4}]}, {"name": "Line005_wire_0", "primitives": [{"attributes": {"NORMAL": 92, "POSITION": 91}, "indices": 93, "material": 1, "mode": 4}]}, {"name": "Line006_wire_0", "primitives": [{"attributes": {"NORMAL": 95, "POSITION": 94}, "indices": 96, "material": 1, "mode": 4}]}, {"name": "Line007_wire_0", "primitives": [{"attributes": {"NORMAL": 98, "POSITION": 97}, "indices": 99, "material": 1, "mode": 4}]}, {"name": "Line008_wire_0", "primitives": [{"attributes": {"NORMAL": 101, "POSITION": 100}, "indices": 102, "material": 1, "mode": 4}]}, {"name": "Line009_wire_0", "primitives": [{"attributes": {"NORMAL": 104, "POSITION": 103}, "indices": 105, "material": 1, "mode": 4}]}, {"name": "Line010_wire_0", "primitives": [{"attributes": {"NORMAL": 107, "POSITION": 106}, "indices": 108, "material": 1, "mode": 4}]}, {"name": "Line011_wire_0", "primitives": [{"attributes": {"NORMAL": 110, "POSITION": 109}, "indices": 111, "material": 1, "mode": 4}]}, {"name": "Line012_wire_0", "primitives": [{"attributes": {"NORMAL": 113, "POSITION": 112}, "indices": 114, "material": 1, "mode": 4}]}, {"name": "Line014_wire_0", "primitives": [{"attributes": {"NORMAL": 116, "POSITION": 115}, "indices": 117, "material": 1, "mode": 4}]}, {"name": "Line015_wire_0", "primitives": [{"attributes": {"NORMAL": 119, "POSITION": 118}, "indices": 120, "material": 1, "mode": 4}]}, {"name": "Line016_wire_0", "primitives": [{"attributes": {"NORMAL": 122, "POSITION": 121}, "indices": 123, "material": 1, "mode": 4}]}, {"name": "Line018_wire_0", "primitives": [{"attributes": {"NORMAL": 125, "POSITION": 124}, "indices": 126, "material": 1, "mode": 4}]}, {"name": "Line019_wire_0", "primitives": [{"attributes": {"NORMAL": 128, "POSITION": 127}, "indices": 129, "material": 1, "mode": 4}]}, {"name": "Line020_wire_0", "primitives": [{"attributes": {"NORMAL": 131, "POSITION": 130}, "indices": 132, "material": 1, "mode": 4}]}, {"name": "Line023_wire_0", "primitives": [{"attributes": {"NORMAL": 134, "POSITION": 133}, "indices": 135, "material": 1, "mode": 4}]}, {"name": "Line024_wire_0", "primitives": [{"attributes": {"NORMAL": 137, "POSITION": 136}, "indices": 138, "material": 1, "mode": 4}]}, {"name": "Line025_wire_0", "primitives": [{"attributes": {"NORMAL": 140, "POSITION": 139}, "indices": 141, "material": 1, "mode": 4}]}, {"name": "Line027_wire_0", "primitives": [{"attributes": {"NORMAL": 143, "POSITION": 142}, "indices": 144, "material": 1, "mode": 4}]}], "nodes": [{"children": [1], "matrix": [1.0, 0.0, 0.0, 0.0, 0.0, 2.220446049250313e-16, -1.0, 0.0, 0.0, 1.0, 2.220446049250313e-16, 0.0, 0.0, 0.0, 0.0, 1.0], "name": "Sketchfab_model"}, {"children": [2], "matrix": [0.0010000000474974513, 0.0, 0.0, 0.0, 0.0, 0.0, 0.0010000000474974513, 0.0, 0.0, -0.0010000000474974513, 0.0, 0.0, 0.0, 0.0, 0.0, 1.0], "name": "d805dcf6411d4396bb26f6083713e09b.fbx"}, {"children": [3, 6, 9, 12, 15, 18, 20, 23, 26, 29, 31, 33, 35, 37, 39, 41, 43, 45, 47, 49, 51, 53, 55, 57, 59, 61, 63, 65, 67, 69, 71, 73, 75, 77, 79, 81, 83], "name": "RootNode"}, {"children": [4], "matrix": [1.0, 0.0, 0.0, 0.0, 0.0, 2.220446049250313e-16, -1.0, 0.0, 0.0, 1.0, 2.220446049250313e-16, 0.0, 33476.35546875, 4120.2119140625, 25.321212768554688, 1.0], "name": "Cylinder015"}, {"children": [5], "matrix": [1.0, 0.0, -0.0, 0.0, 0.0, 1.0, 0.0, 0.0, 0.0, 0.0, 1.0, 0.0, 390.0, 1.52587890625e-05, -1820.266357421875, 1.0], "name": "Object_4"}, {"mesh": 0, "name": "Cylinder015_pillars_0"}, {"children": [7], "matrix": [0.9999999999999923, -8.742277657347518e-08, 8.742277657347518e-08, 0.0, 8.742276893073332e-08, -8.742277657347586e-08, -0.9999999999999925, 0.0, 8.742278421621638e-08, 0.9999999999999925, -8.742276902395929e-08, 0.0, 33479.90625, 2186.80615234375, 28.8145751953125, 1.0], "name": "Cylinder017"}, {"children": [8], "matrix": [1.0, 0.0, -0.0, 0.0, 0.0, 1.0, 0.0, 0.0, 0.0, 0.0, 1.0, 0.0, -0.00012207034160383046, 0.0004119873046875, 2.5345343879212834e-11, 1.0], "name": "Object_7"}, {"mesh": 1, "name": "Cylinder017_pillars_0"}, {"children": [10], "matrix": [4.3711387731626417e-08, 5.551115123125783e-17, 0.9999999999999993, 0.0, 0.9999999999999993, 0.0, -4.371138789815987e-08, 0.0, -5.551115123125783e-17, 1.0000000000000002, -2.220446049250313e-16, 0.0, 33481.65625, 4591.8134765625, 9.17086124420166, 1.0], "name": "Box011"}, {"children": [11], "matrix": [1.0, 0.0, -0.0, 0.0, 0.0, 1.0, 0.0, 0.0, 0.0, 0.0, 1.0, 0.0, -14.74359130859375, -0.10638427734375, -286.02099609375, 1.0], "name": "Object_10"}, {"mesh": 2, "name": "Box011_pillars_0"}, {"children": [13], "matrix": [1.0, 0.0, 0.0, 0.0, 0.0, 2.220446049250313e-16, -1.0, 0.0, 0.0, 1.0, 2.220446049250313e-16, 0.0, 33519.6015625, 1452.5511474609375, 137.10794067382812, 1.0], "name": "Box012"}, {"children": [14], "matrix": [1.0, 0.0, -0.0, 0.0, 0.0, 1.0, 0.0, 0.0, 0.0, 0.0, 1.0, 0.0, 0.0, -102.63710021972656, -1451.4267578125, 1.0], "name": "Object_13"}, {"mesh": 3, "name": "Box012_pillars_0"}, {"children": [16], "matrix": [1.0, 0.0, 0.0, 0.0, 0.0, 2.220446049250313e-16, -1.0, 0.0, 0.0, 1.0, 2.220446049250313e-16, 0.0, 32678.578125, 850.5621948242188, 33.34785461425781, 1.0], "name": "Box013"}, {"children": [17], "matrix": [1.0, 0.0, -0.0, 0.0, 0.0, 1.0, 0.0, 0.0, 0.0, 0.0, 1.0, 0.0, 0.0, 0.0, -849.4378051757812, 1.0], "name": "Object_16"}, {"mesh": 4, "name": "Box013_pillars_0"}, {"children": [19], "matrix": [1.0, 0.0, 0.0, 0.0, 0.0, 2.220446049250313e-16, -1.0, 0.0, 0.0, 1.0, 2.220446049250313e-16, 0.0, 32179.931640625, 0.0, 10.0, 1.0], "name": "Cylinder019"}, {"mesh": 5, "name": "Cylinder019_pillars_0"}, {"children": [21], "matrix": [1.0, 0.0, 0.0, 0.0, 0.0, 2.220446049250313e-16, -1.0, 0.0, 0.0, 1.0, 2.220446049250313e-16, 0.0, 33478.515625, 5403.2099609375, 8.675537109375, 1.0], "name": "Cylinder020"}, {"children": [22], "matrix": [1.0, 0.0, -0.0, 0.0, 0.0, 1.0, 0.0, 0.0, 0.0, 0.0, 1.0, 0.0, 0.0, 0.0, 17.31787109375, 1.0], "name": "Object_21"}, {"mesh": 6, "name": "Cylinder020_pillars_0"}, {"children": [24], "matrix": [1.0, 0.0, 0.0, 0.0, 0.0, 2.220446049250313e-16, -1.0, 0.0, 0.0, 1.0, 2.220446049250313e-16, 0.0, 33478.73828125, 3209.530517578125, 1034.1259765625, 1.0], "name": "Box014"}, {"children": [25], "matrix": [1.0, 0.0, -0.0, 0.0, 0.0, 1.0, 0.0, 0.0, 0.0, 0.0, 1.0, 0.0, 0.0, -494.7354736328125, 437.4580078125, 1.0], "name": "Object_24"}, {"mesh": 7, "name": "Box014_pillars_0"}, {"children": [27], "matrix": [1.0, 0.0, 0.0, 0.0, 0.0, 2.220446049250313e-16, -1.0, 0.0, 0.0, 1.0, 2.220446049250313e-16, 0.0, 33482.41796875, 413.984130859375, 155.84521484375, 1.0], "name": "Box015"}, {"children": [28], "matrix": [1.0, 0.0, -0.0, 0.0, 0.0, 1.0, 0.0, 0.0, 0.0, 0.0, 1.0, 0.0, 102.541748046875, 46.57562255859375, 0.0, 1.0], "name": "Object_27"}, {"mesh": 8, "name": "Box015_pillars_0"}, {"children": [30], "matrix": [1.0, 0.0, 0.0, 0.0, 0.0, 2.220446049250313e-16, -1.0, 0.0, 0.0, 1.0, 2.220446049250313e-16, 0.0, -19032.33984375, 114.65576171875, 892.8151245117188, 1.0], "name": "pillar_01"}, {"mesh": 9, "name": "pillar_01_pillars_0"}, {"children": [32], "matrix": [1.0, 0.0, 0.0, 0.0, 0.0, 2.220446049250313e-16, -1.0, 0.0, 0.0, 1.0, 2.220446049250313e-16, 0.0, 24067.052734375, 114.65576171875, 892.8151245117188, 1.0], "name": "pillar_02"}, {"mesh": 10, "name": "pillar_02_pillars_0"}, {"children": [34], "matrix": [1.0, 0.0, 0.0, 0.0, 0.0, 2.220446049250313e-16, -1.0, 0.0, 0.0, 1.0, 2.220446049250313e-16, 0.0, 8453.4267578125, 114.65576171875, 892.8151245117188, 1.0], "name": "pillar_03"}, {"mesh": 11, "name": "pillar_03_pillars_0"}, {"children": [36], "matrix": [0.984807749605942, 0.17364819698482425, 1.3877787807814457e-17, 0.0, -1.3877787807814457e-17, 1.1102230246251565e-16, -1.0000000000000002, 0.0, -0.17364819698482425, 0.9848077496059421, 1.1102230246251565e-16, 0.0, -3119.2333984375, -177.1107177734375, 892.8151245117188, 1.0], "name": "pillar_04"}, {"mesh": 12, "name": "pillar_04_pillars_0"}, {"children": [38], "matrix": [1.0, 0.0, 0.0, 0.0, 0.0, 2.220446049250313e-16, -1.0, 0.0, 0.0, 1.0, 2.220446049250313e-16, 0.0, 8453.4267578125, 114.65576171875, -12362.4619140625, 1.0], "name": "pillar_06"}, {"mesh": 13, "name": "pillar_06_pillars_0"}, {"children": [40], "matrix": [1.0, 0.0, 0.0, 0.0, 0.0, 2.220446049250313e-16, -1.0, 0.0, 0.0, 1.0, 2.220446049250313e-16, 0.0, -18957.771484375, -533.583984375, -12674.8662109375, 1.0], "name": "pillar_08"}, {"mesh": 14, "name": "pillar_08_pillars_0"}, {"children": [42], "matrix": [1.0, 0.0, 0.0, 0.0, 0.0, 2.220446049250313e-16, -1.0, 0.0, 0.0, 1.0, 2.220446049250313e-16, 0.0, 24138.900390625, -88.15777587890625, -11406.267578125, 1.0], "name": "pillar_05"}, {"mesh": 15, "name": "pillar_05_pillars_0"}, {"children": [44], "matrix": [1.0, 0.0, 0.0, 0.0, 0.0, 2.220446049250313e-16, -1.0, 0.0, 0.0, 1.0, 2.220446049250313e-16, 0.0, -4967.875, -77.59619140625, -12330.5703125, 1.0], "name": "pillar_07"}, {"mesh": 16, "name": "pillar_07_pillars_0"}, {"children": [46], "matrix": [1.0, 0.0, 0.0, 0.0, 0.0, 0.999999999999999, 4.371138828673792e-08, 0.0, 0.0, -4.371138828673792e-08, 0.999999999999999, 0.0, 16380.63671875, 5379.83935546875, 1708.714599609375, 1.0], "name": "Line003"}, {"mesh": 17, "name": "Line003_wire_0"}, {"children": [48], "matrix": [1.0, 0.0, 0.0, 0.0, 0.0, 0.999999999999999, 4.371138828673792e-08, 0.0, 0.0, -4.371138828673792e-08, 0.999999999999999, 0.0, 16374.3701171875, 6345.2666015625, -38.684181213378906, 1.0], "name": "Line004"}, {"mesh": 18, "name": "Line004_wire_0"}, {"children": [50], "matrix": [1.0, 0.0, 0.0, 0.0, 0.0, 0.999999999999999, 4.371138828673792e-08, 0.0, 0.0, -4.371138828673792e-08, 0.999999999999999, 0.0, 16380.63671875, 6008.87109375, 1174.575927734375, 1.0], "name": "Line005"}, {"mesh": 19, "name": "Line005_wire_0"}, {"children": [52], "matrix": [1.0, 0.0, 0.0, 0.0, 0.0, 0.999999999999999, 4.371138828673792e-08, 0.0, 0.0, -4.371138828673792e-08, 0.999999999999999, 0.0, 16380.63671875, 5379.83935546875, 410.1046142578125, 1.0], "name": "Line006"}, {"mesh": 20, "name": "Line006_wire_0"}, {"children": [54], "matrix": [1.0, 0.0, 0.0, 0.0, 0.0, 0.999999999999999, 4.371138828673792e-08, 0.0, 0.0, -4.371138828673792e-08, 0.999999999999999, 0.0, 16380.63671875, 5379.83935546875, -124.0340576171875, 1.0], "name": "Line007"}, {"mesh": 21, "name": "Line007_wire_0"}, {"children": [56], "matrix": [1.0, 0.0, 0.0, 0.0, 0.0, 0.999999999999999, 4.371138828673792e-08, 0.0, 0.0, -4.371138828673792e-08, 0.999999999999999, 0.0, 16380.63671875, 5379.83935546875, 48.827423095703125, 1.0], "name": "Line008"}, {"mesh": 22, "name": "Line008_wire_0"}, {"children": [58], "matrix": [1.0, 0.0, 0.0, 0.0, 0.0, 0.999999999999999, 4.371138828673792e-08, 0.0, 0.0, -4.371138828673792e-08, 0.999999999999999, 0.0, 16380.63671875, 6008.87109375, 600.1168823242188, 1.0], "name": "Line009"}, {"mesh": 23, "name": "Line009_wire_0"}, {"children": [60], "matrix": [1.0, 0.0, 0.0, 0.0, 0.0, 0.999999999999999, 4.371138828673792e-08, 0.0, 0.0, -4.371138828673792e-08, 0.999999999999999, 0.0, 16380.63671875, 5379.83935546875, 1566.0302734375, 1.0], "name": "Line010"}, {"mesh": 24, "name": "Line010_wire_0"}, {"children": [62], "matrix": [1.0, 0.0, 0.0, 0.0, 0.0, 0.999999999999999, 4.371138828673792e-08, 0.0, 0.0, -4.371138828673792e-08, 0.999999999999999, 0.0, 16374.3701171875, 6345.2666015625, 1795.185302734375, 1.0], "name": "Line011"}, {"mesh": 25, "name": "Line011_wire_0"}, {"children": [64], "matrix": [1.0, 0.0, 0.0, 0.0, 0.0, 0.999999999999999, 4.371138828673792e-08, 0.0, 0.0, -4.371138828673792e-08, 0.999999999999999, 0.0, 753.53564453125, 5379.83935546875, 1708.714599609375, 1.0], "name": "Line012"}, {"mesh": 26, "name": "Line012_wire_0"}, {"children": [66], "matrix": [1.0, 0.0, 0.0, 0.0, 0.0, 0.999999999999999, 4.371138828673792e-08, 0.0, 0.0, -4.371138828673792e-08, 0.999999999999999, 0.0, 753.53564453125, 6008.87109375, 1174.575927734375, 1.0], "name": "Line014"}, {"mesh": 27, "name": "Line014_wire_0"}, {"children": [68], "matrix": [1.0, 0.0, 0.0, 0.0, 0.0, 0.999999999999999, 4.371138828673792e-08, 0.0, 0.0, -4.371138828673792e-08, 0.999999999999999, 0.0, 753.53564453125, 5379.83935546875, 410.1046142578125, 1.0], "name": "Line015"}, {"mesh": 28, "name": "Line015_wire_0"}, {"children": [70], "matrix": [1.0, 0.0, 0.0, 0.0, 0.0, 0.999999999999999, 4.371138828673792e-08, 0.0, 0.0, -4.371138828673792e-08, 0.999999999999999, 0.0, 753.53564453125, 5379.83935546875, -124.0340576171875, 1.0], "name": "Line016"}, {"mesh": 29, "name": "Line016_wire_0"}, {"children": [72], "matrix": [1.0, 0.0, 0.0, 0.0, 0.0, 0.999999999999999, 4.371138828673792e-08, 0.0, 0.0, -4.371138828673792e-08, 0.999999999999999, 0.0, 753.53564453125, 6008.87109375, 600.1168823242188, 1.0], "name": "Line018"}, {"mesh": 30, "name": "Line018_wire_0"}, {"children": [74], "matrix": [1.0, 0.0, 0.0, 0.0, 0.0, 0.999999999999999, 4.371138828673792e-08, 0.0, 0.0, -4.371138828673792e-08, 0.999999999999999, 0.0, 753.53564453125, 5379.83935546875, 1566.0302734375, 1.0], "name": "Line019"}, {"mesh": 31, "name": "Line019_wire_0"}, {"children": [76], "matrix": [1.0, 0.0, 0.0, 0.0, 0.0, 0.999999999999999, 4.371138828673792e-08, 0.0, 0.0, -4.371138828673792e-08, 0.999999999999999, 0.0, -13514.9130859375, 5156.826171875, 1708.714599609375, 1.0], "name": "Line020"}, {"mesh": 32, "name": "Line020_wire_0"}, {"children": [78], "matrix": [1.0, 0.0, 0.0, 0.0, 0.0, 0.999999999999999, 4.371138828673792e-08, 0.0, 0.0, -4.371138828673792e-08, 0.999999999999999, 0.0, -13514.9130859375, 5156.826171875, 410.1046142578125, 1.0], "name": "Line023"}, {"mesh": 33, "name": "Line023_wire_0"}, {"children": [80], "matrix": [1.0, 0.0, 0.0, 0.0, 0.0, 0.999999999999999, 4.371138828673792e-08, 0.0, 0.0, -4.371138828673792e-08, 0.999999999999999, 0.0, -13514.9130859375, 5156.826171875, -124.0340576171875, 1.0], "name": "Line024"}, {"mesh": 34, "name": "Line024_wire_0"}, {"children": [82], "matrix": [1.0, 0.0, 0.0, 0.0, 0.0, 0.999999999999999, 4.371138828673792e-08, 0.0, 0.0, -4.371138828673792e-08, 0.999999999999999, 0.0, -13514.9130859375, 5156.826171875, 48.827423095703125, 1.0], "name": "Line025"}, {"mesh": 35, "name": "Line025_wire_0"}, {"children": [84], "matrix": [1.0, 0.0, 0.0, 0.0, 0.0, 0.999999999999999, 4.371138828673792e-08, 0.0, 0.0, -4.371138828673792e-08, 0.999999999999999, 0.0, -13514.9130859375, 5156.826171875, 1566.0302734375, 1.0], "name": "Line027"}, {"mesh": 36, "name": "Line027_wire_0"}], "samplers": [{"magFilter": 9729, "minFilter": 9987, "wrapS": 10497, "wrapT": 10497}], "scene": 0, "scenes": [{"name": "Sketchfab_Scene", "nodes": [0]}], "textures": [{"sampler": 0, "source": 0}, {"sampler": 0, "source": 1}, {"sampler": 0, "source": 2}]}