{"accessors": [{"bufferView": 2, "componentType": 5126, "count": 1397, "max": [1.393589973449707, 1.188099980354309, 2.45386004447937], "min": [-1.0545899868011475, -1.188099980354309, -1.038450002670288], "type": "VEC3"}, {"bufferView": 2, "byteOffset": 16764, "componentType": 5126, "count": 1397, "max": [1.0, 1.0, 1.0], "min": [-1.0, -1.0, -1.0], "type": "VEC3"}, {"bufferView": 3, "componentType": 5126, "count": 1397, "max": [1.0, 1.0, 1.0, 1.0], "min": [-1.0, -1.0, -1.0, 1.0], "type": "VEC4"}, {"bufferView": 1, "componentType": 5126, "count": 1397, "max": [0.9886999726295471, 0.9914100170135498], "min": [0.001290000043809414, 0.0038399999029934406], "type": "VEC2"}, {"bufferView": 0, "componentType": 5125, "count": 2988, "type": "SCALAR"}], "asset": {"extras": {"author": "adam127 (https://sketchfab.com/adam127)", "license": "CC-BY-4.0 (http://creativecommons.org/licenses/by/4.0/)", "source": "https://sketchfab.com/3d-models/western-church-ade447109b3743eab39a92bb08a55cd0", "title": "Western church"}, "generator": "Sketchfab-12.63.0", "version": "2.0"}, "bufferViews": [{"buffer": 0, "byteLength": 11952, "name": "floatBufferViews", "target": 34963, "byteOffset": 0}, {"buffer": 0, "byteLength": 11176, "byteOffset": 11952, "byteStride": 8, "name": "floatBufferViews", "target": 34962}, {"buffer": 0, "byteLength": 33528, "byteOffset": 23128, "byteStride": 12, "name": "floatBufferViews", "target": 34962}, {"buffer": 0, "byteLength": 22352, "byteOffset": 56656, "byteStride": 16, "name": "floatBufferViews", "target": 34962}], "buffers": [{"uri": "scene.bin", "byteLength": 79008}], "images": [{"uri": "textures/church_baseColor.jpg"}, {"uri": "textures/church_metallicRoughness.jpg"}, {"uri": "textures/church_normal.jpg"}], "materials": [{"doubleSided": true, "name": "church", "normalTexture": {"index": 2}, "pbrMetallicRoughness": {"baseColorTexture": {"index": 0}, "metallicRoughnessTexture": {"index": 1}, "roughnessFactor": 0.6}}], "meshes": [{"name": "church_0", "primitives": [{"attributes": {"NORMAL": 1, "POSITION": 0, "TANGENT": 2, "TEXCOORD_0": 3}, "indices": 4, "material": 0, "mode": 4}]}], "nodes": [{"children": [1], "matrix": [1.0, 0.0, 0.0, 0.0, 0.0, 2.220446049250313e-16, -1.0, 0.0, 0.0, 1.0, 2.220446049250313e-16, 0.0, 0.0, 0.0, 0.0, 1.0], "name": "Sketchfab_model"}, {"children": [2, 4], "name": "Root"}, {"children": [3], "matrix": [2.2, 0.0, 0.0, 0.0, 0.0, 1.3, 0.0, 0.0, 0.0, 0.0, 1.0, 0.0, 0.0, 0.0, 0.0, 1.0], "name": "church"}, {"mesh": 0, "name": "church_0"}, {"children": [5], "matrix": [0.6591700000000001, 0.7481400000000001, -0.07607000000000001, 0.0, -0.3764700000000001, 0.4158700000000001, 0.8278400000000001, 0.0, 0.6509800000000001, -0.51705, 0.55578, 0.0, 0.0, -6.22112, 4.097579999999999, 1.0], "name": "Sun"}, {"name": "Sun"}], "samplers": [{"magFilter": 9729, "minFilter": 9987, "wrapS": 10497, "wrapT": 10497}], "scene": 0, "scenes": [{"name": "Sketchfab_Scene", "nodes": [0]}], "textures": [{"sampler": 0, "source": 0}, {"sampler": 0, "source": 1}, {"sampler": 0, "source": 2}]}