{"accessors": [{"bufferView": 2, "componentType": 5126, "count": 1670, "max": [32.120018005371094, 172.60951232910156, 307.9548645019531], "min": [-28.284019470214844, -4.82087516784668, -77.42772674560547], "type": "VEC3"}, {"bufferView": 2, "byteOffset": 20040, "componentType": 5126, "count": 1670, "max": [0.9964085221290588, 0.9448927640914917, 0.9987213015556335], "min": [-0.9463568925857544, -0.9145371317863464, -0.9987213611602783], "type": "VEC3"}, {"bufferView": 3, "componentType": 5126, "count": 1670, "max": [0.9976317286491394, 0.9982326030731201, 1.0, 1.0], "min": [-0.9999118447303772, -0.9982326626777649, -0.9999982118606567, -1.0], "type": "VEC4"}, {"bufferView": 1, "componentType": 5126, "count": 1670, "max": [0.9976791739463806, 0.9957200884819031], "min": [0.002170382998883724, 0.0033065094612538815], "type": "VEC2"}, {"bufferView": 0, "componentType": 5125, "count": 5892, "type": "SCALAR"}], "asset": {"extras": {"author": "ANRUVAL_3D_MODELS (https://sketchfab.com/ANRUVAL_3D_MODELS)", "license": "CC-BY-4.0 (http://creativecommons.org/licenses/by/4.0/)", "source": "https://sketchfab.com/3d-models/wooden-barricades-2838fd388f7b484b8039a0ef977fc866", "title": "Wooden Barricades"}, "generator": "Sketchfab-12.67.0", "version": "2.0"}, "bufferViews": [{"buffer": 0, "byteLength": 23568, "name": "floatBufferViews", "target": 34963, "byteOffset": 0}, {"buffer": 0, "byteLength": 13360, "byteOffset": 23568, "byteStride": 8, "name": "floatBufferViews", "target": 34962}, {"buffer": 0, "byteLength": 40080, "byteOffset": 36928, "byteStride": 12, "name": "floatBufferViews", "target": 34962}, {"buffer": 0, "byteLength": 26720, "byteOffset": 77008, "byteStride": 16, "name": "floatBufferViews", "target": 34962}], "buffers": [{"uri": "scene.bin", "byteLength": 103728}], "images": [{"uri": "textures/Texture_baseColor.jpg"}, {"uri": "textures/Texture_normal.jpg"}], "materials": [{"doubleSided": true, "name": "Texture", "normalTexture": {"index": 1}, "pbrMetallicRoughness": {"baseColorTexture": {"index": 0}, "metallicFactor": 0.0, "roughnessFactor": 0.5}}], "meshes": [{"name": "barricades_Texture_0", "primitives": [{"attributes": {"NORMAL": 1, "POSITION": 0, "TANGENT": 2, "TEXCOORD_0": 3}, "indices": 4, "material": 0, "mode": 4}]}], "nodes": [{"children": [1], "matrix": [-1.0, 0.0, 0.0, 0.0, 0.0, -2.220446049250313e-16, 1.0, 0.0, 0.0, 1.0, 2.220446049250313e-16, 0.0, -3.836045026779175, -7.168200225722476e-06, -6.5191545486450195, 1.0], "name": "Sketchfab_model"}, {"children": [2], "matrix": [1.0, 0.0, 0.0, 0.0, 0.0, 0.0, 1.0, 0.0, 0.0, -1.0, 0.0, 0.0, 0.0, 0.0, 0.0, 1.0], "name": "Wooden_Barricades.fbx"}, {"children": [3], "name": "RootNode"}, {"children": [4], "matrix": [-0.9999999999999774, -1.5099578799560515e-07, 1.5099579909783715e-07, 0.0, -1.509958353956682e-07, 0.9999999999999394, -3.1391647338263455e-07, 0.0, -1.5099575169776272e-07, -3.1391649618236417e-07, -0.9999999999999394, 0.0, 0.0, 0.0, 112.00369262695312, 1.0], "name": "barricades"}, {"mesh": 0, "name": "barricades_Texture_0"}], "samplers": [{"magFilter": 9729, "minFilter": 9987, "wrapS": 10497, "wrapT": 10497}], "scene": 0, "scenes": [{"name": "Sketchfab_Scene", "nodes": [0]}], "textures": [{"sampler": 0, "source": 0}, {"sampler": 0, "source": 1}]}