{"accessors": [{"bufferView": 2, "byteOffset": 16320, "componentType": 5126, "count": 392, "max": [1.8015258312225342, 0.5322139263153076, 1.5324761867523193], "min": [-1.8015260696411133, -0.5322139263153076, -0.28509414196014404], "type": "VEC3"}, {"bufferView": 2, "byteOffset": 21024, "componentType": 5126, "count": 392, "max": [0.9824499487876892, 0.9871224164962769, 0.9827004075050354], "min": [-0.9824488162994385, -0.9871224761009216, -0.9773069620132446], "type": "VEC3"}, {"bufferView": 3, "byteOffset": 10880, "componentType": 5126, "count": 392, "max": [1.0, 0.6893455982208252, 0.9631759524345398, 1.0], "min": [-0.9806544184684753, -0.9866809844970703, -0.961732029914856, 1.0], "type": "VEC4"}, {"bufferView": 1, "byteOffset": 16320, "componentType": 5126, "count": 392, "max": [0.8771898746490479, 0.9994792938232422], "min": [0.006842255592346191, 0.0005207061767578125], "type": "VEC2"}, {"bufferView": 1, "byteOffset": 19456, "componentType": 5126, "count": 392, "max": [0.8771898746490479, 0.9994792938232422], "min": [0.006842255592346191, 0.0005207061767578125], "type": "VEC2"}, {"bufferView": 1, "byteOffset": 22592, "componentType": 5126, "count": 392, "max": [0.8771898746490479, 0.9994792938232422], "min": [0.006842255592346191, 0.0005207061767578125], "type": "VEC2"}, {"bufferView": 0, "byteOffset": 14064, "componentType": 5125, "count": 2028, "type": "SCALAR"}, {"bufferView": 2, "byteOffset": 25728, "componentType": 5126, "count": 324, "max": [1.0721588134765625, 0.027553196996450424, 1.6597604751586914], "min": [-1.0680232048034668, -0.023753022775053978, 1.5308966636657715], "type": "VEC3"}, {"bufferView": 2, "byteOffset": 29616, "componentType": 5126, "count": 324, "max": [1.0, 1.0, 0.9997897744178772], "min": [-1.0, -1.0, -0.9998935461044312], "type": "VEC3"}, {"bufferView": 3, "byteOffset": 17152, "componentType": 5126, "count": 324, "max": [0.9749709963798523, 0.9999982714653015, 0.9950725436210632, 1.0], "min": [-0.9764286875724792, -1.0, -0.9953310489654541, 1.0], "type": "VEC4"}, {"bufferView": 1, "byteOffset": 25728, "componentType": 5126, "count": 324, "max": [0.984128475189209, 0.862695038318634], "min": [0.8469439744949341, 0.15380366146564484], "type": "VEC2"}, {"bufferView": 1, "byteOffset": 28320, "componentType": 5126, "count": 324, "max": [0.984128475189209, 0.862695038318634], "min": [0.8469439744949341, 0.15380366146564484], "type": "VEC2"}, {"bufferView": 1, "byteOffset": 30912, "componentType": 5126, "count": 324, "max": [0.984128475189209, 0.862695038318634], "min": [0.8469439744949341, 0.15380366146564484], "type": "VEC2"}, {"bufferView": 0, "byteOffset": 22176, "componentType": 5125, "count": 1632, "type": "SCALAR"}, {"bufferView": 2, "byteOffset": 38880, "componentType": 5126, "count": 1179, "max": [2.011176109313965, 0.5479568243026733, 1.883152961730957], "min": [-2.307006597518921, -0.5515608787536621, -0.45487886667251587], "type": "VEC3"}, {"bufferView": 2, "byteOffset": 53028, "componentType": 5126, "count": 1179, "max": [1.0, 1.0, 1.0], "min": [-1.0, -1.0, -1.0], "type": "VEC3"}, {"bufferView": 3, "byteOffset": 25920, "componentType": 5126, "count": 1179, "max": [1.0, 1.0, 1.0, 1.0], "min": [-1.0, -0.9999998211860657, -1.0, 1.0], "type": "VEC4"}, {"bufferView": 1, "byteOffset": 38880, "componentType": 5126, "count": 1179, "max": [0.9910069108009338, 0.999248743057251], "min": [0.0007511377334594727, 0.0007512569427490234], "type": "VEC2"}, {"bufferView": 1, "byteOffset": 48312, "componentType": 5126, "count": 1179, "max": [0.9910069108009338, 0.999248743057251], "min": [0.0007511377334594727, 0.0007512569427490234], "type": "VEC2"}, {"bufferView": 1, "byteOffset": 57744, "componentType": 5126, "count": 1179, "max": [0.9910069108009338, 0.999248743057251], "min": [0.0007511377334594727, 0.0007512569427490234], "type": "VEC2"}, {"bufferView": 0, "byteOffset": 30384, "componentType": 5125, "count": 5076, "type": "SCALAR"}, {"bufferView": 2, "byteOffset": 67176, "componentType": 5126, "count": 1790, "max": [2.024068593978882, 0.5497022867202759, 1.8831532001495361], "min": [-2.2949702739715576, -0.5515608787536621, -0.45514434576034546], "type": "VEC3"}, {"bufferView": 2, "byteOffset": 88656, "componentType": 5126, "count": 1790, "max": [0.9999982714653015, 0.9999958276748657, 0.9999719262123108], "min": [-0.9999960660934448, -0.9999958276748657, -0.9998753666877747], "type": "VEC3"}, {"bufferView": 3, "byteOffset": 44784, "componentType": 5126, "count": 1790, "max": [0.999987781047821, 0.9999990463256836, 0.9999544024467468, 1.0], "min": [-0.9999759793281555, -0.9999999403953552, -0.9999725818634033, 1.0], "type": "VEC4"}, {"bufferView": 1, "byteOffset": 67176, "componentType": 5126, "count": 1790, "max": [0.9789039492607117, 0.999258279800415], "min": [0.0007417201995849609, 0.0007417201995849609], "type": "VEC2"}, {"bufferView": 1, "byteOffset": 81496, "componentType": 5126, "count": 1790, "max": [0.9789039492607117, 0.999258279800415], "min": [0.0007417201995849609, 0.0007417201995849609], "type": "VEC2"}, {"bufferView": 1, "byteOffset": 95816, "componentType": 5126, "count": 1790, "max": [0.9789039492607117, 0.999258279800415], "min": [0.0007417201995849609, 0.0007417201995849609], "type": "VEC2"}, {"bufferView": 0, "byteOffset": 50688, "componentType": 5125, "count": 8412, "type": "SCALAR"}, {"bufferView": 2, "byteOffset": 110136, "componentType": 5126, "count": 1327, "max": [3.0080432891845703, 0.547378659248352, 1.8723387718200684], "min": [-3.39764666557312, -0.5521390438079834, -0.46569305658340454], "type": "VEC3"}, {"bufferView": 2, "byteOffset": 126060, "componentType": 5126, "count": 1327, "max": [1.0, 1.0, 1.0], "min": [-1.0, -1.0, -1.0], "type": "VEC3"}, {"bufferView": 3, "byteOffset": 73424, "componentType": 5126, "count": 1327, "max": [1.0, 1.0, 1.0, 1.0], "min": [-1.0, -0.9999998807907104, -1.0, 1.0], "type": "VEC4"}, {"bufferView": 1, "byteOffset": 110136, "componentType": 5126, "count": 1327, "max": [0.992928147315979, 0.9991841316223145], "min": [0.0008159875869750977, 0.0008158683776855469], "type": "VEC2"}, {"bufferView": 1, "byteOffset": 120752, "componentType": 5126, "count": 1327, "max": [0.992928147315979, 0.9991841316223145], "min": [0.0008159875869750977, 0.0008158683776855469], "type": "VEC2"}, {"bufferView": 1, "byteOffset": 131368, "componentType": 5126, "count": 1327, "max": [0.992928147315979, 0.9991841316223145], "min": [0.0008159875869750977, 0.0008158683776855469], "type": "VEC2"}, {"bufferView": 0, "byteOffset": 84336, "componentType": 5125, "count": 5484, "type": "SCALAR"}, {"bufferView": 2, "byteOffset": 141984, "componentType": 5126, "count": 3329, "max": [3.048504590988159, 0.5460630059242249, 1.9265697002410889], "min": [-3.411792755126953, -0.5521393418312073, -0.5058433413505554], "type": "VEC3"}, {"bufferView": 2, "byteOffset": 181932, "componentType": 5126, "count": 3329, "max": [0.9999932050704956, 0.9999977350234985, 0.9999793171882629], "min": [-0.9999938607215881, -0.9999998211860657, -0.9999839663505554], "type": "VEC3"}, {"bufferView": 3, "byteOffset": 94656, "componentType": 5126, "count": 3329, "max": [0.9999924898147583, 0.9999979734420776, 0.9999950528144836, 1.0], "min": [-0.9999927878379822, -0.999997615814209, -0.9998966455459595, 1.0], "type": "VEC4"}, {"bufferView": 1, "byteOffset": 141984, "componentType": 5126, "count": 3329, "max": [0.9965071678161621, 0.9996286630630493], "min": [0.0008445978164672852, 0.0008444786071777344], "type": "VEC2"}, {"bufferView": 1, "byteOffset": 168616, "componentType": 5126, "count": 3329, "max": [0.9965071678161621, 0.9996286630630493], "min": [0.0008445978164672852, 0.0008444786071777344], "type": "VEC2"}, {"bufferView": 1, "byteOffset": 195248, "componentType": 5126, "count": 3329, "max": [0.9965071678161621, 0.9996286630630493], "min": [0.0008445978164672852, 0.0008444786071777344], "type": "VEC2"}, {"bufferView": 0, "byteOffset": 106272, "componentType": 5125, "count": 16368, "type": "SCALAR"}, {"bufferView": 2, "byteOffset": 221880, "componentType": 5126, "count": 672, "max": [0.327944278717041, 0.3279443383216858, 1.5095798969268799], "min": [-0.327944278717041, -0.3279443383216858, -0.01631397008895874], "type": "VEC3"}, {"bufferView": 2, "byteOffset": 229944, "componentType": 5126, "count": 672, "max": [1.0, 1.0, 1.0], "min": [-1.0, -1.0, -0.6884413957595825], "type": "VEC3"}, {"bufferView": 3, "byteOffset": 147920, "componentType": 5126, "count": 672, "max": [1.0, 1.0, 0.7195358872413635, 1.0], "min": [-1.0, -1.0, -0.7195327281951904, 1.0], "type": "VEC4"}, {"bufferView": 1, "byteOffset": 221880, "componentType": 5126, "count": 672, "max": [0.9981508255004883, 0.9984403848648071], "min": [0.018138429149985313, 0.09998220205307007], "type": "VEC2"}, {"bufferView": 1, "byteOffset": 227256, "componentType": 5126, "count": 672, "max": [0.9981508255004883, 0.9984403848648071], "min": [0.018138429149985313, 0.09998220205307007], "type": "VEC2"}, {"bufferView": 1, "byteOffset": 232632, "componentType": 5126, "count": 672, "max": [0.9981508255004883, 0.9984403848648071], "min": [0.018138429149985313, 0.09998220205307007], "type": "VEC2"}, {"bufferView": 0, "byteOffset": 171744, "componentType": 5125, "count": 3180, "type": "SCALAR"}, {"bufferView": 2, "byteOffset": 238008, "componentType": 5126, "count": 108, "max": [0.44165778160095215, 0.44165778160095215, -0.005996286869049072], "min": [-0.44165802001953125, -0.44165778160095215, -0.13829177618026733], "type": "VEC3"}, {"bufferView": 2, "byteOffset": 239304, "componentType": 5126, "count": 108, "max": [0.9137975573539734, 0.9137977361679077, 1.0], "min": [-0.9137980341911316, -0.9137977361679077, -1.0], "type": "VEC3"}, {"bufferView": 3, "byteOffset": 158672, "componentType": 5126, "count": 108, "max": [0.9688980579376221, 0.9688977599143982, 0.6638821363449097, 1.0], "min": [-1.0, -1.0, -0.6638821959495544, 1.0], "type": "VEC4"}, {"bufferView": 1, "byteOffset": 238008, "componentType": 5126, "count": 108, "max": [0.9960533976554871, 0.4931197464466095], "min": [0.0032074935734272003, 0.0043620765209198], "type": "VEC2"}, {"bufferView": 1, "byteOffset": 238872, "componentType": 5126, "count": 108, "max": [0.9960533976554871, 0.4931197464466095], "min": [0.0032074935734272003, 0.0043620765209198], "type": "VEC2"}, {"bufferView": 1, "byteOffset": 239736, "componentType": 5126, "count": 108, "max": [0.9960533976554871, 0.4931197464466095], "min": [0.0032074935734272003, 0.0043620765209198], "type": "VEC2"}, {"bufferView": 0, "byteOffset": 184464, "componentType": 5125, "count": 432, "type": "SCALAR"}, {"bufferView": 2, "byteOffset": 263208, "componentType": 5126, "count": 75, "max": [0.06458067893981934, 0.07367408275604248, 5.648125648498535], "min": [-0.062021493911743164, -0.05944328382611275, -0.2596684694290161], "type": "VEC3"}, {"bufferView": 2, "byteOffset": 264108, "componentType": 5126, "count": 75, "max": [0.951056718826294, 0.9999999403953552, 1.0], "min": [-0.9510566592216492, -0.9999999403953552, -0.0003045846242457628], "type": "VEC3"}, {"bufferView": 3, "byteOffset": 175472, "componentType": 5126, "count": 75, "max": [0.9999999403953552, 0.967787504196167, 0.7644238471984863, 1.0], "min": [-0.9999999403953552, -0.968654453754425, -0.7644240260124207, 1.0], "type": "VEC4"}, {"bufferView": 1, "byteOffset": 263208, "componentType": 5126, "count": 75, "max": [0.71791672706604, 0.9975199699401855], "min": [0.0013885609805583954, 0.0027740299701690674], "type": "VEC2"}, {"bufferView": 1, "byteOffset": 263808, "componentType": 5126, "count": 75, "max": [0.71791672706604, 0.9975199699401855], "min": [0.0013885609805583954, 0.0027740299701690674], "type": "VEC2"}, {"bufferView": 1, "byteOffset": 264408, "componentType": 5126, "count": 75, "max": [0.71791672706604, 0.9975199699401855], "min": [0.0013885609805583954, 0.0027740299701690674], "type": "VEC2"}, {"bufferView": 0, "byteOffset": 196704, "componentType": 5125, "count": 210, "type": "SCALAR"}, {"bufferView": 2, "byteOffset": 265008, "componentType": 5126, "count": 200, "max": [0.16048431396484375, 0.09159594774246216, 5.636869430541992], "min": [-0.15792512893676758, -0.06705471873283386, 4.522997856140137], "type": "VEC3"}, {"bufferView": 2, "byteOffset": 267408, "componentType": 5126, "count": 200, "max": [0.7282479405403137, 0.7657245993614197, 0.9999991655349731], "min": [-0.7282513380050659, -0.621582567691803, -0.9999991655349731], "type": "VEC3"}, {"bufferView": 3, "byteOffset": 176672, "componentType": 5126, "count": 200, "max": [1.0, 0.9999991655349731, 0.7085031867027283, 1.0], "min": [-1.0, -0.9999992251396179, -0.708503246307373, 1.0], "type": "VEC4"}, {"bufferView": 1, "byteOffset": 265008, "componentType": 5126, "count": 200, "max": [0.9953774809837341, 0.9971863031387329], "min": [0.09038054943084717, 0.13959582149982452], "type": "VEC2"}, {"bufferView": 1, "byteOffset": 266608, "componentType": 5126, "count": 200, "max": [0.9953774809837341, 0.9971863031387329], "min": [0.09038054943084717, 0.13959582149982452], "type": "VEC2"}, {"bufferView": 1, "byteOffset": 268208, "componentType": 5126, "count": 200, "max": [0.9953774809837341, 0.9971863031387329], "min": [0.09038054943084717, 0.13959582149982452], "type": "VEC2"}, {"bufferView": 0, "byteOffset": 197544, "componentType": 5125, "count": 552, "type": "SCALAR"}, {"bufferView": 2, "byteOffset": 269808, "componentType": 5126, "count": 160, "max": [0.1301584243774414, -0.030543290078639984, 5.622530937194824], "min": [-0.12759923934936523, -0.04907892644405365, 4.539105415344238], "type": "VEC3"}, {"bufferView": 2, "byteOffset": 271728, "componentType": 5126, "count": 160, "max": [0.9510584473609924, 1.0, 1.0], "min": [-0.9510584473609924, 0.0, -0.8090167045593262], "type": "VEC3"}, {"bufferView": 3, "byteOffset": 179872, "componentType": 5126, "count": 160, "max": [1.0, 0.8032118082046509, 1.0, 1.0], "min": [-1.0, -0.8032130002975464, -0.9857248067855835, 1.0], "type": "VEC4"}, {"bufferView": 1, "byteOffset": 269808, "componentType": 5126, "count": 160, "max": [0.9704861044883728, 0.756269097328186], "min": [0.09111416339874268, 0.014390066266059875], "type": "VEC2"}, {"bufferView": 1, "byteOffset": 271088, "componentType": 5126, "count": 160, "max": [0.9704861044883728, 0.756269097328186], "min": [0.09111416339874268, 0.014390066266059875], "type": "VEC2"}, {"bufferView": 1, "byteOffset": 272368, "componentType": 5126, "count": 160, "max": [0.9704861044883728, 0.756269097328186], "min": [0.09111416339874268, 0.014390066266059875], "type": "VEC2"}, {"bufferView": 0, "byteOffset": 199752, "componentType": 5125, "count": 420, "type": "SCALAR"}, {"bufferView": 2, "byteOffset": 273648, "componentType": 5126, "count": 36, "max": [0.6690595149993896, -0.06591915339231491, 5.75167179107666], "min": [-0.6690595149993896, -0.07604573667049408, 4.413553237915039], "type": "VEC3"}, {"bufferView": 2, "byteOffset": 274080, "componentType": 5126, "count": 36, "max": [0.7177417874336243, 1.0, 0.7177417874336243], "min": [-0.7177417874336243, -1.0, -0.7177416086196899], "type": "VEC3"}, {"bufferView": 3, "byteOffset": 182432, "componentType": 5126, "count": 36, "max": [0.9999839067459106, 0.6510933041572571, 0.9419327974319458, 1.0], "min": [-0.9999988675117493, -0.6510918140411377, -0.9419331550598145, 1.0], "type": "VEC4"}, {"bufferView": 1, "byteOffset": 273648, "componentType": 5126, "count": 36, "max": [0.9972001910209656, 0.9840608835220337], "min": [0.07496654987335205, 0.0020151843782514334], "type": "VEC2"}, {"bufferView": 1, "byteOffset": 273936, "componentType": 5126, "count": 36, "max": [0.9972001910209656, 0.9840608835220337], "min": [0.07496654987335205, 0.0020151843782514334], "type": "VEC2"}, {"bufferView": 1, "byteOffset": 274224, "componentType": 5126, "count": 36, "max": [0.9972001910209656, 0.9840608835220337], "min": [0.07496654987335205, 0.0020151843782514334], "type": "VEC2"}, {"bufferView": 0, "byteOffset": 201432, "componentType": 5125, "count": 96, "type": "SCALAR"}, {"bufferView": 2, "byteOffset": 300000, "componentType": 5126, "count": 177, "max": [0.7849879264831543, 0.7837935090065002, -0.03890848159790039], "min": [-0.7849738597869873, -0.8023126721382141, -0.14356935024261475], "type": "VEC3"}, {"bufferView": 2, "byteOffset": 302124, "componentType": 5126, "count": 177, "max": [0.8250411152839661, 0.8335250616073608, 0.9820597767829895], "min": [-0.8250426054000854, -0.8335250616073608, -1.0], "type": "VEC3"}, {"bufferView": 3, "byteOffset": 200000, "componentType": 5126, "count": 177, "max": [1.0, 0.8329457640647888, 0.833524227142334, 1.0], "min": [-0.5248214602470398, -0.940509021282196, -0.8335256576538086, 1.0], "type": "VEC4"}, {"bufferView": 1, "byteOffset": 300000, "componentType": 5126, "count": 177, "max": [0.9889753460884094, 0.9972435235977173], "min": [0.007268190383911133, 0.530858039855957], "type": "VEC2"}, {"bufferView": 1, "byteOffset": 301416, "componentType": 5126, "count": 177, "max": [0.9889753460884094, 0.9972435235977173], "min": [0.007268190383911133, 0.530858039855957], "type": "VEC2"}, {"bufferView": 1, "byteOffset": 302832, "componentType": 5126, "count": 177, "max": [0.9889753460884094, 0.9972435235977173], "min": [0.007268190383911133, 0.530858039855957], "type": "VEC2"}, {"bufferView": 0, "byteOffset": 216912, "componentType": 5125, "count": 858, "type": "SCALAR"}, {"bufferView": 2, "byteOffset": 304248, "componentType": 5126, "count": 961, "max": [0.4903583526611328, 0.48613420128822327, 1.8282365798950195], "min": [-0.4903442859649658, -0.5046533942222595, -0.06598830223083496], "type": "VEC3"}, {"bufferView": 2, "byteOffset": 315780, "componentType": 5126, "count": 961, "max": [0.9813876152038574, 0.9914792776107788, 1.0], "min": [-0.9813876152038574, -0.9914792776107788, -0.9872987270355225], "type": "VEC3"}, {"bufferView": 3, "byteOffset": 202832, "componentType": 5126, "count": 961, "max": [1.0, 0.9966471791267395, 0.9996363520622253, 1.0], "min": [-0.9999966621398926, -0.9966472387313843, -0.999636173248291, 1.0], "type": "VEC4"}, {"bufferView": 1, "byteOffset": 304248, "componentType": 5126, "count": 961, "max": [0.998859167098999, 0.9969813227653503], "min": [0.005674853455275297, 0.0034630289301276207], "type": "VEC2"}, {"bufferView": 1, "byteOffset": 311936, "componentType": 5126, "count": 961, "max": [0.998859167098999, 0.9969813227653503], "min": [0.005674853455275297, 0.0034630289301276207], "type": "VEC2"}, {"bufferView": 1, "byteOffset": 319624, "componentType": 5126, "count": 961, "max": [0.998859167098999, 0.9969813227653503], "min": [0.005674853455275297, 0.0034630289301276207], "type": "VEC2"}, {"bufferView": 0, "byteOffset": 220344, "componentType": 5125, "count": 4764, "type": "SCALAR"}, {"bufferView": 2, "byteOffset": 327312, "componentType": 5126, "count": 1341, "max": [0.6134932637214661, 0.5746498703956604, 1.6477727890014648], "min": [-0.6134929060935974, -0.5746498703956604, -0.23117703199386597], "type": "VEC3"}, {"bufferView": 2, "byteOffset": 343404, "componentType": 5126, "count": 1341, "max": [0.9999999403953552, 0.9999999403953552, 1.0], "min": [-0.9999999403953552, -0.9999999403953552, -1.0], "type": "VEC3"}, {"bufferView": 3, "byteOffset": 218208, "componentType": 5126, "count": 1341, "max": [1.0, 1.0, 0.980786144733429, 1.0], "min": [-1.0, -1.0, -0.9807865619659424, 1.0], "type": "VEC4"}, {"bufferView": 1, "byteOffset": 327312, "componentType": 5126, "count": 1341, "max": [0.9982744455337524, 0.9931966066360474], "min": [0.0007882490754127502, 0.0013028457760810852], "type": "VEC2"}, {"bufferView": 1, "byteOffset": 338040, "componentType": 5126, "count": 1341, "max": [0.9982744455337524, 0.9931966066360474], "min": [0.0007882490754127502, 0.0013028457760810852], "type": "VEC2"}, {"bufferView": 1, "byteOffset": 348768, "componentType": 5126, "count": 1341, "max": [0.9982744455337524, 0.9931966066360474], "min": [0.0007882490754127502, 0.0013028457760810852], "type": "VEC2"}, {"bufferView": 0, "byteOffset": 239400, "componentType": 5125, "count": 4908, "type": "SCALAR"}, {"bufferView": 2, "byteOffset": 359496, "componentType": 5126, "count": 512, "max": [0.5912627577781677, 0.5589228272438049, 1.1582586765289307], "min": [-0.5912622809410095, -0.5589227080345154, -0.07121747732162476], "type": "VEC3"}, {"bufferView": 2, "byteOffset": 365640, "componentType": 5126, "count": 512, "max": [0.9238810539245605, 0.9308257102966309, 0.0], "min": [-0.9238804578781128, -0.9308257102966309, 0.0], "type": "VEC3"}, {"bufferView": 3, "byteOffset": 239664, "componentType": 5126, "count": 512, "max": [0.9308258295059204, 0.9238809943199158, 4.275059382052859e-06, 1.0], "min": [-0.9308258295059204, -0.9238805174827576, -2.38941065617837e-05, 1.0], "type": "VEC4"}, {"bufferView": 1, "byteOffset": 359496, "componentType": 5126, "count": 512, "max": [0.9974250793457031, 0.9978318214416504], "min": [0.653978705406189, 0.45364269614219666], "type": "VEC2"}, {"bufferView": 1, "byteOffset": 363592, "componentType": 5126, "count": 512, "max": [0.9974250793457031, 0.9978318214416504], "min": [0.653978705406189, 0.45364269614219666], "type": "VEC2"}, {"bufferView": 1, "byteOffset": 367688, "componentType": 5126, "count": 512, "max": [0.9974250793457031, 0.9978318214416504], "min": [0.653978705406189, 0.45364269614219666], "type": "VEC2"}, {"bufferView": 0, "byteOffset": 259032, "componentType": 5125, "count": 1344, "type": "SCALAR"}, {"bufferView": 2, "byteOffset": 371784, "componentType": 5126, "count": 158, "max": [0.6071397066116333, 0.5742933750152588, 1.748401165008545], "min": [-0.6071393489837646, -0.5693235397338867, 1.648472785949707], "type": "VEC3"}, {"bufferView": 2, "byteOffset": 373680, "componentType": 5126, "count": 158, "max": [0.9348616003990173, 1.0, 0.8795788288116455], "min": [-0.9348586201667786, -1.0, -0.8795828819274902], "type": "VEC3"}, {"bufferView": 3, "byteOffset": 247856, "componentType": 5126, "count": 158, "max": [1.0, 0.939376711845398, 0.940057635307312, 1.0], "min": [-1.0, -0.9391676783561707, -0.9400485157966614, 1.0], "type": "VEC4"}, {"bufferView": 1, "byteOffset": 371784, "componentType": 5126, "count": 158, "max": [0.904810905456543, 1.0006681680679321], "min": [0.1223350316286087, 0.004388000816106796], "type": "VEC2"}, {"bufferView": 1, "byteOffset": 373048, "componentType": 5126, "count": 158, "max": [0.904810905456543, 1.0006681680679321], "min": [0.1223350316286087, 0.004388000816106796], "type": "VEC2"}, {"bufferView": 1, "byteOffset": 374312, "componentType": 5126, "count": 158, "max": [0.904810905456543, 1.0006681680679321], "min": [0.1223350316286087, 0.004388000816106796], "type": "VEC2"}, {"bufferView": 0, "byteOffset": 264408, "componentType": 5125, "count": 552, "type": "SCALAR"}, {"bufferView": 2, "byteOffset": 375576, "componentType": 5126, "count": 412, "max": [0.4624963104724884, 0.5779915452003479, 1.6746783256530762], "min": [-0.4624963402748108, 0.5304858088493347, 1.6253526210784912], "type": "VEC3"}, {"bufferView": 2, "byteOffset": 380520, "componentType": 5126, "count": 412, "max": [1.0, 1.0, 1.0], "min": [-1.0, -0.9995067119598389, -0.9996508955955505], "type": "VEC3"}, {"bufferView": 3, "byteOffset": 250384, "componentType": 5126, "count": 412, "max": [1.0, 0.9992257356643677, 0.9371249675750732, 1.0], "min": [-1.0, -0.9976605772972107, -0.9804783463478088, -1.0], "type": "VEC4"}, {"bufferView": 1, "byteOffset": 375576, "componentType": 5126, "count": 412, "max": [0.9949145913124084, 0.39673614501953125], "min": [0.8368546962738037, 0.006398649886250496], "type": "VEC2"}, {"bufferView": 1, "byteOffset": 378872, "componentType": 5126, "count": 412, "max": [0.9949145913124084, 0.39673614501953125], "min": [0.8368546962738037, 0.006398649886250496], "type": "VEC2"}, {"bufferView": 1, "byteOffset": 382168, "componentType": 5126, "count": 412, "max": [0.9949145913124084, 0.39673614501953125], "min": [0.8368546962738037, 0.006398649886250496], "type": "VEC2"}, {"bufferView": 0, "byteOffset": 266616, "componentType": 5125, "count": 1476, "type": "SCALAR"}, {"bufferView": 2, "byteOffset": 385464, "componentType": 5126, "count": 6481, "max": [0.4023057520389557, 0.21211449801921844, 2.0602970123291016], "min": [-0.4023056626319885, -0.21211449801921844, -0.18364311754703522], "type": "VEC3"}, {"bufferView": 2, "byteOffset": 463236, "componentType": 5126, "count": 6481, "max": [0.9999985694885254, 0.9999988079071045, 1.0], "min": [-0.9999985098838806, -1.0, -1.0], "type": "VEC3"}, {"bufferView": 3, "byteOffset": 256976, "componentType": 5126, "count": 6481, "max": [1.0, 0.9999839067459106, 0.9942585825920105, 1.0], "min": [-0.99995356798172, -1.0, -1.0, 1.0], "type": "VEC4"}, {"bufferView": 1, "byteOffset": 385464, "componentType": 5126, "count": 6481, "max": [0.9950727224349976, 0.9950727224349976], "min": [0.0007935762405395508, 0.004927337169647217], "type": "VEC2"}, {"bufferView": 1, "byteOffset": 437312, "componentType": 5126, "count": 6481, "max": [0.9950727224349976, 0.9950727224349976], "min": [0.0007935762405395508, 0.004927337169647217], "type": "VEC2"}, {"bufferView": 1, "byteOffset": 489160, "componentType": 5126, "count": 6481, "max": [0.9950727224349976, 0.9950727224349976], "min": [0.0007935762405395508, 0.004927337169647217], "type": "VEC2"}, {"bufferView": 0, "byteOffset": 272520, "componentType": 5125, "count": 29226, "type": "SCALAR"}, {"bufferView": 2, "byteOffset": 541008, "componentType": 5126, "count": 853, "max": [0.604865550994873, 0.6487309336662292, 1.162474513053894], "min": [-0.5626527070999146, -0.4287033975124359, -0.21779777109622955], "type": "VEC3"}, {"bufferView": 2, "byteOffset": 551244, "componentType": 5126, "count": 853, "max": [0.9986883401870728, 0.9951258301734924, 0.9998509287834167], "min": [-0.9966462850570679, -0.9997743368148804, -0.9999908804893494], "type": "VEC3"}, {"bufferView": 3, "byteOffset": 360672, "componentType": 5126, "count": 853, "max": [0.9995027184486389, 0.9960587024688721, 0.897606372833252, 1.0], "min": [-0.9976344704627991, -0.974372148513794, -0.9478794932365417, -1.0], "type": "VEC4"}, {"bufferView": 1, "byteOffset": 541008, "componentType": 5126, "count": 853, "max": [0.9994262456893921, 0.9994261860847473], "min": [0.0014125023735687137, 0.0012779284734278917], "type": "VEC2"}, {"bufferView": 1, "byteOffset": 547832, "componentType": 5126, "count": 853, "max": [0.9994262456893921, 0.9994261860847473], "min": [0.0014125023735687137, 0.0012779284734278917], "type": "VEC2"}, {"bufferView": 1, "byteOffset": 554656, "componentType": 5126, "count": 853, "max": [0.9994262456893921, 0.9994261860847473], "min": [0.0014125023735687137, 0.0012779284734278917], "type": "VEC2"}, {"bufferView": 0, "byteOffset": 389424, "componentType": 5125, "count": 4608, "type": "SCALAR"}, {"bufferView": 2, "byteOffset": 561480, "componentType": 5126, "count": 689, "max": [0.5780621767044067, 0.5451363325119019, 1.5241273641586304], "min": [-0.5926084518432617, -0.6586520075798035, -0.11601957678794861], "type": "VEC3"}, {"bufferView": 2, "byteOffset": 569748, "componentType": 5126, "count": 689, "max": [0.9977841377258301, 0.9937381744384766, 0.9992457032203674], "min": [-0.9974913001060486, -0.9996528029441833, -0.9999263882637024], "type": "VEC3"}, {"bufferView": 3, "byteOffset": 374320, "componentType": 5126, "count": 689, "max": [0.9999959468841553, 0.9927594661712646, 0.9148120284080505, 1.0], "min": [-0.9983440041542053, -0.6672212481498718, -0.901107132434845, 1.0], "type": "VEC4"}, {"bufferView": 1, "byteOffset": 561480, "componentType": 5126, "count": 689, "max": [0.9993690252304077, 0.9979373812675476], "min": [0.0012888518394902349, 0.0016755767865106463], "type": "VEC2"}, {"bufferView": 1, "byteOffset": 566992, "componentType": 5126, "count": 689, "max": [0.9993690252304077, 0.9979373812675476], "min": [0.0012888518394902349, 0.0016755767865106463], "type": "VEC2"}, {"bufferView": 1, "byteOffset": 572504, "componentType": 5126, "count": 689, "max": [0.9993690252304077, 0.9979373812675476], "min": [0.0012888518394902349, 0.0016755767865106463], "type": "VEC2"}, {"bufferView": 0, "byteOffset": 407856, "componentType": 5125, "count": 3696, "type": "SCALAR"}], "asset": {"extras": {"author": "vmatthew (https://sketchfab.com/vmatthew)", "license": "CC-BY-4.0 (http://creativecommons.org/licenses/by/4.0/)", "source": "https://sketchfab.com/3d-models/street-asset-pack-f3eb47d02e2e4ab290e66752fa354b48", "title": "Street Asset Pack"}, "generator": "Sketchfab-15.36.0", "version": "2.0"}, "bufferViews": [{"buffer": 0, "byteLength": 454080, "name": "floatBufferViews", "target": 34963, "byteOffset": 0}, {"buffer": 0, "byteLength": 623400, "byteOffset": 454080, "byteStride": 8, "name": "floatBufferViews", "target": 34962}, {"buffer": 0, "byteLength": 623400, "byteOffset": 1077480, "byteStride": 12, "name": "floatBufferViews", "target": 34962}, {"buffer": 0, "byteLength": 415600, "byteOffset": 1700880, "byteStride": 16, "name": "floatBufferViews", "target": 34962}], "buffers": [{"uri": "scene.bin", "byteLength": 2116480}], "extensionsUsed": ["KHR_materials_specular"], "images": [{"uri": "textures/Concrete_Barrier_baseColor.jpg"}, {"uri": "textures/Concrete_Barrier_metallicRoughness.jpg"}, {"uri": "textures/Concrete_Barrier_normal.jpg"}, {"uri": "textures/Barrier_Metal_baseColor.jpg"}, {"uri": "textures/Barrier_Metal_metallicRoughness.jpg"}, {"uri": "textures/Barrier_Metal_normal.jpg"}, {"uri": "textures/Metal_Barrier1_baseColor.jpg"}, {"uri": "textures/Metal_Barrier1_metallicRoughness.jpg"}, {"uri": "textures/Metal_Barrier1_normal.jpg"}, {"uri": "textures/Metal_Barrier1_Damaged_baseColor.jpg"}, {"uri": "textures/Metal_Barrier1_Damaged_metallicRoughness.jpg"}, {"uri": "textures/Metal_Barrier1_Damaged_normal.jpg"}, {"uri": "textures/Metal_Barrier2_baseColor.jpg"}, {"uri": "textures/Metal_Barrier2_metallicRoughness.jpg"}, {"uri": "textures/Metal_Barrier2_normal.jpg"}, {"uri": "textures/Metal_Barrier2_Damaged_baseColor.jpg"}, {"uri": "textures/Metal_Barrier2_Damaged_metallicRoughness.jpg"}, {"uri": "textures/Metal_Barrier2_Damaged_normal.jpg"}, {"uri": "textures/Cone_baseColor.jpg"}, {"uri": "textures/Cone_metallicRoughness.jpg"}, {"uri": "textures/Cone_normal.jpg"}, {"uri": "textures/Cone_Base_baseColor.jpg"}, {"uri": "textures/Cone_Base_metallicRoughness.jpg"}, {"uri": "textures/Cone_Base_normal.jpg"}, {"uri": "textures/Sign_Pole3_baseColor.jpg"}, {"uri": "textures/Sign_Pole3_metallicRoughness.jpg"}, {"uri": "textures/Sign_Pole3_normal.jpg"}, {"uri": "textures/Sign_Support3_baseColor.jpg"}, {"uri": "textures/Sign_Support3_metallicRoughness.jpg"}, {"uri": "textures/Sign_Support3_normal.jpg"}, {"uri": "textures/Support_Screws3_baseColor.jpg"}, {"uri": "textures/Support_Screws3_metallicRoughness.jpg"}, {"uri": "textures/Support_Screws3_normal.jpg"}, {"uri": "textures/Stop_Sign_baseColor.jpg"}, {"uri": "textures/Stop_Sign_metallicRoughness.jpg"}, {"uri": "textures/Stop_Sign_normal.jpg"}, {"uri": "textures/Barrel_Base_baseColor.jpg"}, {"uri": "textures/Barrel_Base_metallicRoughness.jpg"}, {"uri": "textures/Barrel_Base_normal.jpg"}, {"uri": "textures/Barrel_baseColor.jpg"}, {"uri": "textures/Barrel_metallicRoughness.jpg"}, {"uri": "textures/Barrel_normal.jpg"}, {"uri": "textures/material_baseColor.jpg"}, {"uri": "textures/material_metallicRoughness.jpg"}, {"uri": "textures/material_normal.jpg"}, {"uri": "textures/Boards_baseColor.jpg"}, {"uri": "textures/Boards_metallicRoughness.jpg"}, {"uri": "textures/Boards_normal.jpg"}, {"uri": "textures/material_32_baseColor.jpg"}, {"uri": "textures/material_32_metallicRoughness.jpg"}, {"uri": "textures/material_32_normal.jpg"}, {"uri": "textures/Hinge_baseColor.jpg"}, {"uri": "textures/Hinge_metallicRoughness.jpg"}, {"uri": "textures/Hinge_normal.jpg"}, {"uri": "textures/Hydrant_baseColor.jpg"}, {"uri": "textures/Hydrant_metallicRoughness.jpg"}, {"uri": "textures/Hydrant_normal.jpg"}, {"uri": "textures/trash1_baseColor.jpg"}, {"uri": "textures/trash1_metallicRoughness.jpg"}, {"uri": "textures/trash1_normal.jpg"}, {"uri": "textures/trash2_baseColor.jpg"}, {"uri": "textures/trash2_metallicRoughness.jpg"}, {"uri": "textures/trash2_normal.jpg"}], "materials": [{"doubleSided": true, "name": "Concrete_Barrier", "normalTexture": {"index": 2}, "pbrMetallicRoughness": {"baseColorTexture": {"index": 0}, "metallicFactor": 0.0, "metallicRoughnessTexture": {"index": 1}}}, {"doubleSided": true, "name": "Barrier_Metal", "normalTexture": {"index": 5}, "pbrMetallicRoughness": {"baseColorTexture": {"index": 3}, "metallicRoughnessTexture": {"index": 4}}}, {"doubleSided": true, "name": "Metal_Barrier1", "normalTexture": {"index": 8}, "pbrMetallicRoughness": {"baseColorTexture": {"index": 6}, "metallicRoughnessTexture": {"index": 7}}}, {"doubleSided": true, "name": "Metal_Barrier1_Damaged", "normalTexture": {"index": 11}, "pbrMetallicRoughness": {"baseColorTexture": {"index": 9}, "metallicRoughnessTexture": {"index": 10}}}, {"doubleSided": true, "extensions": {"KHR_materials_specular": {"specularColorFactor": [1.0, 1.0, 1.0], "specularFactor": 0.0}}, "name": "Metal_Barrier2", "normalTexture": {"index": 14}, "pbrMetallicRoughness": {"baseColorTexture": {"index": 12}, "metallicRoughnessTexture": {"index": 13}}}, {"doubleSided": true, "name": "Metal_Barrier2_Damaged", "normalTexture": {"index": 17}, "pbrMetallicRoughness": {"baseColorTexture": {"index": 15}, "metallicRoughnessTexture": {"index": 16}}}, {"doubleSided": true, "name": "Cone", "normalTexture": {"index": 20}, "pbrMetallicRoughness": {"baseColorTexture": {"index": 18}, "metallicFactor": 0.0, "metallicRoughnessTexture": {"index": 19}}}, {"doubleSided": true, "name": "Cone_Base", "normalTexture": {"index": 23}, "pbrMetallicRoughness": {"baseColorTexture": {"index": 21}, "metallicFactor": 0.0, "metallicRoughnessTexture": {"index": 22}}}, {"doubleSided": true, "name": "Sign_Pole3", "normalTexture": {"index": 26}, "pbrMetallicRoughness": {"baseColorTexture": {"index": 24}, "metallicRoughnessTexture": {"index": 25}}}, {"doubleSided": true, "name": "Sign_Support3", "normalTexture": {"index": 29}, "pbrMetallicRoughness": {"baseColorTexture": {"index": 27}, "metallicRoughnessTexture": {"index": 28}}}, {"doubleSided": true, "name": "Support_Screws3", "normalTexture": {"index": 32}, "pbrMetallicRoughness": {"baseColorTexture": {"index": 30}, "metallicRoughnessTexture": {"index": 31}}}, {"doubleSided": true, "name": "Stop_Sign", "normalTexture": {"index": 35}, "pbrMetallicRoughness": {"baseColorTexture": {"index": 33}, "metallicFactor": 0.0, "metallicRoughnessTexture": {"index": 34}}}, {"doubleSided": true, "name": "Barrel_Base", "normalTexture": {"index": 38}, "pbrMetallicRoughness": {"baseColorTexture": {"index": 36}, "metallicFactor": 0.0, "metallicRoughnessTexture": {"index": 37}}}, {"doubleSided": true, "name": "Barrel", "normalTexture": {"index": 41}, "pbrMetallicRoughness": {"baseColorTexture": {"index": 39}, "metallicFactor": 0.0, "metallicRoughnessTexture": {"index": 40}}}, {"doubleSided": true, "name": "material", "normalTexture": {"index": 44}, "pbrMetallicRoughness": {"baseColorTexture": {"index": 42}, "metallicRoughnessTexture": {"index": 43}}}, {"doubleSided": true, "name": "Boards", "normalTexture": {"index": 47}, "pbrMetallicRoughness": {"baseColorTexture": {"index": 45}, "metallicFactor": 0.0, "metallicRoughnessTexture": {"index": 46}}}, {"doubleSided": true, "name": "material_32", "normalTexture": {"index": 50}, "pbrMetallicRoughness": {"baseColorTexture": {"index": 48}, "metallicRoughnessTexture": {"index": 49}}}, {"doubleSided": true, "name": "Hinge", "normalTexture": {"index": 53}, "pbrMetallicRoughness": {"baseColorTexture": {"index": 51}, "metallicRoughnessTexture": {"index": 52}}}, {"doubleSided": true, "name": "Hydrant", "normalTexture": {"index": 56}, "pbrMetallicRoughness": {"baseColorTexture": {"index": 54}, "metallicRoughnessTexture": {"index": 55}}}, {"doubleSided": true, "name": "trash1", "normalTexture": {"index": 59}, "pbrMetallicRoughness": {"baseColorTexture": {"index": 57}, "metallicFactor": 0.0, "metallicRoughnessTexture": {"index": 58}}}, {"doubleSided": true, "name": "trash2", "normalTexture": {"index": 62}, "pbrMetallicRoughness": {"baseColorTexture": {"index": 60}, "metallicFactor": 0.0, "metallicRoughnessTexture": {"index": 61}}}], "meshes": [{"name": "concrete_barrier_Concrete_Barrier_0", "primitives": [{"attributes": {"NORMAL": 1, "POSITION": 0, "TANGENT": 2, "TEXCOORD_0": 3, "TEXCOORD_1": 4, "TEXCOORD_2": 5}, "indices": 6, "material": 0, "mode": 4}]}, {"name": "concrete_barrier_Barrier_Metal_0", "primitives": [{"attributes": {"NORMAL": 8, "POSITION": 7, "TANGENT": 9, "TEXCOORD_0": 10, "TEXCOORD_1": 11, "TEXCOORD_2": 12}, "indices": 13, "material": 1, "mode": 4}]}, {"name": "metal_barrier1_Metal_Barrier1_0", "primitives": [{"attributes": {"NORMAL": 15, "POSITION": 14, "TANGENT": 16, "TEXCOORD_0": 17, "TEXCOORD_1": 18, "TEXCOORD_2": 19}, "indices": 20, "material": 2, "mode": 4}]}, {"name": "metal_barrier_damaged1_Metal_Barrier1_Damaged_0", "primitives": [{"attributes": {"NORMAL": 22, "POSITION": 21, "TANGENT": 23, "TEXCOORD_0": 24, "TEXCOORD_1": 25, "TEXCOORD_2": 26}, "indices": 27, "material": 3, "mode": 4}]}, {"name": "metal_barrier2_Metal_Barrier2_0", "primitives": [{"attributes": {"NORMAL": 29, "POSITION": 28, "TANGENT": 30, "TEXCOORD_0": 31, "TEXCOORD_1": 32, "TEXCOORD_2": 33}, "indices": 34, "material": 4, "mode": 4}]}, {"name": "metal_barrier_damaged2_Metal_Barrier2_Damaged_0", "primitives": [{"attributes": {"NORMAL": 36, "POSITION": 35, "TANGENT": 37, "TEXCOORD_0": 38, "TEXCOORD_1": 39, "TEXCOORD_2": 40}, "indices": 41, "material": 5, "mode": 4}]}, {"name": "Cone_Cone_0", "primitives": [{"attributes": {"NORMAL": 43, "POSITION": 42, "TANGENT": 44, "TEXCOORD_0": 45, "TEXCOORD_1": 46, "TEXCOORD_2": 47}, "indices": 48, "material": 6, "mode": 4}]}, {"name": "Cone_Cone_Base_0", "primitives": [{"attributes": {"NORMAL": 50, "POSITION": 49, "TANGENT": 51, "TEXCOORD_0": 52, "TEXCOORD_1": 53, "TEXCOORD_2": 54}, "indices": 55, "material": 7, "mode": 4}]}, {"name": "stop_Sign_Pole3_0", "primitives": [{"attributes": {"NORMAL": 57, "POSITION": 56, "TANGENT": 58, "TEXCOORD_0": 59, "TEXCOORD_1": 60, "TEXCOORD_2": 61}, "indices": 62, "material": 8, "mode": 4}]}, {"name": "stop_Sign_Support3_0", "primitives": [{"attributes": {"NORMAL": 64, "POSITION": 63, "TANGENT": 65, "TEXCOORD_0": 66, "TEXCOORD_1": 67, "TEXCOORD_2": 68}, "indices": 69, "material": 9, "mode": 4}]}, {"name": "stop_Support_Screws3_0", "primitives": [{"attributes": {"NORMAL": 71, "POSITION": 70, "TANGENT": 72, "TEXCOORD_0": 73, "TEXCOORD_1": 74, "TEXCOORD_2": 75}, "indices": 76, "material": 10, "mode": 4}]}, {"name": "stop_Stop_Sign_0", "primitives": [{"attributes": {"NORMAL": 78, "POSITION": 77, "TANGENT": 79, "TEXCOORD_0": 80, "TEXCOORD_1": 81, "TEXCOORD_2": 82}, "indices": 83, "material": 11, "mode": 4}]}, {"name": "Barrel_Barrel_Base_0", "primitives": [{"attributes": {"NORMAL": 85, "POSITION": 84, "TANGENT": 86, "TEXCOORD_0": 87, "TEXCOORD_1": 88, "TEXCOORD_2": 89}, "indices": 90, "material": 12, "mode": 4}]}, {"name": "Barrel_Barrel_0", "primitives": [{"attributes": {"NORMAL": 92, "POSITION": 91, "TANGENT": 93, "TEXCOORD_0": 94, "TEXCOORD_1": 95, "TEXCOORD_2": 96}, "indices": 97, "material": 13, "mode": 4}]}, {"name": "Bin_Bin_0", "primitives": [{"attributes": {"NORMAL": 99, "POSITION": 98, "TANGENT": 100, "TEXCOORD_0": 101, "TEXCOORD_1": 102, "TEXCOORD_2": 103}, "indices": 104, "material": 14, "mode": 4}]}, {"name": "Bin_Boards_0", "primitives": [{"attributes": {"NORMAL": 106, "POSITION": 105, "TANGENT": 107, "TEXCOORD_0": 108, "TEXCOORD_1": 109, "TEXCOORD_2": 110}, "indices": 111, "material": 15, "mode": 4}]}, {"name": "Bin_Lid_0", "primitives": [{"attributes": {"NORMAL": 113, "POSITION": 112, "TANGENT": 114, "TEXCOORD_0": 115, "TEXCOORD_1": 116, "TEXCOORD_2": 117}, "indices": 118, "material": 16, "mode": 4}]}, {"name": "Bin_Hinge_0", "primitives": [{"attributes": {"NORMAL": 120, "POSITION": 119, "TANGENT": 121, "TEXCOORD_0": 122, "TEXCOORD_1": 123, "TEXCOORD_2": 124}, "indices": 125, "material": 17, "mode": 4}]}, {"name": "Hydrant_Hydrant_0", "primitives": [{"attributes": {"NORMAL": 127, "POSITION": 126, "TANGENT": 128, "TEXCOORD_0": 129, "TEXCOORD_1": 130, "TEXCOORD_2": 131}, "indices": 132, "material": 18, "mode": 4}]}, {"name": "trashbag_trash1_0", "primitives": [{"attributes": {"NORMAL": 134, "POSITION": 133, "TANGENT": 135, "TEXCOORD_0": 136, "TEXCOORD_1": 137, "TEXCOORD_2": 138}, "indices": 139, "material": 19, "mode": 4}]}, {"name": "trashbag2_trash2_0", "primitives": [{"attributes": {"NORMAL": 141, "POSITION": 140, "TANGENT": 142, "TEXCOORD_0": 143, "TEXCOORD_1": 144, "TEXCOORD_2": 145}, "indices": 146, "material": 20, "mode": 4}]}], "nodes": [{"children": [1], "matrix": [1.0, 0.0, 0.0, 0.0, 0.0, 2.220446049250313e-16, -1.0, 0.0, 0.0, 1.0, 2.220446049250313e-16, 0.0, 0.0, 0.0, 0.0, 1.0], "name": "Sketchfab_model"}, {"children": [2], "matrix": [0.009999999776482582, 0.0, 0.0, 0.0, 0.0, 0.0, 0.009999999776482582, 0.0, 0.0, -0.009999999776482582, 0.0, 0.0, 0.0, 0.0, 0.0, 1.0], "name": "01541d5c3ccc4e2283d0f0cb0bb5356a.fbx"}, {"children": [3, 6, 8, 10, 12, 14, 17, 22, 25, 30, 32, 34, 36], "name": "RootNode"}, {"children": [4, 5], "matrix": [96.73757715329288, 5.551115546642256e-15, 25.33461451038231, 0.0, 25.334614510382284, -4.371139339800917e-06, -96.73757715329278, 0.0, 1.1074111294639977e-06, 99.99999999999991, -4.2285336565583975e-06, 0.0, 238.9072723388672, 28.509414672851562, -84.22787475585938, 1.0], "name": "concrete_barrier"}, {"mesh": 0, "name": "concrete_barrier_Concrete_Barrier_0"}, {"mesh": 1, "name": "concrete_barrier_Barrier_Metal_0"}, {"children": [7], "matrix": [99.45511724733738, 0.0, -10.424880212238607, 0.0, -10.424880212238579, 7.549789361663157e-06, -99.45511724733711, 0.0, 7.870566177958782e-07, 99.99999999999972, 7.508653010468436e-06, 0.0, -217.2507781982422, 45.48788833618164, -72.39096069335938, 1.0], "name": "metal_barrier1"}, {"mesh": 2, "name": "metal_barrier1_Metal_Barrier1_0"}, {"children": [9], "matrix": [99.70941134604838, 1.3877787807814457e-15, -7.617958323889515, 0.0, -7.617958323889508, -4.371138984105016e-06, -99.7094113460483, 0.0, -3.329915468364142e-07, 99.99999999999991, -4.358436966889201e-06, 0.0, -390.6273498535156, 45.50810623168945, -149.2459259033203, 1.0], "name": "metal_barrier_damaged1"}, {"mesh": 3, "name": "metal_barrier_damaged1_Metal_Barrier1_Damaged_0"}, {"children": [11], "matrix": [91.54886908389476, 2.775557773321128e-15, 40.23438946149008, 0.0, 40.23438946148955, -1.6292069204373744e-05, -91.54886908389354, 0.0, 6.555013568054768e-06, 99.99999999999868, -1.4915202828369445e-05, 0.0, -389.728515625, 46.569305419921875, 131.21591186523438, 1.0], "name": "metal_barrier2"}, {"mesh": 4, "name": "metal_barrier2_Metal_Barrier2_0"}, {"children": [13], "matrix": [93.05364420711196, 1.5709355644612197e-06, 36.61990952879825, 0.0, 36.61990952879803, -1.5673847822862738e-05, -93.05364420711072, 0.0, 4.277936757612899e-06, 99.99999999999875, -1.5160364075228472e-05, 0.0, 280.2392578125, 50.58433532714844, -210.4428253173828, 1.0], "name": "metal_barrier_damaged2"}, {"mesh": 5, "name": "metal_barrier_damaged2_Metal_Barrier2_Damaged_0"}, {"children": [15, 16], "matrix": [-94.10910335455208, 8.326672684688674e-15, 33.81533181564592, 0.0, 33.815331815645834, 7.549789970973109e-06, 94.1091033545518, 0.0, -2.552986519410716e-06, 99.99999999999972, -7.105039645516342e-06, 0.0, 129.6109161376953, 13.829177856445312, 184.96697998046875, 1.0], "name": "Cone"}, {"mesh": 6, "name": "Cone_Cone_0"}, {"mesh": 7, "name": "Cone_Cone_Base_0"}, {"children": [18, 19, 20, 21], "matrix": [100.0, 0.0, 0.0, 0.0, -0.0, -1.629206793918314e-05, -99.99999999999868, 0.0, 0.0, 99.99999999999868, -1.629206793918314e-05, 0.0, -461.1941223144531, 25.966846466064453, -210.2631072998047, 1.0], "name": "stop"}, {"mesh": 8, "name": "stop_Sign_Pole3_0"}, {"mesh": 9, "name": "stop_Sign_Support3_0"}, {"mesh": 10, "name": "stop_Support_Screws3_0"}, {"mesh": 11, "name": "stop_Stop_Sign_0"}, {"children": [23, 24], "matrix": [100.0, 0.0, 0.0, 0.0, 0.0, -1.629206793918314e-05, -99.99999999999868, 0.0, 0.0, 99.99999999999868, -1.629206793918314e-05, 0.0, 227.29718017578125, 14.360105514526367, 78.10651397705078, 1.0], "name": "Barrel"}, {"mesh": 12, "name": "Barrel_Barrel_Base_0"}, {"mesh": 13, "name": "Barrel_Barrel_0"}, {"children": [26, 27, 28, 29], "matrix": [100.0, 0.0, 0.0, 0.0, 0.0, -1.629206793918314e-05, -99.99999999999868, 0.0, 0.0, 99.99999999999868, -1.629206793918314e-05, 0.0, 492.6776428222656, 23.11770248413086, 52.10066604614258, 1.0], "name": "Bin"}, {"mesh": 14, "name": "Bin_Bin_0"}, {"mesh": 15, "name": "Bin_Boards_0"}, {"mesh": 16, "name": "Bin_Lid_0"}, {"mesh": 17, "name": "Bin_Hinge_0"}, {"children": [31], "matrix": [96.01348327364049, -2.7755573498046545e-15, 27.953702863547637, 0.0, 27.953702863547257, -1.6292066673992542e-05, -96.0134832736392, 0.0, 4.554236612830387e-06, 99.99999999999866, -1.5642583117703168e-05, 0.0, 484.3642578125, 18.36431121826172, 145.39129638671875, 1.0], "name": "Hydrant"}, {"mesh": 18, "name": "Hydrant_Hydrant_0"}, {"children": [33], "matrix": [63.438899744925145, 5.551115123125783e-15, 77.30139713584313, 0.0, 77.3013971358421, -1.6292067961387602e-05, -63.43889974492431, 0.0, 1.2593996157050924e-05, 99.99999999999869, -1.0335508671133198e-05, 0.0, 244.1650390625, 21.77977752685547, 247.2648162841797, 1.0], "name": "trashbag"}, {"mesh": 19, "name": "trashbag_trash1_0"}, {"children": [35], "matrix": [98.30416940980426, -7.761958686902659e-07, 18.338219015174378, 0.0, 18.338219015174325, -4.5159350037238255e-06, -98.30416940980417, 0.0, 1.5911749501329453e-06, 99.99999999999989, -4.29701187965037e-06, 0.0, 378.7541809082031, 11.601957321166992, 195.27093505859375, 1.0], "name": "trashbag2"}, {"mesh": 20, "name": "trashbag2_trash2_0"}, {"matrix": [95.72696810306857, 1.232106164317237e-06, 28.919674579671405, 0.0, 28.91967457967143, -3.998912512237496e-06, -95.72696810306847, 0.0, -2.2985388592466904e-08, 99.9999999999999, -4.184358792791443e-06, 0.0, -14.058661460876465, 16.348562240600586, 156.5138397216797, 1.0], "name": "Cube.001"}], "samplers": [{"magFilter": 9729, "minFilter": 9987, "wrapS": 10497, "wrapT": 10497}], "scene": 0, "scenes": [{"name": "Sketchfab_Scene", "nodes": [0]}], "textures": [{"sampler": 0, "source": 0}, {"sampler": 0, "source": 1}, {"sampler": 0, "source": 2}, {"sampler": 0, "source": 3}, {"sampler": 0, "source": 4}, {"sampler": 0, "source": 5}, {"sampler": 0, "source": 6}, {"sampler": 0, "source": 7}, {"sampler": 0, "source": 8}, {"sampler": 0, "source": 9}, {"sampler": 0, "source": 10}, {"sampler": 0, "source": 11}, {"sampler": 0, "source": 12}, {"sampler": 0, "source": 13}, {"sampler": 0, "source": 14}, {"sampler": 0, "source": 15}, {"sampler": 0, "source": 16}, {"sampler": 0, "source": 17}, {"sampler": 0, "source": 18}, {"sampler": 0, "source": 19}, {"sampler": 0, "source": 20}, {"sampler": 0, "source": 21}, {"sampler": 0, "source": 22}, {"sampler": 0, "source": 23}, {"sampler": 0, "source": 24}, {"sampler": 0, "source": 25}, {"sampler": 0, "source": 26}, {"sampler": 0, "source": 27}, {"sampler": 0, "source": 28}, {"sampler": 0, "source": 29}, {"sampler": 0, "source": 30}, {"sampler": 0, "source": 31}, {"sampler": 0, "source": 32}, {"sampler": 0, "source": 33}, {"sampler": 0, "source": 34}, {"sampler": 0, "source": 35}, {"sampler": 0, "source": 36}, {"sampler": 0, "source": 37}, {"sampler": 0, "source": 38}, {"sampler": 0, "source": 39}, {"sampler": 0, "source": 40}, {"sampler": 0, "source": 41}, {"sampler": 0, "source": 42}, {"sampler": 0, "source": 43}, {"sampler": 0, "source": 44}, {"sampler": 0, "source": 45}, {"sampler": 0, "source": 46}, {"sampler": 0, "source": 47}, {"sampler": 0, "source": 48}, {"sampler": 0, "source": 49}, {"sampler": 0, "source": 50}, {"sampler": 0, "source": 51}, {"sampler": 0, "source": 52}, {"sampler": 0, "source": 53}, {"sampler": 0, "source": 54}, {"sampler": 0, "source": 55}, {"sampler": 0, "source": 56}, {"sampler": 0, "source": 57}, {"sampler": 0, "source": 58}, {"sampler": 0, "source": 59}, {"sampler": 0, "source": 60}, {"sampler": 0, "source": 61}, {"sampler": 0, "source": 62}]}