{"accessors": [{"bufferView": 2, "componentType": 5126, "count": 4824, "max": [226.4237060546875, 686.54833984375, 159.52536010742188], "min": [-249.9439697265625, -120.96753692626953, -257.9043884277344], "type": "VEC3"}, {"bufferView": 2, "byteOffset": 57888, "componentType": 5126, "count": 4824, "max": [0.9999504685401917, 0.9998440742492676, 0.9993531107902527], "min": [-0.9999365210533142, -0.9996328353881836, -0.9999823570251465], "type": "VEC3"}, {"bufferView": 3, "componentType": 5126, "count": 4824, "max": [0.9994620680809021, 0.9995811581611633, 0.9998665452003479, 1.0], "min": [-0.9998448491096497, -0.9999436140060425, -0.9997700452804565, -1.0], "type": "VEC4"}, {"bufferView": 1, "componentType": 5126, "count": 4824, "max": [0.9985399842262268, 8.991990089416504], "min": [0.00039000000106170774, 1.0], "type": "VEC2"}, {"bufferView": 0, "componentType": 5125, "count": 23379, "type": "SCALAR"}, {"bufferView": 2, "byteOffset": 115776, "componentType": 5126, "count": 18, "max": [102.23578643798828, 169.3346405029297, -3.1009299755096436], "min": [-115.65508270263672, -10.814860343933105, -39.31740188598633], "type": "VEC3"}, {"bufferView": 2, "byteOffset": 115992, "componentType": 5126, "count": 18, "max": [0.6815786361694336, 0.6455091834068298, 0.14786970615386963], "min": [-0.5982892513275146, -0.7166485786437988, -0.47472938895225525], "type": "VEC3"}, {"bufferView": 3, "byteOffset": 77184, "componentType": 5126, "count": 18, "max": [0.5441604256629944, 0.6315014958381653, 0.8643720149993896, 1.0], "min": [-0.7567333579063416, -0.260392427444458, 0.5523544549942017, 1.0], "type": "VEC4"}, {"bufferView": 1, "byteOffset": 38592, "componentType": 5126, "count": 18, "max": [1.0, 1.0], "min": [0.0, 0.0], "type": "VEC2"}, {"bufferView": 0, "byteOffset": 93516, "componentType": 5125, "count": 42, "type": "SCALAR"}, {"bufferView": 2, "byteOffset": 116208, "componentType": 5126, "count": 600, "max": [263.216796875, 736.9907836914062, 131.4442596435547], "min": [-307.8868408203125, -4.737070083618164, -305.5709228515625], "type": "VEC3"}, {"bufferView": 2, "byteOffset": 123408, "componentType": 5126, "count": 600, "max": [0.9923821687698364, 0.9983089566230774, 0.9998869299888611], "min": [-0.9923821687698364, -0.9983089566230774, -0.9998869299888611], "type": "VEC3"}, {"bufferView": 3, "byteOffset": 77472, "componentType": 5126, "count": 600, "max": [0.9982005953788757, 0.999557614326477, 0.9856213331222534, 1.0], "min": [-0.9978666305541992, -0.8073524832725525, -0.999285876750946, -1.0], "type": "VEC4"}, {"bufferView": 1, "byteOffset": 38736, "componentType": 5126, "count": 600, "max": [0.9986100196838379, 0.9985100030899048], "min": [0.0015899999998509884, 0.0014900000533089042], "type": "VEC2"}, {"bufferView": 0, "byteOffset": 93684, "componentType": 5125, "count": 900, "type": "SCALAR"}], "asset": {"extras": {"author": "evolveduk (https://sketchfab.com/evolveduk)", "license": "CC-BY-4.0 (http://creativecommons.org/licenses/by/4.0/)", "source": "https://sketchfab.com/3d-models/old-tree-3cb4d59eb4844dc4802480e9ee53785e", "title": "Old tree"}, "generator": "Sketchfab-16.15.0", "version": "2.0"}, "bufferViews": [{"buffer": 0, "byteLength": 97284, "name": "floatBufferViews", "target": 34963, "byteOffset": 0}, {"buffer": 0, "byteLength": 43536, "byteOffset": 97284, "byteStride": 8, "name": "floatBufferViews", "target": 34962}, {"buffer": 0, "byteLength": 130608, "byteOffset": 140820, "byteStride": 12, "name": "floatBufferViews", "target": 34962}, {"buffer": 0, "byteLength": 87072, "byteOffset": 271428, "byteStride": 16, "name": "floatBufferViews", "target": 34962}], "buffers": [{"uri": "scene.bin", "byteLength": 358500}], "images": [{"uri": "textures/Tree_0Mat_baseColor.jpg"}, {"uri": "textures/Tree_0Mat_metallicRoughness.jpg"}, {"uri": "textures/Tree_0Mat_normal.jpg"}, {"uri": "textures/Tree_1Mat_baseColor.jpg"}, {"uri": "textures/Tree_1Mat_metallicRoughness.jpg"}, {"uri": "textures/Tree_1Mat_normal.jpg"}, {"uri": "textures/Tree_2Mat_baseColor.png"}, {"uri": "textures/Tree_2Mat_metallicRoughness.jpg"}, {"uri": "textures/Tree_2Mat_normal.jpg"}], "materials": [{"name": "Tree_0Mat", "normalTexture": {"index": 2}, "pbrMetallicRoughness": {"baseColorTexture": {"index": 0}, "metallicFactor": 0.0, "metallicRoughnessTexture": {"index": 1}}}, {"name": "Tree_1Mat", "normalTexture": {"index": 5}, "pbrMetallicRoughness": {"baseColorTexture": {"index": 3}, "metallicFactor": 0.0, "metallicRoughnessTexture": {"index": 4}}}, {"alphaCutoff": 0.2151264382, "alphaMode": "MASK", "doubleSided": true, "name": "Tree_2Mat", "normalTexture": {"index": 8}, "pbrMetallicRoughness": {"baseColorTexture": {"index": 6}, "metallicFactor": 0.0, "metallicRoughnessTexture": {"index": 7}}}], "meshes": [{"name": "Tree_0_Tree_0Mat_0", "primitives": [{"attributes": {"NORMAL": 1, "POSITION": 0, "TANGENT": 2, "TEXCOORD_0": 3}, "indices": 4, "material": 0, "mode": 4}]}, {"name": "Tree_1_Tree_1Mat_0", "primitives": [{"attributes": {"NORMAL": 6, "POSITION": 5, "TANGENT": 7, "TEXCOORD_0": 8}, "indices": 9, "material": 1, "mode": 4}]}, {"name": "Tree_2_Tree_2Mat_0", "primitives": [{"attributes": {"NORMAL": 11, "POSITION": 10, "TANGENT": 12, "TEXCOORD_0": 13}, "indices": 14, "material": 2, "mode": 4}]}], "nodes": [{"children": [1], "matrix": [1.0, 0.0, 0.0, 0.0, 0.0, 2.220446049250313e-16, -1.0, 0.0, 0.0, 1.0, 2.220446049250313e-16, 0.0, 0.0, 0.0, 0.0, 1.0], "name": "Sketchfab_model"}, {"children": [2], "matrix": [0.009999999776482582, 0.0, 0.0, 0.0, 0.0, 0.0, 0.009999999776482582, 0.0, 0.0, -0.009999999776482582, 0.0, 0.0, 0.0, 0.0, 0.0, 1.0], "name": "old.fbx"}, {"children": [3], "name": "RootNode"}, {"children": [4, 5], "name": "Tree_0"}, {"mesh": 0, "name": "Tree_0_Tree_0Mat_0"}, {"children": [6, 7], "name": "Tree_1"}, {"mesh": 1, "name": "Tree_1_Tree_1Mat_0"}, {"children": [8], "name": "Tree_2"}, {"mesh": 2, "name": "Tree_2_Tree_2Mat_0"}], "samplers": [{"magFilter": 9729, "minFilter": 9987, "wrapS": 10497, "wrapT": 10497}], "scene": 0, "scenes": [{"name": "Sketchfab_Scene", "nodes": [0]}], "textures": [{"sampler": 0, "source": 0}, {"sampler": 0, "source": 1}, {"sampler": 0, "source": 2}, {"sampler": 0, "source": 3}, {"sampler": 0, "source": 4}, {"sampler": 0, "source": 5}, {"sampler": 0, "source": 6}, {"sampler": 0, "source": 7}, {"sampler": 0, "source": 8}]}