{"accessors": [{"bufferView": 2, "componentType": 5126, "count": 3322, "max": [-1.688099980354309, 5.823999881744385, 1.2065999507904053], "min": [-4.076600074768066, -3.4816999435424805, 0.010700000450015068], "type": "VEC3"}, {"bufferView": 2, "byteOffset": 39864, "componentType": 5126, "count": 3322, "max": [0.9985975027084351, 0.9980340600013733, 0.9998586177825928], "min": [-0.9986796379089355, -0.9992997646331787, -0.9999691247940063], "type": "VEC3"}, {"bufferView": 3, "componentType": 5126, "count": 3322, "max": [0.9956825375556946, 0.9990369081497192, 0.9990180730819702, 1.0], "min": [-0.9958496689796448, -0.9991302490234375, -0.9986245632171631, -1.0], "type": "VEC4"}, {"bufferView": 1, "componentType": 5126, "count": 3322, "max": [0.9815999865531921, 0.9876000285148621], "min": [0.009999999776482582, 0.011300000362098217], "type": "VEC2"}, {"bufferView": 0, "componentType": 5125, "count": 14769, "type": "SCALAR"}, {"bufferView": 2, "byteOffset": 79728, "componentType": 5126, "count": 4048, "max": [3.617300033569336, 5.252099990844727, 1.289199948310852], "min": [1.70169997215271, -4.212600231170654, 0.04100000113248825], "type": "VEC3"}, {"bufferView": 2, "byteOffset": 128304, "componentType": 5126, "count": 4048, "max": [0.999511182308197, 0.9999711513519287, 0.9997186064720154], "min": [-0.999958872795105, -0.9984997510910034, -0.99989914894104], "type": "VEC3"}, {"bufferView": 3, "byteOffset": 53152, "componentType": 5126, "count": 4048, "max": [0.9941495060920715, 0.9999740123748779, 0.9974640607833862, 1.0], "min": [-0.9988543391227722, -0.9999685883522034, -0.9899149537086487, -1.0], "type": "VEC4"}, {"bufferView": 1, "byteOffset": 26576, "componentType": 5126, "count": 4048, "max": [0.9919000267982483, 0.984000027179718], "min": [0.011500000022351742, 0.00860000029206276], "type": "VEC2"}, {"bufferView": 0, "byteOffset": 59076, "componentType": 5125, "count": 17070, "type": "SCALAR"}, {"bufferView": 2, "byteOffset": 176880, "componentType": 5126, "count": 4330, "max": [0.9557999968528748, 4.6539998054504395, 1.2929999828338623], "min": [-0.9645000100135803, -4.643199920654297, 0.003599999938160181], "type": "VEC3"}, {"bufferView": 2, "byteOffset": 228840, "componentType": 5126, "count": 4330, "max": [0.9995297789573669, 0.9995536208152771, 0.9998754262924194], "min": [-0.9996997714042664, -0.9986040592193604, -0.9999302625656128], "type": "VEC3"}, {"bufferView": 3, "byteOffset": 117920, "componentType": 5126, "count": 4330, "max": [0.9995699524879456, 0.9999999403953552, 0.9981702566146851, 1.0], "min": [-0.9986779689788818, -0.9999971985816956, -0.999860942363739, -1.0], "type": "VEC4"}, {"bufferView": 1, "byteOffset": 58960, "componentType": 5126, "count": 4330, "max": [0.9807000160217285, 0.9839000105857849], "min": [0.010700000450015068, 0.012199999764561653], "type": "VEC2"}, {"bufferView": 0, "byteOffset": 127356, "componentType": 5125, "count": 17523, "type": "SCALAR"}], "asset": {"extras": {"author": "vitvitskyi (https://sketchfab.com/vitvitskyi)", "license": "CC-BY-4.0 (http://creativecommons.org/licenses/by/4.0/)", "source": "https://sketchfab.com/3d-models/fighting-ka-bar-knifes-b3c3a8c7c28349268f6631567cf01d8a", "title": "Fighting Ka-Bar knifes"}, "generator": "Sketchfab-12.65.0", "version": "2.0"}, "bufferViews": [{"buffer": 0, "byteLength": 197448, "name": "floatBufferViews", "target": 34963}, {"buffer": 0, "byteLength": 93600, "byteOffset": 197448, "byteStride": 8, "name": "floatBufferViews", "target": 34962}, {"buffer": 0, "byteLength": 280800, "byteOffset": 291048, "byteStride": 12, "name": "floatBufferViews", "target": 34962}, {"buffer": 0, "byteLength": 187200, "byteOffset": 571848, "byteStride": 16, "name": "floatBufferViews", "target": 34962}], "buffers": [{"byteLength": 759048, "uri": "scene.bin"}], "images": [{"uri": "textures/Classic_baseColor.png"}, {"uri": "textures/Classic_metallicRoughness.png"}, {"uri": "textures/Classic_normal.png"}], "materials": [{"doubleSided": true, "name": "Classic", "normalTexture": {"index": 2}, "occlusionTexture": {"index": 1}, "pbrMetallicRoughness": {"baseColorTexture": {"index": 0}, "metallicRoughnessTexture": {"index": 1}}}], "meshes": [{"name": "Object_0", "primitives": [{"attributes": {"NORMAL": 1, "POSITION": 0, "TANGENT": 2, "TEXCOORD_0": 3}, "indices": 4, "material": 0, "mode": 4}]}], "nodes": [{"children": [1], "matrix": [1.0, 0.0, 0.0, 0.0, 0.0, 2.220446049250313e-16, -1.0, 0.0, 0.0, 1.0, 2.220446049250313e-16, 0.0, 0.0, 0.0, 0.0, 1.0], "name": "Sketchfab_model"}, {"children": [2, 3, 4], "name": "Ka_Bar_pack.obj.cleaner.materialmerger.gles"}, {"mesh": 0, "name": "Object_2"}, {"name": "Object_3"}, {"name": "Object_4"}], "samplers": [{"magFilter": 9729, "minFilter": 9987, "wrapS": 10497, "wrapT": 10497}], "scene": 0, "scenes": [{"name": "Sketchfab_Scene", "nodes": [0]}], "textures": [{"sampler": 0, "source": 0}, {"sampler": 0, "source": 1}, {"sampler": 0, "source": 2}, {"sampler": 0, "source": 3}, {"sampler": 0, "source": 4}, {"sampler": 0, "source": 5}, {"sampler": 0, "source": 6}, {"sampler": 0, "source": 7}, {"sampler": 0, "source": 8}]}