{"accessors": [{"bufferView": 2, "componentType": 5126, "count": 13817, "max": [846.98193359375, 3677.789794921875, 942.7080688476562], "min": [-846.98291015625, -3.0911035537719727, -852.2100219726562], "type": "VEC3"}, {"bufferView": 2, "byteOffset": 165804, "componentType": 5126, "count": 13817, "max": [1.0, 1.0, 0.9999977350234985], "min": [-1.0, -1.0, -0.9999977350234985], "type": "VEC3"}, {"bufferView": 3, "componentType": 5126, "count": 13817, "max": [1.0, 0.9999978542327881, 1.0, 1.0], "min": [-1.0, -0.9999978542327881, -1.0, 1.0], "type": "VEC4"}, {"bufferView": 1, "componentType": 5126, "count": 13817, "max": [0.9951414465904236, 0.9989244937896729], "min": [0.0010755110997706652, 0.0010755062103271484], "type": "VEC2"}, {"bufferView": 0, "componentType": 5125, "count": 32475, "type": "SCALAR"}], "asset": {"extras": {"author": "Mehdi Shahsavan (https://sketchfab.com/ahmagh2e)", "license": "CC-BY-4.0 (http://creativecommons.org/licenses/by/4.0/)", "source": "https://sketchfab.com/3d-models/water-tower-water-tanker-14-mb-69811beb5b2d4c31901b3c99e1fcf219", "title": "Water Tower Water Tanker_14_MB"}, "generator": "Sketchfab-16.62.0", "version": "2.0"}, "bufferViews": [{"buffer": 0, "byteLength": 149784, "name": "floatBufferViews", "target": 34963, "byteOffset": 0}, {"buffer": 0, "byteLength": 120544, "byteOffset": 149784, "byteStride": 8, "name": "floatBufferViews", "target": 34962}, {"buffer": 0, "byteLength": 361632, "byteOffset": 270328, "byteStride": 12, "name": "floatBufferViews", "target": 34962}, {"buffer": 0, "byteLength": 241088, "byteOffset": 631960, "byteStride": 16, "name": "floatBufferViews", "target": 34962}], "buffers": [{"uri": "scene.bin", "byteLength": 873048}], "images": [{"uri": "textures/material_baseColor.jpg"}, {"uri": "textures/material_metallicRoughness.jpg"}, {"uri": "textures/material_normal.jpg"}], "materials": [{"doubleSided": true, "name": "material", "normalTexture": {"index": 2}, "pbrMetallicRoughness": {"baseColorTexture": {"index": 0}, "metallicRoughnessTexture": {"index": 1}}}], "meshes": [{"name": "01_01_0", "primitives": [{"attributes": {"NORMAL": 1, "POSITION": 0, "TANGENT": 2, "TEXCOORD_0": 3}, "indices": 4, "material": 0, "mode": 4}]}], "nodes": [{"children": [1], "matrix": [1.0, 0.0, 0.0, 0.0, 0.0, 2.220446049250313e-16, -1.0, 0.0, 0.0, 1.0, 2.220446049250313e-16, 0.0, 0.0, 0.0, 0.0, 1.0], "name": "Sketchfab_model"}, {"children": [2], "matrix": [0.009999999776482582, 0.0, 0.0, 0.0, 0.0, 0.0, 0.009999999776482582, 0.0, 0.0, -0.009999999776482582, 0.0, 0.0, 0.0, 0.0, 0.0, 1.0], "name": "b77d70876ab0452583e9b12a29ae3023.fbx"}, {"children": [3, 5, 7], "name": "RootNode"}, {"children": [4], "matrix": [0.43190710379158415, -0.08130087792560912, -0.8982463030499436, 0.0, 0.03523105545630974, 0.9966896042642991, -0.07327076827022645, 0.0, 0.9012297301053712, 4.163336342344337e-17, 0.43334163609581733, 0.0, -908.265625, 2520.151123046875, 1696.2025146484375, 1.0], "name": "CINEMA_4D_Editor"}, {"name": "Object_4"}, {"children": [6], "name": "01"}, {"mesh": 0, "name": "01_01_0"}, {"name": "02"}], "samplers": [{"magFilter": 9729, "minFilter": 9987, "wrapS": 10497, "wrapT": 10497}], "scene": 0, "scenes": [{"name": "Sketchfab_Scene", "nodes": [0]}], "textures": [{"sampler": 0, "source": 0}, {"sampler": 0, "source": 1}, {"sampler": 0, "source": 2}]}