{"accessors": [{"bufferView": 2, "componentType": 5126, "count": 120, "max": [776.8831176757812, 913.3344116210938, 1426.169189453125], "min": [-727.97314453125, -135.33184814453125, -21.358840942382812], "type": "VEC3"}, {"bufferView": 2, "byteOffset": 1440, "componentType": 5126, "count": 120, "max": [1.0, 1.0, 1.0], "min": [-0.9999212026596069, -1.0, -0.43977513909339905], "type": "VEC3"}, {"bufferView": 3, "componentType": 5126, "count": 120, "max": [1.0, 0.9926902055740356, 0.9219992160797119, 1.0], "min": [-1.0, -1.0, -0.9999837279319763, -1.0], "type": "VEC4"}, {"bufferView": 1, "componentType": 5126, "count": 120, "max": [0.6203809976577759, 0.2940570116043091], "min": [0.0027860000263899565, 0.004548999946564436], "type": "VEC2"}, {"bufferView": 0, "componentType": 5125, "count": 180, "type": "SCALAR"}, {"bufferView": 2, "byteOffset": 2880, "componentType": 5126, "count": 9835, "max": [844.03271484375, 1019.5505981445312, 1630.682861328125], "min": [-751.9916381835938, -719.8126831054688, -7.8092041015625], "type": "VEC3"}, {"bufferView": 2, "byteOffset": 120900, "componentType": 5126, "count": 9835, "max": [1.0, 1.0, 1.0], "min": [-1.0, -1.0, -1.0], "type": "VEC3"}, {"bufferView": 3, "byteOffset": 1920, "componentType": 5126, "count": 9835, "max": [1.0, 1.0, 1.0, 1.0], "min": [-1.0, -1.0, -1.0, -1.0], "type": "VEC4"}, {"bufferView": 1, "byteOffset": 960, "componentType": 5126, "count": 9835, "max": [3.734200954437256, 1.0350040197372437], "min": [-3.9022018909454346, -0.0005130000063218176], "type": "VEC2"}, {"bufferView": 0, "byteOffset": 720, "componentType": 5125, "count": 20943, "type": "SCALAR"}, {"bufferView": 2, "byteOffset": 238920, "componentType": 5126, "count": 4680, "max": [799.341796875, 1015.7109985351562, 1581.3004150390625], "min": [-737.8941650390625, -703.7134399414062, 20.5614013671875], "type": "VEC3"}, {"bufferView": 2, "byteOffset": 295080, "componentType": 5126, "count": 4680, "max": [1.0, 1.0, 1.0], "min": [-1.0, -1.0, -1.0], "type": "VEC3"}, {"bufferView": 3, "byteOffset": 159280, "componentType": 5126, "count": 4680, "max": [1.0, 1.0, 1.0, 1.0], "min": [-1.0, -1.0, -1.0, -1.0], "type": "VEC4"}, {"bufferView": 1, "byteOffset": 79640, "componentType": 5126, "count": 4680, "max": [1.384395956993103, 0.9966310262680054], "min": [-0.0961650013923645, -0.00038899999344721437], "type": "VEC2"}, {"bufferView": 0, "byteOffset": 84492, "componentType": 5125, "count": 8832, "type": "SCALAR"}], "asset": {"extras": {"author": "Simlion (https://sketchfab.com/simlion)", "license": "CC-BY-4.0 (http://creativecommons.org/licenses/by/4.0/)", "source": "https://sketchfab.com/3d-models/suburban-shabby-house-low-poly-f4678340de204c829e79a01f216e1be0", "title": "Suburban shabby house low poly"}, "generator": "Sketchfab-14.98.0", "version": "2.0"}, "bufferViews": [{"buffer": 0, "byteLength": 119820, "name": "floatBufferViews", "target": 34963, "byteOffset": 0}, {"buffer": 0, "byteLength": 117080, "byteOffset": 119820, "byteStride": 8, "name": "floatBufferViews", "target": 34962}, {"buffer": 0, "byteLength": 351240, "byteOffset": 236900, "byteStride": 12, "name": "floatBufferViews", "target": 34962}, {"buffer": 0, "byteLength": 234160, "byteOffset": 588140, "byteStride": 16, "name": "floatBufferViews", "target": 34962}], "buffers": [{"uri": "scene.bin", "byteLength": 822300}], "images": [{"uri": "textures/Decals_baseColor.png"}, {"uri": "textures/Decals_metallicRoughness.jpg"}, {"uri": "textures/Decals_normal.jpg"}, {"uri": "textures/HouseBase_metallicRoughness.jpg"}, {"uri": "textures/HouseBase_normal.jpg"}], "materials": [{"alphaMode": "BLEND", "doubleSided": true, "name": "Decals", "normalTexture": {"index": 2}, "pbrMetallicRoughness": {"baseColorTexture": {"index": 0}, "metallicFactor": 0.0, "metallicRoughnessTexture": {"index": 1}, "roughnessFactor": 0.6}}, {"alphaMode": "BLEND", "doubleSided": true, "name": "HouseBase", "normalTexture": {"index": 4}, "pbrMetallicRoughness": {"baseColorTexture": {"index": 0}, "metallicRoughnessTexture": {"index": 3}}}], "meshes": [{"name": "Object_0", "primitives": [{"attributes": {"NORMAL": 1, "POSITION": 0, "TANGENT": 2, "TEXCOORD_0": 3}, "indices": 4, "material": 0, "mode": 4}]}, {"name": "Object_1", "primitives": [{"attributes": {"NORMAL": 6, "POSITION": 5, "TANGENT": 7, "TEXCOORD_0": 8}, "indices": 9, "material": 1, "mode": 4}]}, {"name": "Object_2", "primitives": [{"attributes": {"NORMAL": 11, "POSITION": 10, "TANGENT": 12, "TEXCOORD_0": 13}, "indices": 14, "material": 1, "mode": 4}]}], "nodes": [{"children": [1], "matrix": [1.0, 0.0, 0.0, 0.0, 0.0, 2.220446049250313e-16, -1.0, 0.0, 0.0, 1.0, 2.220446049250313e-16, 0.0, 0.0, 0.0, 0.0, 1.0], "name": "Sketchfab_model"}, {"children": [2, 3, 4], "name": "HouseSuburban.obj.cleaner.materialmerger.gles"}, {"mesh": 0, "name": "Object_2"}, {"mesh": 1, "name": "Object_3"}, {"mesh": 2, "name": "Object_4"}], "samplers": [{"magFilter": 9729, "minFilter": 9987, "wrapS": 10497, "wrapT": 10497}], "scene": 0, "scenes": [{"name": "Sketchfab_Scene", "nodes": [0]}], "textures": [{"sampler": 0, "source": 0}, {"sampler": 0, "source": 1}, {"sampler": 0, "source": 2}, {"sampler": 0, "source": 3}, {"sampler": 0, "source": 4}]}