{"accessors": [{"bufferView": 2, "componentType": 5126, "count": 1804, "max": [62.40081024169922, 146.99867248535156, 89.0947494506836], "min": [-61.35327911376953, -147.73626708984375, 3.5982460975646973], "type": "VEC3"}, {"bufferView": 2, "byteOffset": 21648, "componentType": 5126, "count": 1804, "max": [1.0, 0.9999029636383057, 1.0], "min": [-1.0, -0.9994201064109802, -1.0], "type": "VEC3"}, {"bufferView": 3, "componentType": 5126, "count": 1804, "max": [0.9999769330024719, 0.9999390244483948, 0.9989847540855408, 1.0], "min": [-1.0, -0.9999741315841675, -0.99992436170578, 1.0], "type": "VEC4"}, {"bufferView": 1, "componentType": 5126, "count": 1804, "max": [0.9993442893028259, 0.9994637966156006], "min": [0.0009999999310821295, 0.0009999986505135894], "type": "VEC2"}, {"bufferView": 0, "componentType": 5125, "count": 5871, "type": "SCALAR"}, {"bufferView": 2, "byteOffset": 43296, "componentType": 5126, "count": 1429, "max": [35.30587387084961, 83.06687927246094, 47.08478927612305], "min": [-36.4048957824707, -85.51338195800781, -0.04509273171424866], "type": "VEC3"}, {"bufferView": 2, "byteOffset": 60444, "componentType": 5126, "count": 1429, "max": [1.0, 0.9999986290931702, 1.0], "min": [-1.0, -0.9992150664329529, -0.9999558329582214], "type": "VEC3"}, {"bufferView": 3, "byteOffset": 28864, "componentType": 5126, "count": 1429, "max": [0.9999187588691711, 0.9999975562095642, 0.9989824295043945, 1.0], "min": [-0.9999995827674866, -0.9999921321868896, -0.9996548295021057, -1.0], "type": "VEC4"}, {"bufferView": 1, "byteOffset": 14432, "componentType": 5126, "count": 1429, "max": [0.9999028444290161, 0.999875545501709], "min": [0.0010000001639127731, 0.0010000000474974513], "type": "VEC2"}, {"bufferView": 0, "byteOffset": 23484, "componentType": 5125, "count": 4482, "type": "SCALAR"}], "asset": {"extras": {"author": "Renafox (https://sketchfab.com/kryik1023)", "license": "CC-BY-4.0 (http://creativecommons.org/licenses/by/4.0/)", "source": "https://sketchfab.com/3d-models/burned-out-cars-701066df6b914fd08318524c7ccd96a7", "title": "Burned-out Cars"}, "generator": "Sketchfab-12.68.0", "version": "2.0"}, "bufferViews": [{"buffer": 0, "byteLength": 41412, "name": "floatBufferViews", "target": 34963, "byteOffset": 0}, {"buffer": 0, "byteLength": 25864, "byteOffset": 41412, "byteStride": 8, "name": "floatBufferViews", "target": 34962}, {"buffer": 0, "byteLength": 77592, "byteOffset": 67276, "byteStride": 12, "name": "floatBufferViews", "target": 34962}, {"buffer": 0, "byteLength": 51728, "byteOffset": 144868, "byteStride": 16, "name": "floatBufferViews", "target": 34962}], "buffers": [{"uri": "scene.bin", "byteLength": 196596}], "images": [{"uri": "textures/Material_25_baseColor.jpg"}, {"uri": "textures/Material_25_metallicRoughness.jpg"}, {"uri": "textures/Material_25_normal.jpg"}, {"uri": "textures/Material_26_baseColor.jpg"}, {"uri": "textures/Material_26_metallicRoughness.jpg"}, {"uri": "textures/Material_26_normal.jpg"}], "materials": [{"doubleSided": true, "name": "Material_25", "normalTexture": {"index": 2}, "occlusionTexture": {"index": 1}, "pbrMetallicRoughness": {"baseColorTexture": {"index": 0}, "metallicRoughnessTexture": {"index": 1}}}, {"doubleSided": true, "name": "Material_26", "normalTexture": {"index": 5}, "occlusionTexture": {"index": 4}, "pbrMetallicRoughness": {"baseColorTexture": {"index": 3}, "metallicRoughnessTexture": {"index": 4}}}], "meshes": [{"name": "default001_Material #25_0", "primitives": [{"attributes": {"NORMAL": 1, "POSITION": 0, "TANGENT": 2, "TEXCOORD_0": 3}, "indices": 4, "material": 0, "mode": 4}]}, {"name": "default002_Material #26_0", "primitives": [{"attributes": {"NORMAL": 6, "POSITION": 5, "TANGENT": 7, "TEXCOORD_0": 8}, "indices": 9, "material": 1, "mode": 4}]}], "nodes": [{"children": [1], "matrix": [1.0, 0.0, 0.0, 0.0, 0.0, 2.220446049250313e-16, -1.0, 0.0, 0.0, 1.0, 2.220446049250313e-16, 0.0, 0.0, 0.0, 0.0, 1.0], "name": "Sketchfab_model"}, {"children": [2], "matrix": [1.0, 0.0, 0.0, 0.0, 0.0, 0.0, 1.0, 0.0, 0.0, -1.0, 0.0, 0.0, 0.0, 0.0, 0.0, 1.0], "name": "burnedcars.FBX"}, {"children": [3, 5], "name": "RootNode"}, {"children": [4], "matrix": [1.0, 0.0, 0.0, 0.0, 0.0, 2.220446049250313e-16, -1.0, 0.0, 0.0, 1.0, 2.220446049250313e-16, 0.0, 78.21156311035156, -2.1300816535949707, -9.310882376212248e-08, 1.0], "name": "default001"}, {"mesh": 0, "name": "default001_Material #25_0"}, {"children": [6], "matrix": [1.7227832078933716, 0.0, 0.0, 0.0, 0.0, 3.8253471676816177e-16, -1.7227832078933716, 0.0, 0.0, 1.7227832078933716, 3.8253471676816177e-16, 0.0, -78.89970397949219, 0.4205167293548584, 1.8381371091891197e-08, 1.0], "name": "default002"}, {"mesh": 1, "name": "default002_Material #26_0"}], "samplers": [{"magFilter": 9729, "minFilter": 9987, "wrapS": 10497, "wrapT": 10497}], "scene": 0, "scenes": [{"name": "Sketchfab_Scene", "nodes": [0]}], "textures": [{"sampler": 0, "source": 0}, {"sampler": 0, "source": 1}, {"sampler": 0, "source": 2}, {"sampler": 0, "source": 3}, {"sampler": 0, "source": 4}, {"sampler": 0, "source": 5}]}